<?xml version="1.0" encoding="utf-8"?>
<!-- Generator: Adobe Illustrator 24.0.3, SVG Export Plug-In . SVG Version: 6.00 Build 0)  -->
<svg version="1.1" id="Capa_1" xmlns="http://www.w3.org/2000/svg" xmlns:xlink="http://www.w3.org/1999/xlink" x="0px" y="0px"
	 width="100px" height="80px" viewBox="0 0 100 80" style="enable-background:new 0 0 100 80;" xml:space="preserve">
<style type="text/css">
	.st0{fill:#FFE2AE;}
	.st1{fill:#FFD16B;}
	.st2{fill:#FFD780;}
	.st3{fill:#FCBA4E;}
	.st4{fill:#FCAE30;}
	.st5{fill:#FFFFEB;}
	.st6{opacity:0.1;}
	.st7{fill:#EC2D2F;}
	.st8{fill:#E6E6E6;}
	.st9{fill:#414042;}
	.st10{fill:#B3B3B3;}
	.st11{fill:#A7A9AC;}
	.st12{fill:#B7232B;}
	.st13{fill:#A1A1A1;}
</style>
<g>
	<path class="st0" d="M89.391,27.215c-0.115-1.098-1-1.998-2.095-2.14c-0.483-0.062-0.939,0.023-1.338,0.209
		c0.004-0.077,0.012-0.152,0.012-0.23c0-2.676-2.169-4.844-4.844-4.844c-1.026,0-1.975,0.321-2.759,0.865
		c-0.802-3.289-3.884-5.685-7.477-5.415c-3.422,0.257-6.21,2.988-6.544,6.403c-0.104,1.062,0.03,2.08,0.349,3.013
		c-0.1-0.013-0.201-0.021-0.305-0.021c-0.472,0-0.911,0.137-1.284,0.371c0.001-0.044,0.007-0.087,0.007-0.131
		c0-2.543-2.061-4.604-4.604-4.604c-2.543,0-4.604,2.061-4.604,4.604c0,0.249,0.025,0.491,0.063,0.729h-7.732
		c-1.07,0-1.938,0.868-1.938,1.938c0,1.07,0.868,1.938,1.938,1.938h41.584v-0.152C88.821,29.378,89.512,28.369,89.391,27.215z"/>
</g>
<g>
	<path class="st0" d="M48.338,11.595h-7.487c0.204-0.78,0.189-1.648-0.281-2.576c-0.509-1.004-1.435-1.765-2.537-1.997
		c-0.687-0.145-1.344-0.088-1.937,0.108c0.001-0.04,0.003-0.08,0.003-0.12c0-3.642-2.953-6.595-6.595-6.595
		c-3.222,0-5.902,2.311-6.479,5.365c-0.265-0.051-0.538-0.08-0.818-0.08c-2.308,0-4.189,1.806-4.321,4.081l-10.172,0
		c-1.256,0-2.351,0.968-2.389,2.223c-0.039,1.299,1.002,2.364,2.293,2.364h40.721c0.766,0,1.387-0.621,1.387-1.387
		C49.725,12.216,49.104,11.595,48.338,11.595z"/>
</g>
<g>
	<path class="st1" d="M0.769,65.87c0,0,12.4-23.529,27.176-23.28C49.191,42.948,62.47,63.286,62.47,63.286L0.769,65.87z"/>
	<path class="st2" d="M31.789,66.493c0,0,17.527-29.94,32.303-29.691c21.247,0.358,32.302,29.191,32.302,29.191L31.789,66.493z"/>
	<path class="st3" d="M99.231,69.816c0,5.206-23.278,5.174-49.552,8.72C8.625,84.077,0.769,65.87,0.769,65.87
		c1.974-4.935,27.048-11.426,51.476-11.426S99.231,64.61,99.231,69.816z"/>
	<path class="st4" d="M10.15,60.516c4.09,4.847,16.181,14.131,47.085,9.96c15.561-2.1,30.071-2.945,39.316-4.367
		c-6.672-5.248-24.898-11.665-44.306-11.665C36.279,54.444,20.038,57.217,10.15,60.516z"/>
	<g>
		<g>
			<path class="st5" d="M21.121,61.405h4.906V45.124c5.752-0.391,10.312-5.195,10.312-11.044c0-1.39-1.126-2.516-2.516-2.516
				c-1.39,0-2.516,1.126-2.516,2.516c0,3.072-2.307,5.614-5.28,5.989v-6.905c0-1.355-1.098-2.453-2.453-2.453
				c-1.355,0-2.453,1.098-2.453,2.453v12.605c-2.537-0.715-4.403-3.049-4.403-5.812c0-1.39-1.126-2.516-2.516-2.516
				c-1.39,0-2.516,1.126-2.516,2.516c0,5.549,4.104,10.157,9.435,10.949V61.405z"/>
		</g>
		<path class="st4" d="M20.864,50.921c0.193,0.189,0,1.442,0,1.715v6.655c0,0.656-0.067,1.4-0.018,2.114h0.522
			c-0.073-0.835,0.01-1.723,0.01-2.555v-7.944c0-0.103-0.079-0.229-0.189-0.248c-4.921-0.84-9.422-5.192-9.241-10.458
			c0.045-1.313,0.785-2.502,2.254-2.502c1.552,0,2.094,1.2,2.268,2.5c0.113,0.84,0.21,1.608,0.575,2.393
			c0.793,1.708,2.239,2.852,4.007,3.425c0.16,0.052,0.326-0.087,0.326-0.248V34.131c0-1.074-0.021-2.217,1.088-2.863
			c1.581-0.922,3.14,0.373,3.304,1.979c0.031,0.305,0,0.632,0,0.937v5.885c0,0.181,0.164,0.275,0.326,0.248
			c1.903-0.316,3.572-1.337,4.576-3.009c0.419-0.698,0.693-1.474,0.818-2.277c0.172-1.109,0.04-2.227,1.194-2.901
			c1.586-0.927,3.25,0.291,3.399,1.95c-0.123,5.684-4.38,10.278-10.055,10.787c-0.138,0.012-0.257,0.108-0.257,0.257V60.78
			c0,0.204,0.012,0.418,0.003,0.625h0.549c0.065-0.882-0.038-1.825-0.038-2.671V47.693c0-0.633-0.204-1.644,0-2.245
			c0.04-0.118,0.045-0.167,0.041-0.188c0.012,0.001,0.031-0.003,0.069-0.024c0.318-0.171,1.518-0.128,2.02-0.273
			c1.509-0.437,2.915-1.195,4.12-2.2c2.594-2.163,3.989-5.334,4.062-8.682c-0.198-2.207-2.629-3.686-4.524-2.146
			c-0.887,0.721-0.924,1.581-1.041,2.627c-0.116,1.035-0.443,2.014-1.05,2.866c-0.854,1.198-1.904,1.551-3.107,2.206
			c-0.578,0.315-0.464,0.504-0.589,0.121c-0.094-0.287,0-0.784,0-1.093v-3.506c0-1.567,0.25-3.4-1.342-4.331
			c-1.876-1.097-3.939,0.349-4.078,2.352c-0.099,1.417,0,2.876,0,4.296v6.575c0,0.344,0.179,1.303,0,1.618
			c0.127-0.222-0.892-0.623-1.277-0.875c-1.088-0.713-1.922-1.8-2.327-3.036c-0.401-1.227-0.063-2.555-0.952-3.598
			c-0.695-0.814-1.814-1.144-2.84-0.862c-2.67,0.733-2.162,3.997-1.534,6.016c0.838,2.694,2.697,5.022,5.134,6.442
			c0.549,0.32,1.126,0.593,1.72,0.816c0.403,0.151,0.904,0.372,1.336,0.409C19.685,50.938,21.065,51.118,20.864,50.921z"/>
		<path class="st4" d="M24.215,35.492v8.029c0,0.14,0.283,0.094,0.283-0.024v-8.029C24.498,35.327,24.215,35.374,24.215,35.492z"/>
		<path class="st4" d="M24.7,46.932v2.128c0,0.07,0.28,0.023,0.28-0.075v-2.128C24.98,46.786,24.7,46.834,24.7,46.932z"/>
		<path class="st4" d="M24.216,52.736v5.611c0,0.062,0.28,0.017,0.28-0.075v-5.611C24.497,52.598,24.216,52.643,24.216,52.736z"/>
		<path class="st4" d="M22.957,39.359v8.319c0,0.15,0.284,0.111,0.284-0.02v-8.319C23.241,39.189,22.957,39.228,22.957,39.359z"/>
		<path class="st4" d="M22.959,49.834v1.451c0,0.084,0.28,0.033,0.28-0.075v-1.451C23.239,49.674,22.959,49.726,22.959,49.834z"/>
		<path class="st4" d="M22.474,32.689v1.838c0,0.132,0.282,0.081,0.282-0.028V32.66C22.756,32.528,22.474,32.58,22.474,32.689z"/>
		<path class="st4" d="M19.423,47.096c-2.28-1.846-4.253-4.33-4.097-7.418c0.003-0.055-0.276-0.016-0.28,0.075
			c-0.157,3.101,1.828,5.592,4.114,7.443C19.224,47.248,19.477,47.139,19.423,47.096z"/>
		<path class="st4" d="M17.039,46.834c-0.61-0.498-1.098-1.107-1.442-1.816c-0.052-0.106-0.327-0.02-0.28,0.075
			c0.351,0.723,0.84,1.347,1.463,1.856C16.865,47.018,17.127,46.905,17.039,46.834z"/>
		<path class="st4" d="M15.097,46.352c-1.58-1.734-2.401-3.99-2.294-6.335c0.007-0.149-0.278-0.111-0.284,0.02
			c-0.108,2.38,0.717,4.679,2.322,6.44C14.929,46.574,15.195,46.458,15.097,46.352z"/>
		<path class="st4" d="M32.683,34.431c-0.36,1.684-1.085,3.226-2.152,4.577c-0.015,0.019,0.225,0.015,0.276-0.05
			c1.067-1.351,1.792-2.893,2.152-4.577C32.972,34.323,32.698,34.363,32.683,34.431z"/>
		<path class="st4" d="M28.105,40.563c-0.314,0.397-0.778,0.591-1.281,0.52c-0.138-0.019-0.285,0.178-0.097,0.204
			c0.616,0.086,1.227-0.152,1.613-0.641C28.45,40.506,28.184,40.462,28.105,40.563z"/>
		<path class="st4" d="M34.349,32.736c-0.007-0.058-0.29-0.002-0.28,0.075c0.12,1.017-0.072,1.989-0.567,2.885
			c-0.023,0.041,0.237,0.025,0.277-0.048C34.279,34.743,34.471,33.762,34.349,32.736z"/>
		<path class="st4" d="M34.903,36.059c-1.175,3.614-4.349,6.397-8.102,7.042c-0.142,0.024-0.223,0.212-0.032,0.179
			c3.89-0.668,7.193-3.489,8.416-7.249C35.222,35.918,34.938,35.952,34.903,36.059z"/>
		<path class="st4" d="M22.321,56.652v3.657c0,0.075,0.331,0.021,0.331-0.089v-3.657C22.652,56.489,22.321,56.542,22.321,56.652z"/>
	</g>
	<g>
		<path class="st4" d="M34.744,46.455c0-0.531,0.43-0.961,0.961-0.961s0.961,0.43,0.961,0.961c0,1.174,0.881,2.145,2.017,2.288
			v-2.638c0-0.518,0.42-0.937,0.937-0.937l0,0c0.518,0,0.937,0.42,0.937,0.937v4.815c0.969-0.273,1.682-1.165,1.682-2.22
			c0-0.531,0.43-0.961,0.961-0.961c0.531,0,0.961,0.43,0.961,0.961c0,2.12-1.568,3.88-3.604,4.183v4.072
			c0,0.518-0.42,0.937-0.937,0.937l0,0c-0.518,0-0.937-0.42-0.937-0.937v-6.281C36.486,50.525,34.744,48.69,34.744,46.455z"/>
	</g>
	<g>
		<path class="st4" d="M83.363,54.366c0-0.477,0.386-0.863,0.863-0.863s0.863,0.386,0.863,0.863c0,1.054,0.791,1.926,1.811,2.054
			v-2.368c0-0.465,0.377-0.841,0.841-0.841l0,0c0.465,0,0.841,0.377,0.841,0.841v4.324c0.87-0.245,1.51-1.046,1.51-1.994
			c0-0.477,0.386-0.863,0.863-0.863c0.477,0,0.863,0.386,0.863,0.863c0,1.903-1.408,3.484-3.236,3.756v3.656
			c0,0.465-0.377,0.841-0.841,0.841l0,0c-0.465,0-0.841-0.377-0.841-0.841v-5.64C84.928,58.02,83.363,56.372,83.363,54.366z"/>
	</g>
	<g>
		<path class="st3" d="M11.166,55.457c-0.39,0-0.705,0.316-0.705,0.705V56.2c0,0.607-0.494,1.1-1.1,1.1H8.947v-3.79
			c0-0.447-0.362-0.809-0.809-0.809l0,0c-0.447,0-0.809,0.362-0.809,0.809v2.095c-0.424-0.022-0.762-0.372-0.762-0.801v-0.109
			c0-0.39-0.316-0.705-0.705-0.705c-0.39,0-0.705,0.316-0.705,0.705v0.109c0,1.207,0.971,2.19,2.172,2.212v1.863H6.878
			c-0.607,0-1.1-0.494-1.1-1.1c0-0.39-0.316-0.705-0.705-0.705c-0.39,0-0.705,0.316-0.705,0.705c0,1.385,1.126,2.511,2.511,2.511
			h0.451v1.721c0,0.447,0.362,0.809,0.809,0.809l0,0c0.447,0,0.809-0.362,0.809-0.809v-3.301h0.414c1.385,0,2.511-1.126,2.511-2.511
			v-0.038C11.872,55.773,11.556,55.457,11.166,55.457z"/>
	</g>
	<g>
		<path class="st5" d="M86.329,68.946c-0.328-0.056-0.667-0.037-0.986,0.057c-0.038,0.011-0.084,0.023-0.133,0.037
			c0.186-0.501,0.294-1.035,0.428-1.558c0.023-0.088-0.066-0.182-0.156-0.135c-0.391,0.206-0.757,0.448-1.095,0.722
			c-0.062-0.816-0.579-1.574-0.947-2.282c-0.038-0.073-0.147-0.084-0.193-0.013c-0.348,0.544-0.596,1.127-0.743,1.752
			c-0.075-0.112-0.157-0.219-0.249-0.319c-0.185-0.202-0.594-0.616-0.9-0.547c-0.33,0.074-0.186,0.628-0.168,0.859
			c0.034,0.434,0.093,0.867,0.195,1.291c-0.442,0.043-0.871,0.149-1.275,0.338c-0.424,0.198-0.573,0.328-0.191,0.672
			c0.841,0.757,1.779,1.496,2.962,1.506c0.001,0.001,0.003,0.003,0.004,0.004c0.015,0.012,0.03,0.019,0.045,0.022
			c0.031,0.022,0.074,0.027,0.111,0.015c0.061-0.004,0.122-0.026,0.182-0.058c1.322-0.26,2.477-1.016,3.549-1.795
			C87.221,69.187,86.67,69.004,86.329,68.946z"/>
		<path class="st4" d="M86.329,68.946c-0.328-0.056-0.667-0.037-0.986,0.057c-0.038,0.011-0.084,0.023-0.133,0.037
			c0.186-0.501,0.294-1.035,0.428-1.558c0.023-0.088-0.066-0.182-0.156-0.135c-0.391,0.206-0.757,0.448-1.095,0.722
			c-0.062-0.816-0.579-1.574-0.947-2.282c-0.038-0.073-0.147-0.084-0.193-0.013c-0.348,0.544-0.596,1.127-0.743,1.752
			c-0.075-0.112-0.157-0.219-0.249-0.319c-0.185-0.202-0.594-0.616-0.9-0.547c-0.33,0.074-0.186,0.628-0.168,0.859
			c0.034,0.434,0.093,0.867,0.195,1.291c-0.442,0.043-0.871,0.149-1.275,0.338c-0.424,0.198-0.573,0.328-0.191,0.672
			c0.841,0.757,1.779,1.496,2.962,1.506c0.001,0.001,0.003,0.003,0.004,0.004c0.015,0.012,0.03,0.019,0.045,0.022
			c0.031,0.022,0.074,0.027,0.111,0.015c0.061-0.004,0.122-0.026,0.182-0.058c1.322-0.26,2.477-1.016,3.549-1.795
			C87.221,69.187,86.67,69.004,86.329,68.946z M80.58,70.105c-0.177-0.145-0.404-0.296-0.546-0.476
			c-0.08-0.102-0.116-0.061-0.036-0.175c0.043-0.061,0.2-0.102,0.264-0.131c0.373-0.167,0.77-0.262,1.178-0.297
			c0.004,0.014,0.008,0.029,0.012,0.044c0.16,0.551,0.403,1.068,0.737,1.523c-0.503-0.245-0.946-0.594-1.304-1.033
			c-0.02-0.025-0.107,0.001-0.085,0.028c0.399,0.489,0.901,0.867,1.475,1.117c0.105,0.134,0.218,0.263,0.34,0.384
			C81.848,71.002,81.177,70.595,80.58,70.105z M82.971,70.974c-0.353-0.975-0.685-1.957-0.996-2.947
			c-0.013-0.041-0.102-0.023-0.09,0.016c0.315,1.004,0.652,2.001,1.011,2.99c0.006,0.018,0.027,0.024,0.048,0.022
			c-0.007,0.006-0.015,0.012-0.02,0.021c-0.101-0.088-0.194-0.182-0.284-0.28c0.004-0.007,0.002-0.015-0.013-0.02
			c-0.003-0.001-0.005-0.002-0.008-0.003c-0.37-0.409-0.648-0.892-0.839-1.412c-0.057-0.155-0.104-0.313-0.146-0.473
			c-0.001-0.016-0.005-0.032-0.012-0.045c-0.055-0.214-0.099-0.431-0.133-0.649c-0.03-0.195-0.054-0.391-0.071-0.587
			c-0.011-0.121-0.019-0.243-0.025-0.365c-0.007-0.13-0.067-0.241,0.077-0.283c0.308-0.089,0.753,0.532,0.891,0.75
			c0.206,0.325,0.339,0.691,0.434,1.062c0.072,0.281,0.142,0.58,0.189,0.883c-0.002,0.017,0.001,0.033,0.007,0.048
			C83.054,70.13,83.068,70.566,82.971,70.974z M83.254,69.203c0-0.029-0.001-0.059-0.001-0.088c-0.001-0.114,0-0.228,0.002-0.342
			c0.003-0.176,0.01-0.351,0.019-0.526c0.019-0.351,0.053-0.7,0.097-1.049c0.006-0.047-0.085-0.043-0.09-0.002
			c-0.052,0.407-0.088,0.815-0.106,1.224c-0.008,0.178-0.012,0.357-0.013,0.535c-0.001,0.084-0.02,0.203-0.009,0.304
			c-0.07-0.338-0.165-0.665-0.269-0.96c-0.059-0.169-0.13-0.334-0.214-0.492c0.122-0.623,0.341-1.202,0.664-1.745
			c0.37,0.676,0.846,1.417,0.836,2.192c-0.335,0.296-0.639,0.627-0.91,0.987C83.26,69.228,83.258,69.216,83.254,69.203z
			 M83.178,71.077c0.032-0.124,0.055-0.252,0.07-0.383c0.509-0.579,0.969-1.196,1.378-1.849c0.027-0.043-0.062-0.054-0.084-0.019
			c-0.382,0.61-0.811,1.187-1.281,1.732c0.021-0.29,0.006-0.59-0.035-0.888c0.312-0.465,0.677-0.884,1.091-1.249
			c0.03-0.008,0.055-0.027,0.068-0.058c0.302-0.26,0.629-0.492,0.979-0.694c-0.119,0.501-0.226,1.026-0.431,1.498
			c-0.038,0.032-0.068,0.07-0.081,0.116c-0.005,0.018-0.005,0.039-0.001,0.059c-0.054,0.107-0.113,0.21-0.18,0.309
			c-0.212,0.312-0.479,0.582-0.765,0.829c-0.125,0.108-0.255,0.211-0.386,0.312C83.48,70.823,83.308,70.98,83.178,71.077z
			 M86.527,69.415c-0.081,0.057-0.162,0.114-0.243,0.17c-0.22,0.153-0.442,0.304-0.668,0.448c-0.619,0.394-1.27,0.736-1.97,0.943
			c0.008-0.006,0.016-0.013,0.023-0.018c0.186-0.143,0.368-0.293,0.541-0.452c0.498-0.364,1.015-0.699,1.551-1.003
			c0.04-0.022-0.049-0.023-0.068-0.012c-0.43,0.244-0.847,0.507-1.253,0.79c0.068-0.071,0.134-0.143,0.198-0.219
			c0.17-0.202,0.303-0.42,0.414-0.648c0.02-0.012,0.035-0.03,0.041-0.055c0.001-0.007,0.003-0.013,0.004-0.02
			c0.002-0.009,0.003-0.018,0.003-0.026c0.001-0.003,0.002-0.006,0.004-0.009c0.146-0.111,0.648-0.162,0.761-0.167
			c0.208-0.009,0.581-0.016,0.754,0.112c0.034,0.009,0.067,0.019,0.101,0.028C86.655,69.324,86.591,69.37,86.527,69.415z"/>
	</g>
	<g>
		<path class="st5" d="M16.074,71.593c-0.328-0.056-0.667-0.037-0.986,0.057c-0.038,0.011-0.084,0.023-0.133,0.037
			c0.186-0.501,0.294-1.035,0.428-1.558c0.023-0.088-0.066-0.182-0.156-0.135c-0.391,0.206-0.757,0.448-1.095,0.722
			c-0.062-0.816-0.579-1.574-0.947-2.282c-0.038-0.073-0.147-0.084-0.193-0.013c-0.348,0.544-0.596,1.127-0.743,1.752
			c-0.075-0.112-0.157-0.219-0.249-0.319c-0.185-0.202-0.594-0.616-0.9-0.547c-0.33,0.074-0.186,0.628-0.168,0.859
			c0.034,0.434,0.093,0.867,0.195,1.291c-0.442,0.043-0.871,0.149-1.275,0.338c-0.424,0.198-0.573,0.328-0.191,0.672
			c0.841,0.757,1.779,1.496,2.962,1.506c0.001,0.001,0.003,0.003,0.004,0.004c0.015,0.012,0.03,0.019,0.045,0.022
			c0.031,0.022,0.074,0.027,0.111,0.015c0.061-0.004,0.122-0.026,0.182-0.058c1.322-0.26,2.477-1.017,3.549-1.795
			C16.965,71.833,16.415,71.651,16.074,71.593z"/>
		<path class="st4" d="M16.074,71.593c-0.328-0.056-0.667-0.037-0.986,0.057c-0.038,0.011-0.084,0.023-0.133,0.037
			c0.186-0.501,0.294-1.035,0.428-1.558c0.023-0.088-0.066-0.182-0.156-0.135c-0.391,0.206-0.757,0.448-1.095,0.722
			c-0.062-0.816-0.579-1.574-0.947-2.282c-0.038-0.073-0.147-0.084-0.193-0.013c-0.348,0.544-0.596,1.127-0.743,1.752
			c-0.075-0.112-0.157-0.219-0.249-0.319c-0.185-0.202-0.594-0.616-0.9-0.547c-0.33,0.074-0.186,0.628-0.168,0.859
			c0.034,0.434,0.093,0.867,0.195,1.291c-0.442,0.043-0.871,0.149-1.275,0.338c-0.424,0.198-0.573,0.328-0.191,0.672
			c0.841,0.757,1.779,1.496,2.962,1.506c0.001,0.001,0.003,0.003,0.004,0.004c0.015,0.012,0.03,0.019,0.045,0.022
			c0.031,0.022,0.074,0.027,0.111,0.015c0.061-0.004,0.122-0.026,0.182-0.058c1.322-0.26,2.477-1.017,3.549-1.795
			C16.965,71.833,16.415,71.651,16.074,71.593z M10.325,72.751c-0.177-0.145-0.404-0.296-0.546-0.476
			c-0.08-0.102-0.116-0.061-0.036-0.175c0.043-0.061,0.2-0.102,0.264-0.131c0.373-0.167,0.77-0.262,1.178-0.297
			c0.004,0.014,0.008,0.029,0.012,0.044c0.16,0.551,0.403,1.068,0.737,1.523c-0.503-0.245-0.946-0.594-1.304-1.033
			c-0.02-0.025-0.107,0.001-0.085,0.028c0.399,0.489,0.901,0.867,1.475,1.117c0.105,0.134,0.218,0.263,0.34,0.384
			C11.592,73.648,10.922,73.241,10.325,72.751z M12.716,73.62c-0.353-0.975-0.685-1.957-0.996-2.947
			c-0.013-0.041-0.102-0.023-0.09,0.016c0.315,1.004,0.652,2.001,1.011,2.99c0.006,0.018,0.027,0.024,0.048,0.022
			c-0.007,0.006-0.015,0.012-0.02,0.021c-0.101-0.088-0.194-0.182-0.284-0.28c0.004-0.007,0.002-0.015-0.013-0.02
			c-0.003-0.001-0.005-0.002-0.008-0.003c-0.37-0.409-0.648-0.892-0.839-1.412c-0.057-0.155-0.104-0.313-0.146-0.473
			c-0.001-0.016-0.005-0.032-0.012-0.045c-0.055-0.214-0.099-0.431-0.133-0.649c-0.03-0.195-0.054-0.391-0.071-0.587
			c-0.011-0.121-0.019-0.243-0.025-0.365c-0.007-0.13-0.067-0.241,0.077-0.283c0.308-0.089,0.753,0.532,0.891,0.75
			c0.206,0.325,0.339,0.691,0.434,1.062c0.072,0.281,0.142,0.58,0.189,0.883c-0.002,0.017,0.001,0.033,0.007,0.048
			C12.799,72.776,12.812,73.212,12.716,73.62z M12.999,71.85c0-0.029-0.001-0.059-0.001-0.088c-0.001-0.114,0-0.228,0.002-0.342
			c0.003-0.176,0.01-0.351,0.019-0.526c0.019-0.351,0.053-0.7,0.097-1.049c0.006-0.047-0.085-0.043-0.09-0.002
			c-0.052,0.407-0.088,0.815-0.106,1.224c-0.008,0.178-0.012,0.357-0.013,0.535c-0.001,0.084-0.02,0.203-0.009,0.304
			c-0.07-0.338-0.165-0.665-0.269-0.96c-0.059-0.169-0.13-0.334-0.214-0.492c0.122-0.623,0.341-1.202,0.664-1.745
			c0.37,0.676,0.846,1.417,0.836,2.192c-0.335,0.296-0.639,0.627-0.91,0.987C13.004,71.875,13.002,71.862,12.999,71.85z
			 M12.922,73.723c0.032-0.124,0.055-0.252,0.07-0.383c0.509-0.579,0.969-1.196,1.378-1.849c0.027-0.043-0.062-0.054-0.084-0.019
			c-0.382,0.61-0.811,1.187-1.281,1.732c0.021-0.29,0.006-0.59-0.035-0.888c0.312-0.465,0.677-0.884,1.091-1.249
			c0.03-0.008,0.055-0.027,0.068-0.058c0.302-0.26,0.629-0.492,0.979-0.694c-0.119,0.501-0.226,1.026-0.431,1.498
			c-0.038,0.032-0.068,0.07-0.081,0.116c-0.005,0.018-0.005,0.039-0.001,0.059c-0.054,0.107-0.113,0.21-0.18,0.309
			c-0.212,0.312-0.479,0.582-0.765,0.829c-0.125,0.108-0.255,0.211-0.386,0.312C13.224,73.469,13.052,73.626,12.922,73.723z
			 M16.271,72.061c-0.081,0.057-0.162,0.114-0.243,0.17c-0.22,0.153-0.442,0.304-0.668,0.448c-0.619,0.394-1.27,0.736-1.97,0.943
			c0.008-0.006,0.016-0.013,0.023-0.018c0.186-0.143,0.368-0.293,0.541-0.452c0.498-0.364,1.015-0.699,1.551-1.003
			c0.04-0.022-0.049-0.023-0.068-0.012c-0.43,0.244-0.847,0.507-1.253,0.79c0.068-0.071,0.134-0.143,0.198-0.219
			c0.17-0.202,0.303-0.42,0.414-0.648c0.02-0.012,0.035-0.03,0.041-0.055c0.001-0.007,0.003-0.013,0.004-0.02
			c0.002-0.009,0.003-0.018,0.003-0.026c0.001-0.003,0.002-0.006,0.004-0.009c0.146-0.111,0.648-0.162,0.761-0.167
			c0.208-0.009,0.581-0.016,0.754,0.112c0.034,0.009,0.067,0.019,0.101,0.028C16.4,71.97,16.335,72.016,16.271,72.061z"/>
	</g>
	<path class="st6" d="M67.593,66.382c-3.207,0-6.082,0.498-8.045,1.286c-1.359-0.098-2.831-0.152-4.369-0.152
		c-2.149,0-4.171,0.105-5.934,0.289c0.03-0.113,0.048-0.227,0.048-0.342c0-2.063-4.926-3.735-11.003-3.735
		c-6.077,0-11.003,1.672-11.003,3.735c0,2.063,4.926,3.735,11.003,3.735c1.916,0,3.717-0.167,5.285-0.459
		c1.78,0.895,6.303,1.532,11.604,1.532c1.166,0,2.294-0.031,3.364-0.089c1.899,1.057,5.241,1.76,9.051,1.76
		c5.915,0,10.71-1.692,10.71-3.78C78.303,68.074,73.508,66.382,67.593,66.382z"/>
</g>
<g id="XMLID_4_">
	<path id="XMLID_10_" class="st7" d="M56.138,46.339c-0.722,0.178-1.877-0.146-2.624-0.203c-1.746-0.133-3.5-0.243-5.251-0.148
		c-1.336,0.073-2.646,0.335-3.989,0.307c-0.682-0.014-1.705,0.052-2.341-0.203c-0.622-0.249-1.104-1.348-1.449-1.9
		c-1.472-2.35-2.772-4.806-4.107-7.235c-0.571-1.038-2.099-2.944-1.692-4.163c0.185-0.555,0.729-1.192,1.035-1.693l1.242-2.032
		c0.724-1.185,1.449-2.37,2.173-3.555c0.766-1.254,1.454-2.752,2.38-3.894c0.776-0.957,2.466-0.64,3.619-0.613
		c1.474,0.035,2.946,0.136,4.42,0.162c1.355,0.025,2.711,0.01,4.065-0.044c0.645-0.026,1.289-0.064,1.934-0.088
		c0.339-0.013,0.803-0.117,1.107,0.09c0.211,0.143,0.499,0.696,0.644,0.905c1.545,2.227,2.963,4.553,4.217,6.957
		c0.342,0.656,0.674,1.318,0.996,1.984c0.327,0.679,0.893,1.553,1.031,2.29c0.151,0.801-0.335,1.439-0.707,2.14
		c-0.365,0.688-0.733,1.374-1.106,2.058c-0.956,1.756-1.997,3.464-2.993,5.198c-0.429,0.747-0.867,1.484-1.33,2.195
		C57.077,45.364,56.799,46.176,56.138,46.339z"/>
	<path class="st8" d="M37.464,32.204c0.309-0.583,0.621-1.163,0.936-1.743c0.81-1.488,1.691-2.934,2.535-4.402
		c0.363-0.632,0.735-1.257,1.127-1.859c0.281-0.431,0.517-1.119,1.076-1.257c0.612-0.151,1.59,0.124,2.223,0.172
		c1.479,0.113,2.964,0.206,4.448,0.125c1.132-0.061,2.241-0.284,3.378-0.26c0.577,0.012,1.444-0.044,1.983,0.172
		c0.526,0.211,0.935,1.142,1.228,1.61c1.247,1.99,2.348,4.07,3.479,6.127c0.483,0.879,1.777,2.494,1.433,3.525
		c-0.157,0.47-0.617,1.01-0.876,1.434l-1.052,1.721c-0.613,1.004-1.227,2.007-1.84,3.011c-0.649,1.062-1.231,2.331-2.016,3.298
		c-0.657,0.81-2.089,0.542-3.065,0.519c-1.249-0.03-2.495-0.115-3.744-0.138c-1.148-0.021-2.296-0.009-3.443,0.037
		c-0.546,0.022-1.092,0.054-1.638,0.075c-0.287,0.011-0.68,0.099-0.938-0.076c-0.178-0.121-0.423-0.589-0.546-0.767
		c-1.309-1.886-2.51-3.856-3.571-5.892c-0.29-0.556-0.571-1.116-0.843-1.681c-0.277-0.575-0.756-1.316-0.873-1.94
		C36.738,33.338,37.15,32.797,37.464,32.204z"/>
	<path class="st9" d="M36.38,34.221c0.279,0.669,0.627,1.324,0.947,1.975c1.151,2.341,2.442,4.621,3.872,6.803
		c0.343,0.524,0.689,1.047,1.049,1.559c0.27,0.385,0.258,0.391,0.734,0.361c1.423-0.089,2.83-0.186,4.259-0.183
		c1.309,0.003,2.614,0.062,3.921,0.132c0.649,0.034,1.298,0.068,1.948,0.076c0.324,0.004,0.648,0.003,0.972-0.007
		c0.344-0.011,0.981,0.06,1.292-0.095c0.269-0.134,0.19-0.07,0.394-0.434c0.328-0.587,0.681-1.158,1.032-1.732
		c0.76-1.242,1.52-2.485,2.28-3.727c0.702-1.147,1.403-2.294,2.105-3.44c0.241-0.394,0.634-0.841,0.742-1.302
		c0.104-0.444-0.116-0.777-0.32-1.159c-1.278-2.389-2.58-4.777-3.947-7.116c-0.388-0.664-0.793-1.318-1.201-1.969
		c-0.246-0.392-0.486-1.002-0.91-1.245c-0.408-0.234-1.064-0.152-1.509-0.177c-0.783-0.046-1.552-0.058-2.333,0.018
		c-3.045,0.297-6.024,0.043-9.072-0.161c-0.371-0.024-0.844,0.907-0.982,1.172c-0.36,0.688-0.724,1.352-1.128,2.026
		c-0.903,1.508-1.72,3.066-2.567,4.606c-0.318,0.578-0.633,1.157-0.944,1.738c-0.232,0.433-0.611,0.929-0.736,1.406
		C36.188,33.689,36.247,33.904,36.38,34.221z M37.464,32.204c0.309-0.583,0.621-1.163,0.936-1.743
		c0.81-1.488,1.691-2.934,2.535-4.402c0.363-0.632,0.735-1.257,1.127-1.859c0.281-0.431,0.517-1.119,1.076-1.257
		c0.612-0.151,1.59,0.124,2.223,0.172c1.479,0.113,2.964,0.206,4.448,0.125c1.132-0.061,2.241-0.284,3.378-0.26
		c0.577,0.012,1.444-0.044,1.983,0.172c0.526,0.211,0.935,1.142,1.228,1.61c1.247,1.99,2.348,4.07,3.479,6.127
		c0.483,0.879,1.777,2.494,1.433,3.525c-0.157,0.47-0.617,1.01-0.876,1.434l-1.052,1.721c-0.613,1.004-1.227,2.007-1.84,3.011
		c-0.649,1.062-1.231,2.331-2.016,3.298c-0.657,0.81-2.089,0.542-3.065,0.519c-1.249-0.03-2.495-0.115-3.744-0.138
		c-1.148-0.021-2.296-0.009-3.443,0.037c-0.546,0.022-1.092,0.054-1.638,0.075c-0.287,0.011-0.68,0.099-0.938-0.076
		c-0.178-0.121-0.423-0.589-0.546-0.767c-1.309-1.886-2.51-3.856-3.571-5.892c-0.29-0.556-0.571-1.116-0.843-1.681
		c-0.277-0.575-0.756-1.316-0.873-1.94C36.738,33.338,37.15,32.797,37.464,32.204z"/>
	<g>
		<path class="st9" d="M44.966,32.464h0.757v0.878c0,0.077-0.026,0.145-0.078,0.202c-0.052,0.057-0.127,0.086-0.225,0.086h-0.454
			v1.691h-1.363V33.63h-2.958c-0.098,0-0.186-0.03-0.265-0.091c-0.079-0.061-0.129-0.136-0.149-0.227l-0.162-0.772l3.402-4.573
			h1.494V32.464z M43.603,30.545c0-0.118,0.004-0.245,0.013-0.381c0.008-0.136,0.021-0.277,0.038-0.422l-1.943,2.721h1.893V30.545z"
			/>
		<path class="st9" d="M51.548,31.641c0,0.643-0.069,1.2-0.207,1.671c-0.138,0.471-0.329,0.861-0.573,1.171
			c-0.244,0.31-0.533,0.54-0.868,0.692c-0.335,0.151-0.697,0.227-1.088,0.227c-0.39,0-0.751-0.076-1.083-0.227
			c-0.331-0.151-0.618-0.382-0.861-0.692c-0.242-0.31-0.432-0.7-0.568-1.171c-0.136-0.471-0.204-1.028-0.204-1.671
			c0-0.643,0.068-1.2,0.204-1.671c0.136-0.471,0.326-0.861,0.568-1.171c0.242-0.31,0.529-0.539,0.861-0.689
			c0.331-0.15,0.692-0.225,1.083-0.225c0.39,0,0.753,0.075,1.088,0.225c0.335,0.15,0.624,0.379,0.868,0.689
			c0.244,0.31,0.435,0.7,0.573,1.171C51.479,30.441,51.548,30.998,51.548,31.641z M49.932,31.641c0-0.508-0.032-0.925-0.096-1.249
			c-0.064-0.325-0.149-0.58-0.255-0.765c-0.106-0.185-0.226-0.312-0.361-0.381c-0.135-0.069-0.271-0.103-0.409-0.103
			c-0.138,0-0.273,0.035-0.406,0.103c-0.133,0.069-0.251,0.196-0.353,0.381c-0.103,0.185-0.185,0.44-0.247,0.765
			s-0.093,0.741-0.093,1.249c0,0.512,0.031,0.929,0.093,1.252s0.145,0.578,0.247,0.765c0.103,0.187,0.22,0.315,0.353,0.384
			c0.133,0.069,0.268,0.103,0.406,0.103c0.138,0,0.274-0.034,0.409-0.103c0.134-0.069,0.255-0.197,0.361-0.384
			c0.106-0.187,0.191-0.442,0.255-0.765C49.9,32.57,49.932,32.152,49.932,31.641z"/>
		<path class="st9" d="M56.676,32.464h0.757v0.878c0,0.077-0.026,0.145-0.078,0.202c-0.052,0.057-0.127,0.086-0.225,0.086h-0.454
			v1.691h-1.363V33.63h-2.958c-0.098,0-0.186-0.03-0.265-0.091c-0.079-0.061-0.129-0.136-0.149-0.227l-0.162-0.772l3.402-4.573
			h1.494V32.464z M55.313,30.545c0-0.118,0.004-0.245,0.013-0.381c0.008-0.136,0.021-0.277,0.038-0.422l-1.943,2.721h1.893V30.545z"
			/>
	</g>
	<g>
		<path class="st9" d="M43.414,36.087v0.393h-1.712v1.185h1.386v0.378h-1.386v1.217h1.712v0.393h-2.198v-3.567H43.414z"/>
		<path class="st9" d="M44.639,38.166v1.488h-0.48v-3.567h1.008c0.226,0,0.421,0.023,0.585,0.068c0.164,0.046,0.3,0.112,0.407,0.198
			c0.107,0.086,0.186,0.19,0.238,0.312c0.051,0.122,0.077,0.258,0.077,0.409c0,0.126-0.02,0.244-0.06,0.353
			c-0.04,0.109-0.098,0.208-0.173,0.295c-0.075,0.087-0.168,0.161-0.276,0.223c-0.109,0.061-0.232,0.108-0.37,0.139
			c0.06,0.035,0.113,0.085,0.159,0.152l1.04,1.416h-0.428c-0.088,0-0.153-0.034-0.194-0.102l-0.926-1.274
			c-0.028-0.04-0.059-0.068-0.092-0.086c-0.033-0.017-0.083-0.026-0.149-0.026H44.639z M44.639,37.815h0.505
			c0.141,0,0.265-0.017,0.372-0.051c0.107-0.034,0.197-0.082,0.269-0.144c0.072-0.062,0.127-0.136,0.163-0.223
			c0.036-0.086,0.055-0.182,0.055-0.286c0-0.212-0.07-0.372-0.21-0.48c-0.14-0.108-0.349-0.162-0.626-0.162h-0.528V37.815z"/>
		<path class="st9" d="M47.845,38.166v1.488h-0.48v-3.567h1.008c0.226,0,0.421,0.023,0.585,0.068c0.164,0.046,0.3,0.112,0.407,0.198
			c0.107,0.086,0.186,0.19,0.238,0.312c0.051,0.122,0.077,0.258,0.077,0.409c0,0.126-0.02,0.244-0.06,0.353
			c-0.04,0.109-0.098,0.208-0.173,0.295c-0.076,0.087-0.168,0.161-0.276,0.223c-0.109,0.061-0.232,0.108-0.37,0.139
			c0.06,0.035,0.113,0.085,0.159,0.152L50,39.654h-0.428c-0.088,0-0.153-0.034-0.194-0.102l-0.926-1.274
			c-0.028-0.04-0.059-0.068-0.092-0.086c-0.033-0.017-0.083-0.026-0.149-0.026H47.845z M47.845,37.815h0.505
			c0.141,0,0.265-0.017,0.372-0.051c0.107-0.034,0.197-0.082,0.269-0.144c0.072-0.062,0.127-0.136,0.163-0.223
			c0.036-0.086,0.055-0.182,0.055-0.286c0-0.212-0.07-0.372-0.21-0.48c-0.14-0.108-0.349-0.162-0.626-0.162h-0.528V37.815z"/>
		<path class="st9" d="M53.719,37.872c0,0.267-0.042,0.512-0.127,0.735c-0.085,0.223-0.204,0.415-0.358,0.576
			c-0.154,0.161-0.34,0.286-0.556,0.375c-0.217,0.089-0.456,0.133-0.718,0.133s-0.501-0.044-0.717-0.133
			c-0.216-0.089-0.401-0.214-0.555-0.375c-0.154-0.161-0.274-0.353-0.359-0.576c-0.085-0.223-0.127-0.468-0.127-0.735
			s0.042-0.512,0.127-0.736c0.085-0.223,0.204-0.416,0.359-0.577c0.154-0.162,0.339-0.287,0.555-0.377
			c0.216-0.09,0.455-0.134,0.717-0.134s0.502,0.045,0.718,0.134c0.216,0.09,0.402,0.215,0.556,0.377
			c0.154,0.162,0.274,0.354,0.358,0.577C53.676,37.36,53.719,37.605,53.719,37.872z M53.223,37.872c0-0.219-0.03-0.416-0.09-0.59
			c-0.06-0.174-0.144-0.321-0.254-0.442c-0.109-0.12-0.242-0.213-0.398-0.278c-0.156-0.065-0.33-0.097-0.523-0.097
			c-0.191,0-0.364,0.032-0.52,0.097c-0.156,0.065-0.289,0.157-0.4,0.278c-0.11,0.12-0.195,0.267-0.255,0.442
			c-0.06,0.174-0.09,0.371-0.09,0.59c0,0.219,0.03,0.415,0.09,0.589c0.06,0.173,0.145,0.32,0.255,0.441
			c0.11,0.12,0.244,0.212,0.4,0.276c0.156,0.064,0.329,0.096,0.52,0.096c0.193,0,0.367-0.032,0.523-0.096
			c0.156-0.064,0.289-0.156,0.398-0.276c0.109-0.12,0.194-0.267,0.254-0.441C53.193,38.287,53.223,38.091,53.223,37.872z"/>
		<path class="st9" d="M54.908,38.166v1.488h-0.48v-3.567h1.008c0.226,0,0.421,0.023,0.585,0.068c0.164,0.046,0.3,0.112,0.407,0.198
			c0.107,0.086,0.186,0.19,0.238,0.312c0.051,0.122,0.077,0.258,0.077,0.409c0,0.126-0.02,0.244-0.06,0.353
			c-0.04,0.109-0.098,0.208-0.173,0.295c-0.076,0.087-0.168,0.161-0.276,0.223c-0.109,0.061-0.232,0.108-0.369,0.139
			c0.06,0.035,0.113,0.085,0.159,0.152l1.04,1.416h-0.428c-0.088,0-0.153-0.034-0.194-0.102l-0.926-1.274
			c-0.028-0.04-0.059-0.068-0.092-0.086c-0.033-0.017-0.083-0.026-0.149-0.026H54.908z M54.908,37.815h0.505
			c0.141,0,0.265-0.017,0.372-0.051c0.107-0.034,0.197-0.082,0.269-0.144c0.072-0.062,0.127-0.136,0.163-0.223
			c0.036-0.086,0.055-0.182,0.055-0.286c0-0.212-0.07-0.372-0.21-0.48c-0.14-0.108-0.349-0.162-0.626-0.162h-0.528V37.815z"/>
	</g>
	<path id="XMLID_14_" class="st9" d="M65.505,32.258c-0.021-0.226-0.07-0.454-0.152-0.683c-0.724-2.013-1.915-3.843-2.88-5.746
		c-0.713-1.406-1.462-2.793-2.213-4.179c-0.375-0.693-0.765-1.38-1.124-2.081c-0.263-0.512-0.495-1.127-1.057-1.382
		c-0.399-0.181-0.843-0.082-1.261-0.045c-1.156,0.101-2.31,0.13-3.469,0.173c-1.622,0.052-3.243,0.105-4.865,0.15
		c-1.169,0.032-2.34-0.007-3.509,0.052c-0.873,0.044-1.682-0.04-2.37,0.606c-0.41,0.385-0.737,0.852-1.045,1.32
		c-0.036,0.052-0.071,0.106-0.104,0.16c-0.07,0.054-0.091,0.126-0.24,0.392c-0.388,0.693-0.804,1.367-1.219,2.045
		c-0.897,1.467-1.795,2.934-2.692,4.401c-0.828,1.354-1.657,2.708-2.485,4.062c-0.285,0.465-0.749,0.993-0.876,1.537
		c-0.123,0.524,0.137,0.917,0.378,1.368c1.509,2.82,3.046,5.64,4.66,8.401c0.458,0.784,0.936,1.556,1.418,2.325
		c0.29,0.463,0.573,1.183,1.074,1.47c0.481,0.276,1.257,0.179,1.782,0.209c0.924,0.054,1.832,0.068,2.755-0.022
		c0.249-0.024,0.498-0.044,0.748-0.062c0.217-0.015,0.536-0.094,0.747-0.044c0.57,0.134,0.37,0.788,0.368,1.172
		c-0.005,0.704,0.011,1.408,0.018,2.112c0.014,1.408,0.032,2.815,0.053,4.223c0.03,2.083,0.065,4.167,0.097,6.25
		c0.039,2.495,0.121,4.988,0.171,7.483c0.025,1.261,0.043,2.523,0.042,3.784c-0.001,1.381-0.172,3.158,1.789,2.966
		c1.011-0.099,1.528-0.987,1.448-1.913c-0.118-1.355-0.027-2.761-0.034-4.125c-0.014-2.819-0.045-5.638-0.093-8.456
		c-0.002-0.113-0.004-0.225-0.006-0.338c-0.041-2.292-0.091-4.583-0.16-6.874c-0.062-2.068,0.04-4.259-0.282-6.317
		c0.476,0.013,0.951,0.03,1.427,0.053c1.388,0.066,2.765,0.378,4.159,0.336c1.301-0.039,2.15-1.253,2.747-2.262
		c0.714-1.207,1.499-2.334,2.149-3.604c0.694-1.357,1.359-2.728,2.039-4.092C64.163,35.624,65.664,33.993,65.505,32.258z
		 M43.328,19.492c0.759-0.517,1.646-0.435,2.517-0.458c1.285-0.035,2.57-0.07,3.856-0.105c2.466-0.067,4.934-0.111,7.4-0.176
		c-0.331,0.526-0.635,1.063-0.867,1.643c-1.654,0.103-3.29,0.215-4.951,0.212c-1.545-0.003-3.087-0.074-4.629-0.155
		c-0.766-0.041-1.532-0.08-2.3-0.09c-0.383-0.005-0.765-0.004-1.148,0.009c-0.198,0.006-0.479-0.01-0.757-0.008
		C42.725,20.047,43.016,19.704,43.328,19.492z M50.564,73.636c-0.001,0.002-0.003,0.004-0.004,0.005
		c-0.203,0.25-0.469,0.407-0.795,0.399c-1.331-0.033-1.074-1.921-1.1-2.795c-0.035-1.2-0.055-2.4-0.069-3.601
		c-0.027-2.401-0.027-4.801-0.067-7.202c-0.03-1.803-0.058-3.606-0.09-5.41c-0.024-1.409-0.05-2.817-0.08-4.226
		c-0.015-0.704-0.031-1.409-0.048-2.113c-0.008-0.334-0.044-0.68-0.016-1.013c0.022-0.264-0.016-0.533,0.042-0.795
		c0.059-0.266,0.153-0.236,0.402-0.241c0.535-0.011,1.069-0.014,1.604-0.005c-0.182,2.141,0.084,4.392,0.142,6.531
		c0.062,2.291,0.12,4.583,0.163,6.874c0.052,2.728,0.085,5.456,0.102,8.185c0.008,1.35,0.013,2.7,0.013,4.051
		C50.764,72.774,50.893,73.224,50.564,73.636z M56.126,46.339c-0.722,0.178-1.877-0.146-2.625-0.203
		c-1.746-0.133-3.5-0.243-5.251-0.148c-1.336,0.073-2.646,0.335-3.989,0.307c-0.682-0.014-1.705,0.052-2.341-0.203
		c-0.622-0.249-1.104-1.348-1.45-1.9c-1.472-2.35-2.772-4.806-4.107-7.235c-0.571-1.038-2.099-2.944-1.692-4.163
		c0.185-0.555,0.729-1.192,1.035-1.693l1.242-2.032c0.724-1.185,1.449-2.37,2.173-3.555c0.766-1.254,1.454-2.752,2.38-3.894
		c0.776-0.957,2.466-0.64,3.619-0.613c1.474,0.035,2.946,0.136,4.42,0.162c1.355,0.025,2.711,0.01,4.065-0.044
		c0.645-0.026,1.289-0.064,1.934-0.088c0.339-0.013,0.803-0.117,1.107,0.09c0.211,0.143,0.499,0.696,0.644,0.905
		c1.545,2.227,2.963,4.553,4.217,6.957c0.342,0.656,0.674,1.318,0.996,1.984c0.327,0.679,0.892,1.553,1.031,2.29
		c0.151,0.801-0.335,1.439-0.707,2.14c-0.365,0.688-0.733,1.374-1.106,2.058c-0.956,1.756-1.997,3.464-2.993,5.198
		c-0.429,0.747-0.867,1.484-1.33,2.195C57.065,45.364,56.787,46.176,56.126,46.339z M61.07,40.523
		c-0.754,1.481-1.522,2.994-2.53,4.314c-0.192,0.208-0.385,0.413-0.582,0.616c0.4-0.76,0.806-1.498,1.254-2.246
		c1.066-1.781,2.03-3.62,3.031-5.439c0.375-0.682,0.747-1.366,1.115-2.052c0.238-0.444,0.606-0.944,0.796-1.436
		c0.062,0,0.123-0.023,0.171-0.07C63.284,36.334,62.14,38.42,61.07,40.523z M64.7,31.76c-0.011,0.019-0.022,0.037-0.029,0.06
		c-0.13,0.458-0.349,0.857-0.53,1.29c-0.011-0.029-0.022-0.057-0.035-0.087c-0.33-0.79-0.741-1.564-1.119-2.332
		c-1.359-2.765-2.884-5.456-4.572-8.033c-0.405-0.618-0.814-1.236-1.239-1.841c-0.158-0.225-0.235-0.341-0.34-0.395
		c-0.038-0.02,0.282-0.635,0.308-0.686c0.196-0.393,0.412-0.71,0.706-1.031c0.139-0.152,0.59,0.91,0.63,0.973
		c0.175,0.278,0.347,0.558,0.516,0.839c0.34,0.564,0.669,1.133,0.99,1.708c0.644,1.152,1.253,2.323,1.841,3.504
		c0.501,1.004,0.986,2.016,1.466,3.03c0.236,0.5,0.471,1.001,0.705,1.502c0.117,0.25,0.234,0.5,0.351,0.75
		C64.396,31.109,64.743,31.683,64.7,31.76z"/>
	<path id="XMLID_23_" class="st8" d="M43.328,19.492c0.759-0.517,1.646-0.435,2.517-0.458c1.285-0.035,2.57-0.07,3.856-0.105
		c2.466-0.067,4.934-0.111,7.4-0.176c-0.331,0.526-0.635,1.063-0.867,1.643c-1.654,0.103-3.29,0.215-4.951,0.212
		c-1.545-0.003-3.087-0.074-4.629-0.155c-0.766-0.041-1.532-0.08-2.3-0.09c-0.383-0.005-0.765-0.004-1.148,0.009
		c-0.198,0.006-0.479-0.01-0.757-0.008C42.725,20.047,43.016,19.704,43.328,19.492z"/>
	<path id="XMLID_26_" class="st10" d="M61.07,40.523c-0.754,1.481-1.522,2.994-2.53,4.314c-0.192,0.208-0.385,0.413-0.582,0.616
		c0.4-0.76,0.806-1.498,1.254-2.246c1.066-1.781,2.03-3.62,3.031-5.439c0.375-0.682,0.747-1.366,1.115-2.052
		c0.238-0.444,0.606-0.944,0.796-1.436c0.062,0,0.123-0.023,0.171-0.07C63.284,36.334,62.14,38.42,61.07,40.523z"/>
	<path id="XMLID_29_" class="st8" d="M64.7,31.76c-0.011,0.019-0.022,0.037-0.029,0.06c-0.13,0.458-0.349,0.857-0.53,1.29
		c-0.011-0.029-0.022-0.057-0.035-0.087c-0.33-0.79-0.741-1.564-1.119-2.332c-1.359-2.765-2.884-5.456-4.572-8.033
		c-0.405-0.618-0.814-1.236-1.239-1.841c-0.158-0.225-0.235-0.341-0.34-0.395c-0.038-0.02,0.282-0.635,0.308-0.686
		c0.196-0.393,0.412-0.71,0.706-1.031c0.139-0.152,0.59,0.91,0.63,0.973c0.175,0.278,0.347,0.558,0.516,0.839
		c0.34,0.564,0.669,1.133,0.99,1.708c0.644,1.152,1.253,2.323,1.841,3.504c0.501,1.004,0.986,2.016,1.466,3.03
		c0.236,0.5,0.471,1.001,0.705,1.502c0.117,0.25,0.234,0.5,0.351,0.75C64.396,31.109,64.743,31.683,64.7,31.76z"/>
	<path id="XMLID_32_" class="st11" d="M50.764,72.282c0-1.35-0.005-2.7-0.013-4.051c-0.017-2.729-0.05-5.457-0.102-8.185
		c-0.043-2.292-0.101-4.583-0.163-6.874c-0.029-1.075-0.111-2.179-0.162-3.283c-0.05-1.091-0.071-2.183,0.02-3.248
		c-0.535-0.009-1.069-0.006-1.604,0.005c-0.249,0.005-0.343-0.026-0.402,0.241c-0.058,0.262-0.02,0.531-0.042,0.795
		c-0.027,0.333,0.008,0.679,0.016,1.013c0.012,0.489,0.022,0.978,0.033,1.466c0.568,0.055,1.137,0.003,1.661-0.16
		c0.023,0.282,0.024,0.552,0.024,0.765c0.342,7.685,0.35,15.533,0.033,23.23c0.193-0.062,0.359-0.186,0.496-0.355
		c0.001-0.002,0.003-0.004,0.004-0.005C50.893,73.224,50.764,72.774,50.764,72.282z"/>
</g>
<path id="XMLID_35_" class="st8" d="M50.03,50.767c0-0.213-0.001-0.484-0.024-0.765c-0.525,0.163-1.094,0.214-1.661,0.16
	c0.005,0.215,0.01,0.431,0.015,0.646c0.03,1.409,0.056,2.817,0.08,4.226c0.031,1.803,0.06,3.606,0.09,5.41
	c0.04,2.4,0.04,4.801,0.067,7.202c0.013,1.2,0.034,2.401,0.069,3.601c0.026,0.873-0.231,2.762,1.1,2.795
	c0.106,0.003,0.205-0.014,0.299-0.044C50.381,66.3,50.372,58.452,50.03,50.767z"/>
<g id="XMLID_36_">
	<path class="st9" d="M55.956,74.121c1.646-0.277,3.331-1.227,4.818-1.998l1.801,0.552c1.79,0.548,3.58,1.093,5.373,1.631
		c1.794,0.538,3.59,1.07,5.383,1.61c0.977,0.294,1.989,0.657,3.022,0.611c0.179-0.008,0.368-0.032,0.507-0.144
		c0.174-0.141,0.225-0.394,0.182-0.615c-0.055-0.282-0.231-0.557-0.381-0.798c-1.082-1.745-2.185-3.477-3.324-5.185
		c-1.141-1.712-2.317-3.401-3.542-5.054c-0.612-0.825-1.235-1.642-1.873-2.448c-0.062-0.079-0.125-0.156-0.188-0.232
		c-0.053-0.83-0.13-1.662-0.232-2.491c-0.081-0.988-0.015-2.339-0.4-3.259c-0.528-1.259-1.7-0.66-2.635-0.375
		c-1.4,0.427-2.788,0.892-4.162,1.395c-1.361,0.498-2.684,1.089-4.011,1.669c-0.905,0.395-2.103,1.048-2.127,2.135
		c-0.056,2.535-0.246,5.076-0.053,7.61c0.083,1.094,0.102,2.248,0.276,3.321C54.531,72.921,54.768,74.322,55.956,74.121z
		 M76.274,75.526c0.021,0.055,0.028,0.117,0.018,0.174c-0.008,0.043-0.025,0.083-0.054,0.115c-0.079,0.087-0.211,0.092-0.328,0.089
		c-0.628-0.018-1.218-0.209-1.818-0.395c-0.647-0.2-1.272-0.467-1.916-0.677c-0.048-0.06-0.094-0.12-0.138-0.182
		c-0.013-0.024-0.028-0.047-0.044-0.069c-0.001-0.002-0.004-0.004-0.005-0.006c-0.03-0.045-0.061-0.09-0.09-0.136
		c-0.088-0.268-0.102-0.536-0.062-0.799c0.19-0.923,1.096-1.879,1.826-2.121c0.024-0.008,0.046-0.02,0.067-0.034
		C73.711,71.497,76.129,75.145,76.274,75.526z M73.31,70.854c0.101,0.153-0.647,0.493-0.741,0.564
		c-0.474,0.359-0.827,0.978-1.093,1.495c-0.271,0.527-0.39,1.087-0.23,1.625c-0.172-0.054-0.343-0.108-0.515-0.162
		c-0.043-0.053-0.081-0.11-0.119-0.167c-0.002-0.013-0.002-0.025-0.005-0.038c-0.207-0.803-0.208-1.244,0.193-1.957
		c0.174-0.308,0.349-0.609,0.539-0.896c0.406-0.508,0.896-0.91,1.457-1.234C72.97,70.339,73.139,70.597,73.31,70.854z M70.4,66.621
		c0.243,0.342,0.484,0.684,0.724,1.027c0.384,0.548,0.742,1.114,1.165,1.629c0.035,0.056,0.072,0.11,0.105,0.167
		c0.031,0.053,0.06,0.109,0.089,0.164c-0.131,0.11-0.553,0.295-0.603,0.325c-0.19,0.117-0.363,0.313-0.523,0.467
		c-0.352,0.339-0.681,0.706-0.962,1.107c-0.513,0.735-0.914,1.673-0.609,2.571c-0.954-0.3-1.907-0.601-2.861-0.899
		c-0.278-0.087-0.557-0.172-0.835-0.258c-0.005-0.015-0.008-0.03-0.012-0.045c-0.016-0.355-0.077-0.708-0.056-1.076
		c0.04-0.708,0.223-1.379,0.519-2.023c0.631-1.376,1.693-2.548,2.872-3.483c0.023-0.002,0.045-0.009,0.063-0.021
		c0.151-0.107,0.301-0.178,0.472-0.237C70.095,66.239,70.268,66.435,70.4,66.621z M68.337,63.759
		c0.428,0.585,0.853,1.173,1.276,1.762c-0.035,0.014-0.07,0.03-0.103,0.048c-0.077,0.034-0.153,0.069-0.222,0.116
		c-2.326,1.154-4.581,4.294-3.995,6.992c-0.434-0.134-0.868-0.269-1.302-0.402c-0.147-0.359-0.298-0.716-0.437-1.079
		c-0.339-1.602,0.255-3.214,1.06-4.627c0.286-0.502,0.608-1.024,1.065-1.388c0.604-0.481,1.291-0.91,1.987-1.246
		C67.746,63.895,68.27,63.667,68.337,63.759z M67.564,63.194c0.001,0.002,0.001,0.004,0.002,0.006
		c-0.032,0.014-0.056,0.035-0.069,0.06c-0.068,0.043-0.127,0.084-0.161,0.1c-0.465,0.221-0.895,0.522-1.317,0.813
		c-0.477,0.329-0.931,0.703-1.302,1.151c-0.181,0.218-0.34,0.459-0.486,0.701c-1.115,1.815-1.885,3.927-0.878,5.937
		c0.012,0.043,0.025,0.085,0.036,0.128c-0.482-0.147-0.963-0.295-1.444-0.442c-0.842-0.258-1.66-0.589-2.498-0.861
		c-0.422-0.137-0.849-0.26-1.284-0.349c-0.079-0.016-0.279-0.014-0.34-0.06c-0.033-0.025-0.059-0.064-0.081-0.111
		c-0.053-0.114-0.078-0.271-0.101-0.361c-0.144-0.581-0.039-1.264,0.017-1.853c0.158-1.661,0.853-3.228,1.824-4.571
		c0.731-1.011,1.597-1.945,2.539-2.763c0.872-0.757,1.808-1.209,2.847-1.64c0.773,1.035,1.543,2.071,2.309,3.108
		c0.01,0.091,0.065,0.152,0.137,0.185c0.169,0.229,0.339,0.457,0.507,0.686C67.737,63.102,67.655,63.155,67.564,63.194z
		 M55.286,71.289c-0.217-1.546-0.442-3.077-0.496-4.655c-0.037-1.082-0.028-2.165,0.027-3.246c0.075-1.466-0.088-2.585,1.211-3.574
		c1.036-0.789,2.317-1.171,3.514-1.64c1.157-0.45,2.33-0.859,3.515-1.231c0.958-0.301,1.93-0.763,2.935-0.59
		c0.68,1.123,0.849,2.222,0.979,3.536c0.044,0.446,0.081,0.893,0.121,1.339c-0.016-0.023-0.034-0.045-0.049-0.068
		c-0.29-0.427-0.588-0.849-0.894-1.265c-0.202-0.275-0.408-0.548-0.617-0.817c-0.097-0.125-0.191-0.243-0.267-0.38
		c-0.056-0.101-0.054-0.123-0.179-0.142c-0.602-0.091-1.291,0.125-1.834,0.365c-0.624,0.277-1.193,0.667-1.717,1.102
		c-1.021,0.847-1.894,1.871-2.672,2.942c-0.964,1.328-1.69,2.859-1.953,4.488c-0.093,0.577-0.126,1.163-0.091,1.746
		c0.018,0.292,0.052,0.582,0.103,0.87c0.044,0.247,0.049,0.507,0.185,0.72c0.018,0.028,0.038,0.056,0.061,0.082
		c0.15,0.173,0.328,0.206,0.526,0.289c0.198,0.083,0.389,0.165,0.596,0.23c0.466,0.145,0.942,0.259,1.409,0.402l0.178,0.055
		c-0.423,0.233-0.854,0.451-1.299,0.651c-0.617,0.278-1.206,0.647-1.857,0.842c-0.817,0.245-1.157,0.049-1.259-0.75
		C55.407,72.156,55.347,71.722,55.286,71.289z"/>
	<path id="XMLID_39_" class="st8" d="M73.73,71.484c-0.021,0.014-0.043,0.026-0.067,0.034c-0.731,0.242-1.636,1.198-1.826,2.121
		c-0.009,0.057-0.013,0.115-0.017,0.172c1.389,0.482,2.797,0.911,4.219,1.292C75.4,74.044,73.714,71.495,73.73,71.484z"/>
	<path id="XMLID_42_" class="st11" d="M76.039,75.104c-1.422-0.381-2.83-0.81-4.219-1.292c-0.012,0.208,0.01,0.417,0.079,0.627
		c0.029,0.046,0.059,0.091,0.09,0.136c0.002,0.002,0.004,0.004,0.005,0.006c0.016,0.022,0.031,0.045,0.044,0.069
		c0.044,0.062,0.09,0.123,0.138,0.182c0.644,0.21,1.268,0.477,1.916,0.677c0.599,0.186,1.19,0.377,1.818,0.395
		c0.117,0.003,0.249-0.002,0.328-0.089c0.029-0.032,0.047-0.072,0.054-0.115c0.01-0.057,0.002-0.119-0.018-0.174
		C76.25,75.464,76.164,75.312,76.039,75.104z"/>
	<path id="XMLID_45_" class="st7" d="M71.476,72.913c0.267-0.518,0.619-1.136,1.093-1.495c0.094-0.071,0.842-0.411,0.741-0.564
		c-0.171-0.257-0.341-0.515-0.513-0.77c-0.561,0.324-1.051,0.727-1.457,1.234c-0.19,0.288-0.366,0.588-0.539,0.896
		c-0.238,0.421-0.331,0.749-0.328,1.112c0.25,0.094,0.501,0.186,0.752,0.276C71.275,73.369,71.36,73.138,71.476,72.913z"/>
	<path id="XMLID_48_" class="st12" d="M71.224,73.602c-0.251-0.09-0.502-0.182-0.752-0.276c0.002,0.25,0.05,0.517,0.135,0.845
		c0.003,0.013,0.003,0.026,0.005,0.038c0.037,0.058,0.076,0.114,0.119,0.167c0.172,0.054,0.343,0.108,0.515,0.162
		C71.155,74.23,71.157,73.914,71.224,73.602z"/>
	<path id="XMLID_51_" class="st8" d="M70.396,71.509c0.28-0.401,0.609-0.768,0.962-1.107c0.16-0.154,0.333-0.35,0.523-0.467
		c0.049-0.03,0.472-0.215,0.603-0.325c-0.029-0.056-0.058-0.111-0.089-0.164c-0.033-0.057-0.07-0.112-0.105-0.167
		c-0.423-0.515-0.781-1.081-1.165-1.629c-0.24-0.343-0.482-0.686-0.724-1.027c-0.132-0.186-0.305-0.382-0.451-0.584
		c-0.171,0.059-0.321,0.13-0.472,0.237c-0.018,0.013-0.04,0.019-0.063,0.021c-1.18,0.935-2.241,2.106-2.872,3.483
		c-0.242,0.527-0.406,1.072-0.481,1.641c1.194,0.588,2.415,1.125,3.656,1.615C69.809,72.486,70.081,71.959,70.396,71.509z"/>
	<path id="XMLID_54_" class="st11" d="M69.716,73.034c-1.241-0.49-2.462-1.027-3.656-1.615c-0.017,0.126-0.03,0.254-0.038,0.383
		c-0.021,0.368,0.04,0.721,0.056,1.076c0.004,0.015,0.008,0.03,0.012,0.045c0.278,0.086,0.557,0.171,0.835,0.258
		c0.954,0.299,1.907,0.599,2.861,0.899C69.669,73.732,69.657,73.379,69.716,73.034z"/>
	<path id="XMLID_57_" class="st7" d="M69.287,65.684c0.069-0.047,0.145-0.082,0.222-0.116c0.034-0.018,0.068-0.034,0.103-0.048
		c-0.423-0.589-0.848-1.176-1.276-1.762c-0.067-0.092-0.591,0.136-0.672,0.176c-0.696,0.336-1.382,0.764-1.987,1.246
		c-0.457,0.364-0.779,0.886-1.065,1.388c-0.61,1.07-1.098,2.256-1.151,3.465c0.592,0.342,1.193,0.67,1.801,0.984
		C65.616,68.797,67.429,66.606,69.287,65.684z"/>
	<path id="XMLID_60_" class="st12" d="M65.262,71.016c-0.608-0.314-1.208-0.642-1.801-0.984c-0.017,0.386,0.009,0.774,0.091,1.162
		c0.14,0.363,0.29,0.72,0.437,1.079c0.434,0.133,0.868,0.268,1.302,0.402C65.175,72.134,65.173,71.574,65.262,71.016z"/>
	<path id="XMLID_63_" class="st8" d="M64.231,66.025c0.146-0.243,0.305-0.483,0.486-0.701c0.371-0.447,0.825-0.822,1.302-1.151
		c0.422-0.291,0.852-0.592,1.317-0.813c0.035-0.017,0.094-0.057,0.161-0.1c0.013-0.025,0.037-0.046,0.069-0.06
		c-0.001-0.002-0.001-0.004-0.002-0.006c0.091-0.039,0.173-0.092,0.258-0.138c-0.168-0.229-0.338-0.457-0.507-0.686
		c-0.072-0.033-0.126-0.094-0.137-0.185c-0.766-1.037-1.536-2.072-2.309-3.108c-1.038,0.431-1.974,0.883-2.847,1.64
		c-0.942,0.818-1.807,1.752-2.539,2.763c-0.615,0.851-1.119,1.792-1.446,2.789c1.534,1.275,3.16,2.413,4.856,3.429
		C62.967,68.422,63.531,67.165,64.231,66.025z"/>
	<path id="XMLID_66_" class="st11" d="M62.894,69.698c-1.696-1.016-3.322-2.154-4.856-3.429c-0.189,0.577-0.32,1.173-0.378,1.781
		c-0.056,0.59-0.161,1.272-0.017,1.853c0.022,0.09,0.048,0.247,0.101,0.361c0.022,0.047,0.048,0.087,0.081,0.111
		c0.061,0.047,0.261,0.044,0.34,0.06c0.435,0.089,0.862,0.212,1.284,0.349c0.838,0.271,1.656,0.602,2.498,0.861
		c0.481,0.148,0.963,0.295,1.444,0.442c-0.012-0.043-0.024-0.085-0.036-0.128C62.979,71.214,62.851,70.453,62.894,69.698z"/>
	<path id="XMLID_69_" class="st7" d="M66.97,59.89c-0.13-1.314-0.299-2.413-0.979-3.536c-1.004-0.173-1.977,0.289-2.935,0.59
		c-1.185,0.372-2.357,0.781-3.515,1.231c-1.196,0.469-2.478,0.851-3.514,1.64c-1.299,0.989-1.136,2.108-1.211,3.574
		c-0.055,1.081-0.064,2.164-0.027,3.246c0.02,0.581,0.063,1.156,0.121,1.728c0.608,0.276,1.257,0.394,1.898,0.244
		c0.007-0.385,0.039-0.77,0.101-1.151c0.262-1.628,0.989-3.159,1.952-4.488c0.777-1.071,1.65-2.095,2.672-2.942
		c0.524-0.434,1.093-0.825,1.717-1.102c0.543-0.241,1.232-0.456,1.834-0.365c0.125,0.019,0.123,0.041,0.179,0.142
		c0.076,0.137,0.171,0.255,0.267,0.38c0.209,0.27,0.415,0.542,0.617,0.817c0.306,0.416,0.604,0.838,0.894,1.265
		c0.016,0.023,0.033,0.045,0.049,0.068C67.051,60.783,67.014,60.336,66.97,59.89z"/>
	<path id="XMLID_72_" class="st12" d="M54.911,68.362c0.099,0.98,0.239,1.951,0.375,2.927c0.061,0.433,0.121,0.867,0.176,1.304
		c0.101,0.799,0.441,0.994,1.259,0.75c0.652-0.195,1.241-0.564,1.857-0.842c0.445-0.2,0.876-0.418,1.299-0.651l-0.178-0.055
		c-0.467-0.143-0.942-0.257-1.409-0.402c-0.207-0.064-0.398-0.146-0.596-0.23c-0.199-0.084-0.376-0.116-0.526-0.289
		c-0.023-0.027-0.043-0.054-0.061-0.082c-0.136-0.214-0.141-0.474-0.185-0.72c-0.051-0.288-0.086-0.578-0.103-0.87
		c-0.012-0.198-0.013-0.397-0.01-0.595C56.168,68.756,55.519,68.638,54.911,68.362z"/>
</g>
<g id="XMLID_73_">
	<path id="XMLID_74_" class="st9" d="M43.981,70.525c-0.162-0.482-0.913-0.679-1.309-0.864c-1.544-0.718-3.173-1.278-4.818-1.718
		l-0.202-0.582l-0.619-1.779c-0.615-1.768-1.233-3.535-1.859-5.299c-0.626-1.765-1.258-3.528-1.882-5.294
		c-0.34-0.962-0.645-1.993-1.293-2.799c-0.112-0.139-0.243-0.278-0.416-0.324c-0.217-0.057-0.451,0.052-0.604,0.216
		c-0.196,0.211-0.313,0.516-0.419,0.779c-0.768,1.904-1.514,3.817-2.219,5.745c-0.707,1.932-1.374,3.879-1.984,5.844
		c-0.304,0.981-0.595,1.967-0.868,2.957c-0.027,0.097-0.052,0.193-0.076,0.289l-0.286,1.007c0.001-0.001,0.003-0.002,0.004-0.004
		c-0.009,0.027-0.016,0.054-0.026,0.08c-0.064,0.179-0.125,0.358-0.186,0.537c-1.289,0.498-2.521,1.101-3.684,1.857
		c-0.682,0.443-1.827,1.068-1.265,2.046c0.21,0.365,0.594,0.555,0.964,0.714c0.771,0.331,1.569,0.607,2.368,0.861
		c1.638,0.52,3.296,0.98,4.945,1.463c2.878,0.842,5.552,1.347,8.441,0.204c1.227-0.486,2.274-1.211,3.265-2.07
		c1.063-0.922,2.338-1.589,3.351-2.566C43.62,71.521,44.153,71.038,43.981,70.525z M31.238,52.846
		c0.032-0.049,0.077-0.092,0.129-0.117c0.039-0.019,0.082-0.029,0.125-0.024c0.116,0.012,0.199,0.116,0.266,0.212
		c0.357,0.517,0.551,1.106,0.756,1.7c0.221,0.641,0.375,1.302,0.586,1.945c-0.02,0.074-0.041,0.147-0.065,0.219
		c-0.011,0.025-0.022,0.05-0.03,0.077c-0.001,0.002-0.001,0.005-0.001,0.008c-0.018,0.051-0.036,0.102-0.057,0.153
		c-0.164,0.229-0.372,0.398-0.608,0.523c-0.857,0.392-2.163,0.226-2.79-0.22c-0.021-0.015-0.044-0.025-0.067-0.034
		C29.502,57.294,31.016,53.188,31.238,52.846z M29.219,57.997c0.064-0.172,0.78,0.231,0.893,0.264
		c0.57,0.17,1.277,0.089,1.852-0.002c0.585-0.092,1.108-0.328,1.447-0.774c0.058,0.17,0.116,0.341,0.174,0.511
		c-0.017,0.066-0.04,0.13-0.065,0.195c-0.009,0.009-0.02,0.016-0.028,0.027c-0.526,0.641-0.881,0.903-1.693,1
		c-0.351,0.042-0.697,0.078-1.042,0.094c-0.65-0.028-1.264-0.186-1.857-0.447C29.006,58.576,29.113,58.287,29.219,57.997z
		 M27.524,62.846c0.132-0.398,0.266-0.795,0.401-1.191c0.215-0.633,0.46-1.256,0.626-1.902c0.024-0.061,0.046-0.123,0.073-0.184
		c0.025-0.056,0.052-0.112,0.08-0.169c0.166,0.041,0.565,0.272,0.618,0.294c0.207,0.084,0.467,0.108,0.686,0.146
		c0.482,0.084,0.972,0.132,1.462,0.122c0.896-0.02,1.89-0.251,2.434-1.028c0.321,0.947,0.642,1.893,0.965,2.84
		c0.094,0.276,0.191,0.551,0.286,0.826c-0.009,0.012-0.02,0.024-0.029,0.036c-0.277,0.223-0.526,0.481-0.835,0.681
		c-0.595,0.386-1.244,0.635-1.939,0.777c-1.483,0.304-3.056,0.14-4.507-0.259c-0.015-0.017-0.033-0.031-0.054-0.038
		c-0.176-0.058-0.322-0.138-0.47-0.241C27.396,63.318,27.452,63.063,27.524,62.846z M26.434,66.202
		c0.219-0.691,0.443-1.381,0.667-2.07c0.032,0.02,0.065,0.038,0.1,0.055c0.073,0.042,0.146,0.083,0.225,0.111
		c2.305,1.194,6.171,1.159,8.001-0.909c0.149,0.429,0.296,0.859,0.445,1.288c-0.203,0.331-0.402,0.663-0.612,0.991
		c-1.092,1.22-2.744,1.694-4.359,1.879c-0.574,0.066-1.185,0.114-1.749-0.039c-0.746-0.203-1.497-0.503-2.179-0.867
		C26.893,66.598,26.4,66.31,26.434,66.202z M25.849,68.067c0.067-0.062,0.084-0.142,0.068-0.22c0.085-0.271,0.168-0.543,0.254-0.815
		c0.088,0.041,0.179,0.076,0.264,0.127c0.001-0.002,0.002-0.003,0.003-0.005c0.031,0.018,0.061,0.024,0.089,0.02
		c0.075,0.029,0.142,0.053,0.176,0.071c0.453,0.245,0.95,0.414,1.434,0.582c0.547,0.19,1.118,0.336,1.698,0.37
		c0.283,0.017,0.571,0.003,0.853-0.022c2.123-0.173,4.282-0.8,5.308-2.8c0.027-0.035,0.054-0.07,0.081-0.105
		c0.166,0.476,0.331,0.951,0.497,1.427c0.289,0.832,0.505,1.687,0.782,2.524c0.139,0.421,0.292,0.838,0.477,1.242
		c0.034,0.074,0.154,0.233,0.152,0.31c-0.001,0.041-0.017,0.086-0.042,0.131c-0.061,0.11-0.173,0.223-0.232,0.295
		c-0.383,0.46-0.997,0.778-1.505,1.081c-1.433,0.854-3.108,1.219-4.765,1.229c-1.248,0.008-2.513-0.139-3.729-0.415
		c-1.126-0.256-2.044-0.744-3.005-1.328c0.225-0.734,0.452-1.466,0.679-2.198c0.001-0.001,0.002-0.001,0.003-0.002
		c0.107-0.047,0.118-0.164,0.076-0.256C25.593,68.897,25.72,68.481,25.849,68.067z M42.632,71.591
		c-0.519,0.466-1.115,0.838-1.684,1.238c-1.098,0.771-2.023,1.761-3.185,2.441c-1.305,0.764-2.798,1.221-4.309,1.31
		c-1.491,0.089-2.879-0.247-4.299-0.661c-1.609-0.468-3.22-0.93-4.825-1.412c-0.701-0.211-1.398-0.432-2.089-0.676
		c-0.353-0.125-0.927-0.228-1.218-0.477c-1.018-0.868-0.175-1.198,0.363-1.569c1.059-0.733,2.185-1.37,3.35-1.921
		c-0.042,0.129-0.085,0.257-0.125,0.386c-0.102,0.326-0.201,0.653-0.295,0.981c-0.044,0.152-0.083,0.298-0.148,0.44
		c-0.048,0.104-0.067,0.116-0.009,0.228c0.283,0.54,0.864,0.968,1.379,1.264c0.592,0.34,1.243,0.568,1.903,0.734
		c1.287,0.323,2.628,0.423,3.952,0.417c1.641-0.007,3.306-0.326,4.774-1.077c0.52-0.266,1.013-0.586,1.462-0.958
		c0.225-0.187,0.439-0.386,0.641-0.598c0.173-0.181,0.38-0.339,0.472-0.575c0.012-0.031,0.022-0.064,0.03-0.098
		c0.051-0.223-0.028-0.386-0.078-0.596c-0.05-0.209-0.096-0.411-0.167-0.616c-0.125-0.364-0.266-0.722-0.4-1.083
		c1.392,0.363,2.737,0.828,4.062,1.412c0.209,0.092,0.915,0.285,0.991,0.457C43.34,70.942,42.848,71.397,42.632,71.591z"/>
	<path id="XMLID_84_" class="st12" d="M32.945,57.018c0.021-0.05,0.039-0.102,0.057-0.153c0.001-0.002,0.001-0.006,0.001-0.008
		c0.008-0.026,0.018-0.052,0.03-0.077c0.024-0.072,0.045-0.145,0.065-0.219c-0.211-0.644-0.365-1.305-0.586-1.945
		c-0.134-0.389-0.265-0.776-0.439-1.142c0.251,1.231,0.483,2.477,0.719,3.726C32.847,57.143,32.898,57.084,32.945,57.018z"/>
	<path id="XMLID_87_" class="st7" d="M32.074,53.474c-0.091-0.192-0.194-0.379-0.317-0.557c-0.066-0.096-0.149-0.2-0.266-0.212
		c-0.043-0.005-0.086,0.005-0.125,0.024c-0.052,0.026-0.097,0.068-0.129,0.117c-0.222,0.342-1.736,4.448-1.757,4.441
		c0.023,0.008,0.046,0.019,0.067,0.034c0.627,0.447,1.933,0.612,2.79,0.22c0.168-0.089,0.322-0.201,0.456-0.341
		C32.557,55.951,32.325,54.705,32.074,53.474z"/>
	<path id="XMLID_90_" class="st8" d="M32.93,57.919c-0.281,0.176-0.611,0.285-0.965,0.341c-0.575,0.091-1.282,0.172-1.852,0.002
		c-0.112-0.034-0.829-0.436-0.893-0.264c-0.106,0.29-0.214,0.579-0.318,0.869c0.593,0.261,1.207,0.419,1.857,0.447
		c0.345-0.016,0.69-0.052,1.042-0.094c0.583-0.07,0.931-0.227,1.275-0.547C33.026,58.421,32.978,58.17,32.93,57.919z"/>
	<path id="XMLID_93_" class="st13" d="M33.493,58.218c0.008-0.01,0.019-0.018,0.028-0.027c0.024-0.064,0.047-0.129,0.065-0.195
		c-0.058-0.17-0.116-0.341-0.174-0.511c-0.134,0.176-0.298,0.319-0.482,0.434c0.048,0.251,0.096,0.502,0.145,0.752
		C33.21,58.546,33.345,58.399,33.493,58.218z"/>
	<path id="XMLID_96_" class="st12" d="M34.29,63.317c0.309-0.2,0.558-0.459,0.835-0.681c0.009-0.012,0.02-0.024,0.029-0.036
		c-0.095-0.275-0.192-0.55-0.286-0.826c-0.323-0.946-0.644-1.893-0.965-2.84c-0.178,0.254-0.404,0.448-0.658,0.597
		c0.264,1.308,0.55,2.608,0.884,3.884C34.183,63.383,34.237,63.351,34.29,63.317z"/>
	<path id="XMLID_99_" class="st7" d="M33.246,59.531c-0.525,0.307-1.172,0.417-1.776,0.431c-0.489,0.011-0.98-0.038-1.462-0.122
		c-0.219-0.038-0.479-0.062-0.686-0.146c-0.053-0.022-0.452-0.253-0.618-0.294c-0.028,0.057-0.055,0.113-0.08,0.169
		c-0.027,0.061-0.049,0.122-0.073,0.184c-0.166,0.646-0.411,1.269-0.626,1.902c-0.135,0.397-0.268,0.794-0.401,1.191
		c-0.072,0.216-0.128,0.472-0.205,0.709c0.149,0.103,0.295,0.182,0.47,0.241c0.021,0.007,0.039,0.021,0.054,0.038
		c1.451,0.4,3.024,0.563,4.507,0.259c0.633-0.13,1.227-0.349,1.778-0.679C33.795,62.138,33.509,60.838,33.246,59.531z"/>
	<path id="XMLID_102_" class="st13" d="M35.26,65.668c0.21-0.327,0.41-0.66,0.612-0.991c-0.149-0.429-0.296-0.859-0.445-1.288
		c-0.305,0.345-0.667,0.631-1.069,0.867c0.168,0.595,0.348,1.184,0.544,1.766C35.026,65.911,35.147,65.794,35.26,65.668z"/>
	<path id="XMLID_105_" class="st8" d="M34.358,64.256c-2.007,1.177-5.011,1.037-6.932,0.042c-0.079-0.028-0.152-0.068-0.225-0.111
		c-0.034-0.017-0.067-0.035-0.1-0.055c-0.225,0.689-0.448,1.379-0.667,2.07c-0.034,0.108,0.459,0.396,0.539,0.439
		c0.682,0.363,1.433,0.663,2.179,0.867c0.564,0.154,1.175,0.105,1.749,0.039c1.448-0.166,2.923-0.565,4.001-1.525
		C34.706,65.44,34.526,64.851,34.358,64.256z"/>
	<path id="XMLID_108_" class="st12" d="M37.711,71.199c0.059-0.071,0.171-0.185,0.232-0.295c0.025-0.045,0.041-0.09,0.042-0.131
		c0.001-0.077-0.118-0.236-0.152-0.31c-0.185-0.403-0.338-0.821-0.477-1.242c-0.276-0.836-0.492-1.692-0.782-2.524
		c-0.165-0.476-0.331-0.951-0.497-1.427c-0.027,0.035-0.054,0.07-0.081,0.105c-0.243,0.473-0.55,0.867-0.904,1.199
		c0.613,1.721,1.371,3.368,2.345,4.898C37.536,71.386,37.63,71.296,37.711,71.199z"/>
	<path id="XMLID_111_" class="st7" d="M35.092,66.574c-1.143,1.07-2.783,1.469-4.404,1.601c-0.282,0.026-0.57,0.039-0.853,0.022
		c-0.58-0.035-1.151-0.18-1.698-0.37c-0.484-0.169-0.98-0.338-1.434-0.582c-0.034-0.018-0.102-0.042-0.176-0.071
		c-0.028,0.005-0.059-0.002-0.089-0.02c-0.001,0.002-0.002,0.003-0.003,0.005c-0.085-0.051-0.176-0.086-0.264-0.127
		c-0.085,0.271-0.169,0.543-0.254,0.815c0.016,0.077-0.001,0.157-0.068,0.22c-0.129,0.414-0.256,0.83-0.384,1.244
		c0.042,0.092,0.031,0.209-0.076,0.256c-0.001,0.001-0.002,0.001-0.003,0.002c-0.227,0.732-0.454,1.464-0.679,2.198
		c0.961,0.583,1.879,1.071,3.005,1.328c1.216,0.277,2.481,0.423,3.729,0.415c1.657-0.01,3.332-0.375,4.765-1.229
		c0.401-0.239,0.865-0.488,1.232-0.808C36.463,69.942,35.705,68.295,35.092,66.574z"/>
	<path id="XMLID_114_" class="st8" d="M33.322,74.152c-0.638,0.106-1.285,0.159-1.929,0.162c-1.324,0.006-2.665-0.094-3.952-0.417
		c-0.66-0.166-1.312-0.394-1.903-0.734c-0.515-0.296-1.096-0.724-1.379-1.264c-0.059-0.112-0.04-0.123,0.009-0.228
		c0.066-0.142,0.105-0.288,0.148-0.44c0.094-0.328,0.192-0.655,0.295-0.981c0.041-0.129,0.083-0.257,0.125-0.386
		c-1.165,0.55-2.291,1.188-3.35,1.921c-0.537,0.372-1.38,0.701-0.363,1.569c0.291,0.248,0.864,0.352,1.218,0.477
		c0.691,0.244,1.388,0.465,2.089,0.676c1.605,0.482,3.216,0.944,4.825,1.412c1.42,0.413,2.808,0.749,4.299,0.661
		c1.511-0.09,3.004-0.546,4.309-1.31c0.508-0.297,0.971-0.655,1.423-1.027C37.336,74.709,35.263,74.632,33.322,74.152z"/>
	<path id="XMLID_117_" class="st11" d="M42.632,71.591c0.216-0.194,0.707-0.65,0.549-1.009c-0.075-0.172-0.782-0.365-0.991-0.457
		c-1.325-0.584-2.67-1.049-4.062-1.412c0.134,0.361,0.275,0.719,0.4,1.083c0.071,0.205,0.117,0.408,0.167,0.616
		c0.05,0.21,0.129,0.372,0.078,0.596c-0.008,0.034-0.018,0.067-0.03,0.098c-0.092,0.236-0.299,0.393-0.472,0.575
		c-0.202,0.211-0.416,0.411-0.641,0.598c-0.45,0.373-0.942,0.693-1.462,0.958c-0.892,0.456-1.858,0.751-2.845,0.915
		c1.941,0.48,4.014,0.557,5.864,0.091c0.581-0.478,1.145-0.98,1.762-1.414C41.518,72.429,42.114,72.058,42.632,71.591z"/>
</g>
</svg>
