<?xml version="1.0" encoding="utf-8"?>
<!-- Generator: Adobe Illustrator 24.0.3, SVG Export Plug-In . SVG Version: 6.00 Build 0)  -->
<svg version="1.1" id="Capa_1" xmlns="http://www.w3.org/2000/svg" xmlns:xlink="http://www.w3.org/1999/xlink" x="0px" y="0px"
	 width="50px" height="50px" viewBox="0 0 50 50" style="enable-background:new 0 0 50 50;" xml:space="preserve">
<style type="text/css">
	.st0{fill:#FF464B;}
</style>
<g>
	<g>
		<path class="st0" d="M25,0c-0.8,0-1.5,0.7-1.5,1.5v9.4c0,0.8,0.7,1.5,1.5,1.5s1.5-0.7,1.5-1.5V1.5C26.5,0.7,25.8,0,25,0z"/>
	</g>
</g>
<g>
	<g>
		<path class="st0" d="M25,37.7c-0.8,0-1.5,0.7-1.5,1.5v9.4c0,0.8,0.7,1.5,1.5,1.5s1.5-0.7,1.5-1.5v-9.4
			C26.5,38.3,25.8,37.7,25,37.7z"/>
	</g>
</g>
<g>
	<g>
		<path class="st0" d="M19.2,12l-4.7-8.2c-0.4-0.7-1.3-0.9-2-0.5c-0.7,0.4-0.9,1.3-0.5,2l4.7,8.2c0.3,0.5,0.8,0.7,1.3,0.7
			c0.2,0,0.5-0.1,0.7-0.2C19.4,13.6,19.6,12.7,19.2,12z"/>
	</g>
</g>
<g>
	<g>
		<path class="st0" d="M38,44.7l-4.7-8.2c-0.4-0.7-1.3-0.9-2-0.5c-0.7,0.4-0.9,1.3-0.5,2l4.7,8.2c0.3,0.5,0.8,0.7,1.3,0.7
			c0.2,0,0.5-0.1,0.7-0.2C38.2,46.2,38.4,45.3,38,44.7z"/>
	</g>
</g>
<g>
	<g>
		<path class="st0" d="M13.5,16.7L5.3,12c-0.7-0.4-1.6-0.2-2,0.5c-0.4,0.7-0.2,1.6,0.5,2l8.2,4.7c0.2,0.1,0.5,0.2,0.7,0.2
			c0.5,0,1-0.3,1.3-0.7C14.4,18,14.2,17.1,13.5,16.7z"/>
	</g>
</g>
<g>
	<g>
		<path class="st0" d="M46.1,35.5L38,30.8c-0.7-0.4-1.6-0.2-2,0.5c-0.4,0.7-0.2,1.6,0.5,2l8.2,4.7c0.2,0.1,0.5,0.2,0.7,0.2
			c0.5,0,1-0.3,1.3-0.7C47.1,36.8,46.8,35.9,46.1,35.5z"/>
	</g>
</g>
<g>
	<g>
		<path class="st0" d="M10.9,23.5H1.5C0.7,23.5,0,24.2,0,25s0.7,1.5,1.5,1.5h9.4c0.8,0,1.5-0.7,1.5-1.5S11.7,23.5,10.9,23.5z"/>
	</g>
</g>
<g>
	<g>
		<path class="st0" d="M48.5,23.5h-9.4c-0.8,0-1.5,0.7-1.5,1.5s0.7,1.5,1.5,1.5h9.4c0.8,0,1.5-0.7,1.5-1.5S49.3,23.5,48.5,23.5z"/>
	</g>
</g>
<g>
	<g>
		<path class="st0" d="M14,31.3c-0.4-0.7-1.3-0.9-2-0.5l-8.2,4.7c-0.7,0.4-0.9,1.3-0.5,2c0.3,0.5,0.8,0.7,1.3,0.7
			c0.2,0,0.5-0.1,0.7-0.2l8.2-4.7C14.2,32.9,14.4,32,14,31.3z"/>
	</g>
</g>
<g>
	<g>
		<path class="st0" d="M46.7,12.5c-0.4-0.7-1.3-0.9-2-0.5l-8.2,4.7c-0.7,0.4-0.9,1.3-0.5,2c0.3,0.5,0.8,0.7,1.3,0.7
			c0.2,0,0.5-0.1,0.7-0.2l8.2-4.7C46.8,14.1,47.1,13.2,46.7,12.5z"/>
	</g>
</g>
<g>
	<g>
		<path class="st0" d="M18.7,36c-0.7-0.4-1.6-0.2-2,0.5L12,44.6c-0.4,0.7-0.2,1.6,0.5,2c0.2,0.1,0.5,0.2,0.7,0.2
			c0.5,0,1-0.3,1.3-0.7l4.7-8.2C19.6,37.3,19.4,36.4,18.7,36z"/>
	</g>
</g>
<g>
	<g>
		<path class="st0" d="M37.5,3.3c-0.7-0.4-1.6-0.2-2,0.5L30.8,12c-0.4,0.7-0.2,1.6,0.5,2c0.2,0.1,0.5,0.2,0.7,0.2
			c0.5,0,1-0.3,1.3-0.7L38,5.4C38.4,4.7,38.2,3.8,37.5,3.3z"/>
	</g>
</g>
</svg>
