<svg xmlns="http://www.w3.org/2000/svg" xmlns:xlink="http://www.w3.org/1999/xlink" width="270" height="79.35" viewBox="0 0 270 79.35">
  <defs>
    <clipPath id="clip-path">
      <path id="Trazado_186" data-name="Trazado 186" d="M98.909,705.586l25.3,8.164v47.9l-25.4-8.538Z" transform="translate(-98.814 -705.586)" fill="none" clip-rule="evenodd"/>
    </clipPath>
  </defs>
  <g id="Grupo_38" data-name="Grupo 38" transform="translate(-54.463 -704.117)">
    <g id="Grupo_32" data-name="Grupo 32" transform="translate(132.018 707.946)">
      <path id="Trazado_159" data-name="Trazado 159" d="M174.188,709.4H161.465v46.2h27.654V745.4h-14.93Z" transform="translate(-161.465 -709.4)" fill="#ec2d2f" fill-rule="evenodd"/>
      <path id="Trazado_160" data-name="Trazado 160" d="M237.658,728.814a22.262,22.262,0,0,0-14.635-5.066,22.029,22.029,0,0,0-14.562,5.456,16.9,16.9,0,0,0-6.036,12.8,17.15,17.15,0,0,0,5.813,12.863,20.837,20.837,0,0,0,14.93,5.59A21.922,21.922,0,0,0,238.176,755a16.758,16.758,0,0,0,5.952-13.119A17.222,17.222,0,0,0,237.658,728.814Zm-14.418,21.9c-5.071,0-9.34-3.834-9.34-8.577,0-4.809,4.2-8.638,9.34-8.638s9.346,3.829,9.346,8.638C232.587,746.876,228.39,750.711,223.241,750.711Z" transform="translate(-172.737 -713.348)" fill="#ec2d2f" fill-rule="evenodd"/>
      <path id="Trazado_161" data-name="Trazado 161" d="M289.551,724.1c-5.221,0-8.9,1.817-11.324,5.328l.145-4.682H267.337v34.893h11.4V740.732c0-4.671,2.43-7.078,6.989-7.078,4.486,0,5.662,2.207,5.662,7.078v18.909H303.01v-23C303.01,728.649,297.716,724.1,289.551,724.1Z" transform="translate(-190.601 -713.446)" fill="#ec2d2f" fill-rule="evenodd"/>
      <path id="Trazado_162" data-name="Trazado 162" d="M352.508,733.247v-8.254H323.161v9.034h16.257l-16.257,18.581v7.278H352.8v-9.028H338.169Z" transform="translate(-205.964 -713.691)" fill="#ec2d2f" fill-rule="evenodd"/>
      <path id="Trazado_163" data-name="Trazado 163" d="M399.323,724.8v3.9c-2.648-2.988-6.325-4.42-11.108-4.42a19.625,19.625,0,0,0-13.164,4.81,16.789,16.789,0,0,0,.586,26.706A19.376,19.376,0,0,0,388,759.893c4.7,0,8.237-1.1,11.692-4.091v3.9h11.258V724.8Zm-8.756,25.8c-5.952,0-10.221-3.706-10.221-8.577,0-4.681,4.269-8.643,9.781-8.643,5.445,0,9.635,3.773,9.635,8.772C399.763,746.963,395.572,750.6,390.567,750.6Z" transform="translate(-218.503 -713.497)" fill="#ec2d2f" fill-rule="evenodd"/>
    </g>
    <path id="Trazado_164" data-name="Trazado 164" d="M54.491,726.136l22.075-22.019v54.3l35.7,11.653-21.757,13.4-36.047-9.185Z" fill="#2764b0"/>
    <path id="Trazado_165" data-name="Trazado 165" d="M97.9,704.6l-.379-.128h0l-1.655,1.583v48.285l26.417,8.627,1.705-.8-.273-.093h0l.272.094V713.014Zm.2.68,25.3,8.164v47.9L98,752.806Z" transform="translate(-11.393 -0.097)" fill="#ec2d2f" fill-rule="evenodd"/>
    <g id="Grupo_33" data-name="Grupo 33" transform="translate(132.726 761.141)">
      <path id="Trazado_166" data-name="Trazado 166" d="M167.975,789.482a2.054,2.054,0,0,1-1.293.418,2.2,2.2,0,0,1-1.659-.662,3.189,3.189,0,0,1-.636-2.231,2.968,2.968,0,0,1,.644-2.133,2.292,2.292,0,0,1,1.69-.657,2.141,2.141,0,0,1,1.276.372,1.717,1.717,0,0,1,.7,1.011l1.869-.389a3.178,3.178,0,0,0-.956-1.523,4.213,4.213,0,0,0-2.79-.9,4.426,4.426,0,0,0-3.166,1.143,4.17,4.17,0,0,0-1.207,3.2,4.006,4.006,0,0,0,1.2,3.067,4.309,4.309,0,0,0,3.063,1.122,4.4,4.4,0,0,0,2.478-.653,3.622,3.622,0,0,0,1.4-2.009l-1.83-.512A2.4,2.4,0,0,1,167.975,789.482Z" transform="translate(-162.442 -782.793)" fill="#2764b0" fill-rule="evenodd"/>
      <path id="Trazado_167" data-name="Trazado 167" d="M178.589,787.6h4.7v-1.386h-4.7v-1.826h5.047v-1.4H176.7v8.251h7.112v-1.391h-5.226Z" transform="translate(-166.367 -782.846)" fill="#2764b0" fill-rule="evenodd"/>
      <path id="Trazado_168" data-name="Trazado 168" d="M195.206,788.495l-3.827-5.508h-1.839v8.251h1.753v-5.38l3.771,5.38h1.894v-8.251h-1.753Z" transform="translate(-169.9 -782.846)" fill="#2764b0" fill-rule="evenodd"/>
      <path id="Trazado_169" data-name="Trazado 169" d="M202.4,784.386h2.773v6.851h1.886v-6.851h2.769v-1.4H202.4Z" transform="translate(-173.437 -782.846)" fill="#2764b0" fill-rule="evenodd"/>
      <path id="Trazado_170" data-name="Trazado 170" d="M221.312,788.291a4.3,4.3,0,0,0-1.011-.691,3.172,3.172,0,0,0,1.852-.759,2.058,2.058,0,0,0,.618-1.536,2.164,2.164,0,0,0-.41-1.3,2.12,2.12,0,0,0-1.088-.789,7.6,7.6,0,0,0-2.176-.222h-3.971v8.246h1.885V787.8h.384a3.4,3.4,0,0,1,.947.094,1.421,1.421,0,0,1,.567.346,11.05,11.05,0,0,1,1,1.207l1.365,1.8h2.257l-1.143-1.608A9.561,9.561,0,0,0,221.312,788.291Zm-2.9-1.813h-1.4v-2.09h1.472c.768,0,1.224.009,1.378.031a1.155,1.155,0,0,1,.708.324.9.9,0,0,1,.256.67.983.983,0,0,1-.191.618,1.01,1.01,0,0,1-.529.35A8.532,8.532,0,0,1,218.412,786.478Z" transform="translate(-176.941 -782.848)" fill="#2764b0" fill-rule="evenodd"/>
      <path id="Trazado_171" data-name="Trazado 171" d="M232.916,782.8a5.754,5.754,0,0,0-2.018.325,3.743,3.743,0,0,0-1.208.747,3.875,3.875,0,0,0-.87,1.131,4.734,4.734,0,0,0-.426,2.116,3.975,3.975,0,0,0,1.233,3.093,4.732,4.732,0,0,0,3.315,1.122,4.681,4.681,0,0,0,3.289-1.126,4.587,4.587,0,0,0-.013-6.272A4.693,4.693,0,0,0,232.916,782.8Zm1.869,6.391a2.513,2.513,0,0,1-1.852.717,2.558,2.558,0,0,1-1.86-.72,3.49,3.49,0,0,1-.021-4.254,2.857,2.857,0,0,1,3.749-.012,2.839,2.839,0,0,1,.708,2.116A2.907,2.907,0,0,1,234.785,789.189Z" transform="translate(-180.592 -782.794)" fill="#2764b0" fill-rule="evenodd"/>
      <path id="Trazado_172" data-name="Trazado 172" d="M249.542,791.238h1.886v-3.507h3.9v-1.4h-3.9v-1.949h4.522v-1.4h-6.408Z" transform="translate(-186.412 -782.846)" fill="#2764b0" fill-rule="evenodd"/>
      <path id="Trazado_173" data-name="Trazado 173" d="M263.205,787.6H267.9v-1.386h-4.693v-1.826h5.047v-1.4H261.32v8.251h7.112v-1.391h-5.226Z" transform="translate(-189.653 -782.846)" fill="#2764b0" fill-rule="evenodd"/>
      <path id="Trazado_174" data-name="Trazado 174" d="M280.321,788.291a4.183,4.183,0,0,0-1.007-.691,3.17,3.17,0,0,0,1.851-.759,2.058,2.058,0,0,0,.619-1.536,2.169,2.169,0,0,0-.41-1.3,2.12,2.12,0,0,0-1.088-.789,7.606,7.606,0,0,0-2.176-.222h-3.972v8.246h1.886V787.8h.384a3.392,3.392,0,0,1,.947.094,1.419,1.419,0,0,1,.568.346,11.162,11.162,0,0,1,1,1.207l1.366,1.8h2.256l-1.143-1.608A9.216,9.216,0,0,0,280.321,788.291Zm-2.9-1.813h-1.395v-2.09H277.5c.768,0,1.225.009,1.379.031a1.159,1.159,0,0,1,.708.324.906.906,0,0,1,.256.67.979.979,0,0,1-.192.618,1.01,1.01,0,0,1-.529.35A8.557,8.557,0,0,1,277.419,786.478Z" transform="translate(-193.181 -782.848)" fill="#2764b0" fill-rule="evenodd"/>
      <path id="Trazado_175" data-name="Trazado 175" d="M294.129,788.291a4.185,4.185,0,0,0-1.007-.691,3.185,3.185,0,0,0,1.852-.759,2.074,2.074,0,0,0,.618-1.536,2.164,2.164,0,0,0-.41-1.3,2.12,2.12,0,0,0-1.088-.789,7.6,7.6,0,0,0-2.176-.222h-3.971v8.246h1.885V787.8h.384a3.4,3.4,0,0,1,.947.094,1.422,1.422,0,0,1,.567.346,11.045,11.045,0,0,1,1,1.207l1.365,1.8h2.257l-1.144-1.608A8.885,8.885,0,0,0,294.129,788.291Zm-2.9-1.813h-1.4v-2.09h1.472c.763,0,1.224.009,1.378.031a1.155,1.155,0,0,1,.708.324.9.9,0,0,1,.256.67.979.979,0,0,1-.192.618,1.007,1.007,0,0,1-.529.35A8.542,8.542,0,0,1,291.228,786.478Z" transform="translate(-196.981 -782.848)" fill="#2764b0" fill-rule="evenodd"/>
      <path id="Trazado_176" data-name="Trazado 176" d="M303.624,787.6h4.693v-1.386h-4.693v-1.826h5.047v-1.4h-6.932v8.251h7.112v-1.391h-5.226Z" transform="translate(-200.776 -782.846)" fill="#2764b0" fill-rule="evenodd"/>
      <path id="Trazado_177" data-name="Trazado 177" d="M313.622,784.386h2.773v6.851h1.886v-6.851h2.769v-1.4h-7.427Z" transform="translate(-204.047 -782.846)" fill="#2764b0" fill-rule="evenodd"/>
      <path id="Trazado_178" data-name="Trazado 178" d="M328.233,787.6h4.693v-1.386h-4.693v-1.826h5.047v-1.4h-6.932v8.251h7.112v-1.391h-5.226Z" transform="translate(-207.549 -782.846)" fill="#2764b0" fill-rule="evenodd"/>
      <path id="Trazado_179" data-name="Trazado 179" d="M360.252,783.933a4.7,4.7,0,0,0-3.3-1.135,5.756,5.756,0,0,0-2.018.325,3.824,3.824,0,0,0-1.212.747,3.933,3.933,0,0,0-.865,1.131,4.665,4.665,0,0,0-.427,2.116,3.975,3.975,0,0,0,1.233,3.093,5.413,5.413,0,0,0,6.6,0,4.6,4.6,0,0,0-.013-6.272Zm-1.434,5.255a2.513,2.513,0,0,1-1.851.717,2.553,2.553,0,0,1-1.861-.72,3.49,3.49,0,0,1-.021-4.254,2.858,2.858,0,0,1,3.75-.012,2.842,2.842,0,0,1,.708,2.116A2.908,2.908,0,0,1,358.819,789.189Z" transform="translate(-214.726 -782.794)" fill="#2764b0" fill-rule="evenodd"/>
      <path id="Trazado_180" data-name="Trazado 180" d="M345.349,788.291a4.183,4.183,0,0,0-1.007-.691,3.182,3.182,0,0,0,1.851-.759,2.075,2.075,0,0,0,.619-1.536,2.169,2.169,0,0,0-.409-1.3,2.12,2.12,0,0,0-1.088-.789,7.606,7.606,0,0,0-2.176-.222h-3.972v8.246h1.886V787.8h.383a3.4,3.4,0,0,1,.947.094,1.449,1.449,0,0,1,.567.346,11.161,11.161,0,0,1,1,1.207l1.366,1.8h2.252l-1.139-1.608A9.217,9.217,0,0,0,345.349,788.291Zm-2.9-1.813h-1.395v-2.09h1.471c.764,0,1.225.009,1.379.031a1.155,1.155,0,0,1,.707.324.9.9,0,0,1,.257.67.983.983,0,0,1-.192.618,1.01,1.01,0,0,1-.529.35A8.557,8.557,0,0,1,342.447,786.478Z" transform="translate(-211.077 -782.848)" fill="#2764b0" fill-rule="evenodd"/>
    </g>
    <path id="Trazado_181" data-name="Trazado 181" d="M98.909,705.586l25.3,8.164v47.9l-25.4-8.538Z" transform="translate(-12.205 -0.404)" fill="#fff" fill-rule="evenodd"/>
    <g id="Grupo_36" data-name="Grupo 36" transform="translate(86.608 705.181)">
      <g id="Grupo_35" data-name="Grupo 35" transform="translate(0 0)" clip-path="url(#clip-path)">
        <g id="Grupo_34" data-name="Grupo 34" transform="translate(-1.24 -0.596)">
          <path id="Trazado_182" data-name="Trazado 182" d="M97.556,760.778l-.022,10.333,6.744,2.53-.011-10.427Z" transform="translate(-97.221 -720.178)" fill="#ec2d2f" fill-rule="evenodd"/>
          <path id="Trazado_183" data-name="Trazado 183" d="M125.891,728.476l.005,10.333,7.005,2.307V731.029Z" transform="translate(-105.026 -711.289)" fill="#ec2d2f" fill-rule="evenodd"/>
          <path id="Trazado_184" data-name="Trazado 184" d="M124.517,746.243l-6.549-2.456v-9.844l-6.8-2.246.006,10-7.033-2.48v-9.941l6.994,2.417.06-10.345,6.957,2.208-.011-10.215-7.078-2.363.011,10.1-6.954-2.514.017,10.6-7.006-2.546L97.1,736.952l7.022,2.3.012,10.227,7.022,2.3v10.154l6.816,1.8.011-9.6,6.627,2.18Zm-6.581,7.763-6.761-2.329v-9.97l6.788,2.172Z" transform="translate(-97.103 -706.473)" fill="#ec2d2f" fill-rule="evenodd"/>
          <path id="Trazado_185" data-name="Trazado 185" d="M104.274,707.076l-6.911-2.313-.022,9.486,6.933,2.63Z" transform="translate(-97.169 -704.763)" fill="#ec2d2f" fill-rule="evenodd"/>
        </g>
      </g>
    </g>
    <rect id="Rectángulo_30" data-name="Rectángulo 30" width="42.222" height="10.008" transform="translate(282.241 760.407)" fill="#ec2d2f"/>
    <g id="Grupo_37" data-name="Grupo 37" transform="translate(296.866 761.972)">
      <path id="Trazado_187" data-name="Trazado 187" d="M390.39,784.148l-1.486,6.69h3.332l.5-3.678,1.463,3.678h2l1.508-3.7.5,3.7h3.287l-1.6-6.69h-3.377l-1.328,3.485-1.26-3.485Z" transform="translate(-388.904 -783.996)" fill="#fff" fill-rule="evenodd"/>
      <path id="Trazado_188" data-name="Trazado 188" d="M405.173,784.148h7.135v2.206h-1.857v4.484h-3.42v-4.484h-1.858Z" transform="translate(-393.382 -783.996)" fill="#fff" fill-rule="evenodd"/>
      <path id="Trazado_189" data-name="Trazado 189" d="M414.951,790.234a19.6,19.6,0,0,0,1.98.457,7.983,7.983,0,0,0,1.969.122,6.262,6.262,0,0,0,2.13-.465,2.214,2.214,0,0,0,1.323-1.2,1.589,1.589,0,0,0-.095-1.616,2.881,2.881,0,0,0-1.427-.846,10.934,10.934,0,0,0-1.827-.313c-.5-.038-.352-.323-.352-.323.019-.342.98-.275,1.046-.275a5.785,5.785,0,0,1,1.56.5l.942-1.757a7.251,7.251,0,0,0-2.484-.56,6.372,6.372,0,0,0-2.625.351c-1.912.617-1.816,2.08-1.816,2.08a1.5,1.5,0,0,0,.732,1.292,5.34,5.34,0,0,0,1.969.579,2.224,2.224,0,0,1,.865.133c.438.133.115.465.115.465a1.9,1.9,0,0,1-.676.152,4.615,4.615,0,0,1-2.35-.712Z" transform="translate(-396.072 -783.939)" fill="#fff" fill-rule="evenodd"/>
    </g>
  </g>
</svg>
