<svg xmlns="http://www.w3.org/2000/svg" xmlns:xlink="http://www.w3.org/1999/xlink" width="200" height="58.778" viewBox="0 0 200 58.778">
  <defs>
    <clipPath id="clip-path">
      <path id="Trazado_186" data-name="Trazado 186" d="M98.884,705.586l18.742,6.048v35.482l-18.812-6.324Z" transform="translate(-98.814 -705.586)" fill="none" clip-rule="evenodd"/>
    </clipPath>
  </defs>
  <g id="Grupo_103" data-name="Grupo 103" transform="translate(-54.463 -704.117)">
    <g id="Grupo_32" data-name="Grupo 32" transform="translate(111.911 706.953)">
      <path id="Trazado_159" data-name="Trazado 159" d="M170.89,709.4h-9.425v34.219h20.484v-7.554H170.89Z" transform="translate(-161.465 -709.4)" fill="#fff" fill-rule="evenodd"/>
      <path id="Trazado_160" data-name="Trazado 160" d="M228.524,727.5a16.49,16.49,0,0,0-10.841-3.752,16.318,16.318,0,0,0-10.787,4.041,12.518,12.518,0,0,0-4.471,9.483,12.7,12.7,0,0,0,4.306,9.528,15.435,15.435,0,0,0,11.059,4.141,16.24,16.24,0,0,0,11.117-4.045,12.413,12.413,0,0,0,4.409-9.718A12.757,12.757,0,0,0,228.524,727.5Zm-10.68,16.22c-3.757,0-6.919-2.84-6.919-6.354a6.946,6.946,0,1,1,6.919,6.354Z" transform="translate(-180.434 -716.045)" fill="#fff" fill-rule="evenodd"/>
      <path id="Trazado_161" data-name="Trazado 161" d="M283.792,724.1c-3.868,0-6.592,1.346-8.388,3.947l.107-3.468h-8.174v25.847h8.446V736.42c0-3.46,1.8-5.243,5.177-5.243,3.323,0,4.194,1.635,4.194,5.243v14.007h8.607V733.39C293.762,727.47,289.84,724.1,283.792,724.1Z" transform="translate(-210.496 -716.208)" fill="#fff" fill-rule="evenodd"/>
      <path id="Trazado_162" data-name="Trazado 162" d="M344.9,731.107v-6.114H323.161v6.692H335.2l-12.042,13.763v5.391h21.958v-6.688H334.278Z" transform="translate(-236.348 -716.621)" fill="#fff" fill-rule="evenodd"/>
      <path id="Trazado_163" data-name="Trazado 163" d="M391.39,724.67v2.89c-1.961-2.213-4.685-3.274-8.228-3.274a14.537,14.537,0,0,0-9.751,3.563,12.436,12.436,0,0,0,.434,19.782,14.352,14.352,0,0,0,9.156,3.03,12.169,12.169,0,0,0,8.661-3.03v2.886H400V724.67ZM384.9,743.779c-4.409,0-7.571-2.745-7.571-6.353,0-3.467,3.162-6.4,7.245-6.4,4.033,0,7.137,2.794,7.137,6.5C391.716,741.084,388.612,743.779,384.9,743.779Z" transform="translate(-257.45 -716.294)" fill="#fff" fill-rule="evenodd"/>
    </g>
    <path id="Trazado_164" data-name="Trazado 164" d="M54.484,720.427l16.352-16.311v40.222l26.445,8.632-16.117,9.924-26.7-6.8Z" transform="translate(0 0)" fill="#2764b0"/>
    <path id="Trazado_165" data-name="Trazado 165" d="M97.368,704.566l-.281-.1h0l-1.226,1.172v35.767l19.568,6.39,1.263-.594-.2-.069h0l.2.07V710.8Zm.149.5,18.742,6.048V746.6l-18.812-6.325Z" transform="translate(-19.172 -0.164)" fill="#ec2d2f" fill-rule="evenodd"/>
    <g id="Grupo_33" data-name="Grupo 33" transform="translate(112.436 746.357)">
      <path id="Trazado_166" data-name="Trazado 166" d="M166.541,787.748a1.523,1.523,0,0,1-.958.31,1.632,1.632,0,0,1-1.229-.49,2.362,2.362,0,0,1-.471-1.653,2.2,2.2,0,0,1,.477-1.58,1.7,1.7,0,0,1,1.251-.487,1.585,1.585,0,0,1,.945.276,1.272,1.272,0,0,1,.515.749l1.384-.288a2.353,2.353,0,0,0-.708-1.128,3.121,3.121,0,0,0-2.067-.664,3.278,3.278,0,0,0-2.345.847,3.088,3.088,0,0,0-.894,2.37,2.967,2.967,0,0,0,.888,2.272,3.192,3.192,0,0,0,2.269.831,3.257,3.257,0,0,0,1.836-.484,2.684,2.684,0,0,0,1.04-1.488l-1.356-.38A1.774,1.774,0,0,1,166.541,787.748Z" transform="translate(-162.442 -782.793)" fill="#fff" fill-rule="evenodd"/>
      <path id="Trazado_167" data-name="Trazado 167" d="M178.1,786.4h3.479v-1.027H178.1v-1.352h3.738v-1.037H176.7V789.1h5.268v-1.03H178.1Z" transform="translate(-169.047 -782.883)" fill="#fff" fill-rule="evenodd"/>
      <path id="Trazado_168" data-name="Trazado 168" d="M193.737,787.067l-2.835-4.08h-1.362V789.1h1.3v-3.985l2.794,3.985h1.4v-6.112h-1.3Z" transform="translate(-174.992 -782.883)" fill="#fff" fill-rule="evenodd"/>
      <path id="Trazado_169" data-name="Trazado 169" d="M202.4,784.024h2.054V789.1h1.4v-5.075H207.9v-1.037h-5.5Z" transform="translate(-180.945 -782.883)" fill="#fff" fill-rule="evenodd"/>
      <path id="Trazado_170" data-name="Trazado 170" d="M219.709,786.918a3.184,3.184,0,0,0-.749-.512,2.35,2.35,0,0,0,1.372-.562,1.524,1.524,0,0,0,.458-1.138,1.6,1.6,0,0,0-.3-.964,1.571,1.571,0,0,0-.806-.585,5.631,5.631,0,0,0-1.612-.164h-2.942V789.1h1.4v-2.55h.285a2.516,2.516,0,0,1,.7.07,1.052,1.052,0,0,1,.42.256,8.162,8.162,0,0,1,.74.894l1.011,1.33h1.672l-.847-1.191A7.086,7.086,0,0,0,219.709,786.918Zm-2.149-1.343h-1.037v-1.548h1.09c.569,0,.907.006,1.021.023a.855.855,0,0,1,.525.24.669.669,0,0,1,.189.5.729.729,0,0,1-.142.458.747.747,0,0,1-.392.259A6.312,6.312,0,0,1,217.56,785.574Z" transform="translate(-186.841 -782.886)" fill="#fff" fill-rule="evenodd"/>
      <path id="Trazado_171" data-name="Trazado 171" d="M231.744,782.8a4.267,4.267,0,0,0-1.495.241,2.774,2.774,0,0,0-.894.553,2.87,2.87,0,0,0-.645.838,3.505,3.505,0,0,0-.316,1.567,2.944,2.944,0,0,0,.913,2.291,3.506,3.506,0,0,0,2.455.831,3.468,3.468,0,0,0,2.436-.834,3.4,3.4,0,0,0-.01-4.646A3.476,3.476,0,0,0,231.744,782.8Zm1.384,4.734a1.862,1.862,0,0,1-1.372.531,1.9,1.9,0,0,1-1.378-.534,2.585,2.585,0,0,1-.016-3.151,2.116,2.116,0,0,1,2.777-.009,2.1,2.1,0,0,1,.525,1.567A2.153,2.153,0,0,1,233.128,787.532Z" transform="translate(-192.985 -782.795)" fill="#fff" fill-rule="evenodd"/>
      <path id="Trazado_172" data-name="Trazado 172" d="M249.542,789.1h1.4v-2.6h2.892v-1.034h-2.892v-1.444h3.35v-1.037h-4.746Z" transform="translate(-202.779 -782.883)" fill="#fff" fill-rule="evenodd"/>
      <path id="Trazado_173" data-name="Trazado 173" d="M262.716,786.4h3.476v-1.027h-3.476v-1.352h3.738v-1.037H261.32V789.1h5.268v-1.03h-3.871Z" transform="translate(-208.233 -782.883)" fill="#fff" fill-rule="evenodd"/>
      <path id="Trazado_174" data-name="Trazado 174" d="M278.718,786.918a3.1,3.1,0,0,0-.746-.512,2.348,2.348,0,0,0,1.371-.562,1.524,1.524,0,0,0,.459-1.138,1.607,1.607,0,0,0-.3-.964,1.571,1.571,0,0,0-.806-.585,5.634,5.634,0,0,0-1.612-.164h-2.942V789.1h1.4v-2.55h.285a2.511,2.511,0,0,1,.7.07,1.049,1.049,0,0,1,.42.256,8.224,8.224,0,0,1,.739.894l1.012,1.33h1.671l-.847-1.191A6.835,6.835,0,0,0,278.718,786.918Zm-2.149-1.343h-1.033v-1.548h1.09c.569,0,.907.006,1.021.023a.858.858,0,0,1,.525.24.671.671,0,0,1,.189.5.725.725,0,0,1-.142.458.747.747,0,0,1-.392.259A6.33,6.33,0,0,1,276.569,785.574Z" transform="translate(-214.17 -782.886)" fill="#fff" fill-rule="evenodd"/>
      <path id="Trazado_175" data-name="Trazado 175" d="M292.527,786.918a3.1,3.1,0,0,0-.746-.512,2.359,2.359,0,0,0,1.372-.562,1.536,1.536,0,0,0,.458-1.138,1.6,1.6,0,0,0-.3-.964,1.571,1.571,0,0,0-.806-.585,5.632,5.632,0,0,0-1.612-.164h-2.942V789.1h1.4v-2.55h.285a2.515,2.515,0,0,1,.7.07,1.051,1.051,0,0,1,.42.256,8.147,8.147,0,0,1,.74.894l1.011,1.33h1.672l-.847-1.191A6.583,6.583,0,0,0,292.527,786.918Zm-2.149-1.343h-1.033v-1.548h1.09c.565,0,.907.006,1.021.023a.855.855,0,0,1,.525.24.669.669,0,0,1,.189.5.725.725,0,0,1-.142.458.745.745,0,0,1-.392.259A6.318,6.318,0,0,1,290.378,785.574Z" transform="translate(-220.565 -782.886)" fill="#fff" fill-rule="evenodd"/>
      <path id="Trazado_176" data-name="Trazado 176" d="M303.135,786.4h3.476v-1.027h-3.476v-1.352h3.738v-1.037h-5.135V789.1h5.268v-1.03h-3.871Z" transform="translate(-226.952 -782.883)" fill="#fff" fill-rule="evenodd"/>
      <path id="Trazado_177" data-name="Trazado 177" d="M313.622,784.024h2.054V789.1h1.4v-5.075h2.051v-1.037h-5.5Z" transform="translate(-232.455 -782.883)" fill="#fff" fill-rule="evenodd"/>
      <path id="Trazado_178" data-name="Trazado 178" d="M327.744,786.4h3.476v-1.027h-3.476v-1.352h3.738v-1.037h-5.135V789.1h5.268v-1.03h-3.871Z" transform="translate(-238.349 -782.883)" fill="#fff" fill-rule="evenodd"/>
      <path id="Trazado_179" data-name="Trazado 179" d="M358.224,783.639a3.484,3.484,0,0,0-2.446-.841,4.269,4.269,0,0,0-1.495.241,2.837,2.837,0,0,0-.9.553,2.914,2.914,0,0,0-.641.838,3.456,3.456,0,0,0-.316,1.567,2.944,2.944,0,0,0,.913,2.291,4.009,4.009,0,0,0,4.892,0,3.406,3.406,0,0,0-.01-4.646Zm-1.062,3.893a1.861,1.861,0,0,1-1.371.531,1.891,1.891,0,0,1-1.378-.534,2.585,2.585,0,0,1-.015-3.151,2.116,2.116,0,0,1,2.778-.009,2.105,2.105,0,0,1,.525,1.567A2.154,2.154,0,0,1,357.162,787.532Z" transform="translate(-250.427 -782.795)" fill="#fff" fill-rule="evenodd"/>
      <path id="Trazado_180" data-name="Trazado 180" d="M343.746,786.918a3.093,3.093,0,0,0-.746-.512,2.358,2.358,0,0,0,1.371-.562,1.536,1.536,0,0,0,.458-1.138,1.608,1.608,0,0,0-.3-.964,1.571,1.571,0,0,0-.806-.585,5.634,5.634,0,0,0-1.612-.164h-2.942V789.1h1.4v-2.55h.284a2.513,2.513,0,0,1,.7.07,1.072,1.072,0,0,1,.42.256,8.239,8.239,0,0,1,.739.894l1.011,1.33h1.668l-.843-1.191A6.832,6.832,0,0,0,343.746,786.918Zm-2.149-1.343h-1.033v-1.548h1.09c.566,0,.907.006,1.021.023a.855.855,0,0,1,.524.24.67.67,0,0,1,.19.5.729.729,0,0,1-.142.458.747.747,0,0,1-.392.259A6.331,6.331,0,0,1,341.6,785.574Z" transform="translate(-244.285 -782.886)" fill="#fff" fill-rule="evenodd"/>
    </g>
    <path id="Trazado_181" data-name="Trazado 181" d="M98.884,705.586l18.742,6.048v35.482l-18.812-6.324Z" transform="translate(-20.539 -0.68)" fill="#fff" fill-rule="evenodd"/>
    <g id="Grupo_36" data-name="Grupo 36" transform="translate(78.274 704.905)">
      <g id="Grupo_35" data-name="Grupo 35" transform="translate(0 0)" clip-path="url(#clip-path)">
        <g id="Grupo_34" data-name="Grupo 34" transform="translate(-0.919 -0.442)">
          <path id="Trazado_182" data-name="Trazado 182" d="M97.55,760.779l-.017,7.654,5,1.874-.008-7.724Z" transform="translate(-97.302 -730.704)" fill="#ec2d2f" fill-rule="evenodd"/>
          <path id="Trazado_183" data-name="Trazado 183" d="M125.891,728.476l0,7.654,5.189,1.709v-7.472Z" transform="translate(-110.435 -715.745)" fill="#ec2d2f" fill-rule="evenodd"/>
          <path id="Trazado_184" data-name="Trazado 184" d="M117.41,737.1l-4.851-1.819v-7.292l-5.037-1.664,0,7.406-5.21-1.837V724.53l5.181,1.791.045-7.663,5.153,1.635-.008-7.567-5.243-1.75.008,7.485L102.3,716.6l.012,7.851-5.19-1.886-.02,7.654,5.2,1.705.009,7.576,5.2,1.7v7.521l5.049,1.333.008-7.109,4.909,1.615Zm-4.875,5.751-5.008-1.725v-7.386l5.028,1.609Z" transform="translate(-97.103 -707.64)" fill="#ec2d2f" fill-rule="evenodd"/>
          <path id="Trazado_185" data-name="Trazado 185" d="M102.477,706.477l-5.119-1.713-.017,7.026,5.136,1.948Z" transform="translate(-97.213 -704.763)" fill="#ec2d2f" fill-rule="evenodd"/>
        </g>
      </g>
    </g>
    <rect id="Rectángulo_30" data-name="Rectángulo 30" width="31.276" height="7.414" transform="translate(223.187 745.814)" fill="#fff"/>
    <g id="Grupo_37" data-name="Grupo 37" transform="translate(234.021 746.972)">
      <path id="Trazado_187" data-name="Trazado 187" d="M390,784.148l-1.1,4.956h2.468l.367-2.724,1.084,2.724h1.484l1.117-2.741.367,2.741h2.435l-1.185-4.956h-2.5l-.984,2.582-.933-2.582Z" transform="translate(-388.904 -784.036)" fill="#ec2d2f" fill-rule="evenodd"/>
      <path id="Trazado_188" data-name="Trazado 188" d="M405.173,784.148h5.285v1.634h-1.376V789.1h-2.533v-3.322h-1.376Z" transform="translate(-396.439 -784.036)" fill="#ec2d2f" fill-rule="evenodd"/>
      <path id="Trazado_189" data-name="Trazado 189" d="M414.951,788.6a14.524,14.524,0,0,0,1.467.339,5.928,5.928,0,0,0,1.458.091,4.64,4.64,0,0,0,1.578-.345,1.64,1.64,0,0,0,.98-.886,1.177,1.177,0,0,0-.07-1.2,2.134,2.134,0,0,0-1.057-.626,8.093,8.093,0,0,0-1.353-.232c-.367-.028-.26-.239-.26-.239.014-.253.726-.2.775-.2a4.285,4.285,0,0,1,1.156.373l.7-1.3a5.373,5.373,0,0,0-1.84-.415,4.718,4.718,0,0,0-1.945.26c-1.416.457-1.345,1.541-1.345,1.541a1.11,1.11,0,0,0,.542.957,3.957,3.957,0,0,0,1.459.429,1.649,1.649,0,0,1,.641.1c.325.1.085.345.085.345a1.405,1.405,0,0,1-.5.113,3.418,3.418,0,0,1-1.741-.528Z" transform="translate(-400.967 -783.939)" fill="#ec2d2f" fill-rule="evenodd"/>
    </g>
  </g>
</svg>
