<?xml version="1.0" encoding="utf-8"?>
<!-- Generator: Adobe Illustrator 22.0.1, SVG Export Plug-In . SVG Version: 6.00 Build 0)  -->
<svg version="1.1" id="Capa_1" xmlns="http://www.w3.org/2000/svg" xmlns:xlink="http://www.w3.org/1999/xlink" x="0px" y="0px"
	 width="765px" height="200.5px" viewBox="0 0 765 200.5" style="enable-background:new 0 0 765 200.5;" xml:space="preserve">
<style type="text/css">
	.st0{fill:#FFFFFF;}
</style>
<g>
	<polygon class="st0" points="220.9,6.8 182.4,106.4 142.7,6.8 43.6,6.8 0,194.2 92.1,194.2 111.7,86.1 155.4,194.2 212.6,194.2 
		255.5,86.5 274.4,194.2 362.2,194.2 317.9,6.8 	"/>
	<polygon class="st0" points="548.1,7.1 343.5,7.1 343.5,68.5 394.3,68.5 394.3,194.4 496.4,194.4 496.4,68.5 548.1,68.5 	"/>
	<path class="st0" d="M685.8,75.6c-28-2.4-34.3-7.5-34.3-13.5c0-6.9,5.7-11.8,25.3-11.8c25,0,51.4,13.9,51.4,13.9l26-44.1
		c0,0-33.1-20-91.5-20c-65.3,0-104.3,33-104.3,71c0,32,27.4,50,75.3,54.3c28.1,2.5,33.5,5.3,33.5,12.8c0,7.5-15,9.2-29,9.2
		c-20.2,0-59.7-17.6-59.7-17.6l-30.5,47.8c0,0,30.2,22.1,97.1,22.1c66.9,0,119.9-27.4,119.9-69.2C765,79.9,713.9,78,685.8,75.6z"/>
</g>
</svg>
