<?xml version="1.0" encoding="utf-8"?>
<!-- Generator: Adobe Illustrator 22.0.1, SVG Export Plug-In . SVG Version: 6.00 Build 0)  -->
<svg version="1.1" id="Capa_1" xmlns="http://www.w3.org/2000/svg" xmlns:xlink="http://www.w3.org/1999/xlink" x="0px" y="0px"
	 width="151.6px" height="55.3px" viewBox="0 0 151.6 55.3" style="enable-background:new 0 0 151.6 55.3;" xml:space="preserve">
<style type="text/css">
	.st0{fill:#FFFFFF;}
	.st1{fill:#E79A24;}
	.st2{fill:#DA0100;}
	.st3{fill-rule:evenodd;clip-rule:evenodd;fill:#D80110;}
	.st4{fill-rule:evenodd;clip-rule:evenodd;fill:#32338B;}
	.st5{fill:#3A67AC;}
	.st6{fill:#E79924;}
	.st7{fill:#7F7F7F;}
	.st8{fill-rule:evenodd;clip-rule:evenodd;fill:#1F3772;}
	.st9{fill-rule:evenodd;clip-rule:evenodd;fill:#E6B63A;}
	.st10{fill-rule:evenodd;clip-rule:evenodd;fill:#BF0124;}
	.st11{fill-rule:evenodd;clip-rule:evenodd;fill:#FFFFFF;}
	.st12{fill-rule:evenodd;clip-rule:evenodd;fill:#9EA0A2;}
	.st13{fill-rule:evenodd;clip-rule:evenodd;fill:#2A497B;}
	.st14{fill-rule:evenodd;clip-rule:evenodd;fill:#4072A2;}
	.st15{fill:#004C94;}
	.st16{fill:#272425;}
</style>
<polygon class="st0" points="0.9,13.7 5.2,13.7 8.7,27.1 12,14.4 15.6,14.4 19,27.1 22.4,13.7 26.7,13.7 21.1,33 17.2,33 13.7,20 
	10.4,33 6.5,33 "/>
<path class="st0" d="M28.8,24.9c0.2,3.1,2.9,4.8,5.5,4.8c2.2,0,3.7-1,4.6-2.6h4.7c-0.9,2.1-2.3,3.7-3.9,4.8
	c-1.6,1.1-3.5,1.7-5.4,1.7c-5.9,0-10.1-4.8-10.1-10.2c0-5.5,4.2-10.3,10-10.3c2.8,0,5.3,1.1,7.1,2.9c2.3,2.4,3.2,5.4,2.8,8.8H28.8z
	 M39.7,21.4c-0.2-1.8-2.1-4.4-5.4-4.3c-3.4,0-5.2,2.5-5.4,4.3H39.7z"/>
<path class="st0" d="M43.5,7H48v6.8v2.3c1.9-2.3,4.6-3,6.3-3c4.5,0,9.5,3.3,9.5,10.1c0,6.5-4.5,10.3-9.7,10.3c-3,0-5.3-1.5-6.3-3.4
	V33h-4.4V7z M59.3,23.3c0-3.2-2.4-5.9-5.7-5.9c-3.5,0-5.8,2.8-5.8,5.9c0,3.2,2.2,6,5.7,6C57.2,29.3,59.3,26.3,59.3,23.3L59.3,23.3z"
	/>
<path class="st1" d="M64.6,13.6h4.3v2.8c1.4-1.9,3.6-3.4,6.7-3.4c6.7,0,9.5,5.7,9.5,10.4c0,5.5-3.9,10-9.4,10
	c-3.7,0-5.7-1.9-6.5-3.2v2.6v6.7h-4.5V13.6z M80.5,23.2c0-2.8-2-5.9-5.8-5.9c-1.7,0-3.1,0.7-4.1,1.8c-1,1.1-1.6,2.6-1.6,4.2
	c0,1.6,0.6,3.1,1.7,4.2c1,1.1,2.5,1.7,4.1,1.7C78.2,29.1,80.5,26.4,80.5,23.2L80.5,23.2z"/>
<path class="st1" d="M104.7,32.8h-4.5V30c-1.2,2.2-3.7,3.4-6.4,3.4c-6.1,0-9.7-4.8-9.7-10.2c0-6.1,4.3-10.2,9.7-10.2
	c3.5,0,5.6,1.9,6.4,3.4v-2.8h4.5V32.8z M88.6,23.3c0,2.4,1.7,5.8,5.8,5.8c2.5,0,4.2-1.3,5.1-3.1c0.5-0.8,0.7-1.8,0.7-2.7
	c0-0.9-0.1-1.9-0.5-2.7c-0.8-1.8-2.6-3.4-5.3-3.4C90.7,17.3,88.6,20.3,88.6,23.3L88.6,23.3z"/>
<polygon class="st1" points="110.2,32.1 103,13.6 107.9,13.6 112.5,26.4 117.1,13.6 122,13.6 112,39.5 107.1,39.5 "/>
<path class="st2" d="M136.7,1.4c-0.2-0.2-0.5-0.2-0.6,0l-11.9,12c-0.2,0.2-0.3,0.5-0.3,0.8V28c0,0.2,0.2,0.4,0.4,0.4H138
	c0.2,0,0.6-0.1,0.8-0.3l11.9-12c0.2-0.2,0.2-0.5,0-0.6L136.7,1.4z"/>
<path class="st0" d="M125.7,14.7h1.1v1.1c0.5-0.7,1.3-1.3,2.4-1.3c2.1,0,3.1,1.8,3.1,3.3c0,1.8-1.3,3.3-3.1,3.3
	c-1.3,0-2-0.7-2.3-1.2v1v2.3h-1.2V14.7z M131.1,17.8c0-1-0.7-2.2-2.2-2.2c-0.6,0-1.1,0.2-1.5,0.6c-0.4,0.4-0.6,0.9-0.6,1.6
	c0,0.6,0.2,1.2,0.6,1.5c0.4,0.4,0.9,0.6,1.5,0.6C130.2,20,131.1,19,131.1,17.8L131.1,17.8z"/>
<rect x="132.7" y="12.5" class="st0" width="1.2" height="8.5"/>
<path class="st0" d="M140.2,20.9h-1.1v-1c-0.3,0.6-1,1.2-2.1,1.1c-2,0-2.5-1.5-2.5-2.8v-3.6h1.2v3.4c0,1.1,0.4,1.9,1.6,1.9
	c1.2,0,1.7-0.8,1.7-1.8v-3.5h1.2V20.9z"/>
<path class="st0" d="M143.6,16.3c0-0.5-0.3-0.8-0.9-0.8c-0.6,0-0.9,0.4-0.9,0.8c0,0.5,0.5,0.7,1.1,0.9c0.9,0.3,2,0.5,2,1.9
	c0,1.2-1,2-2.2,2c-1,0-2.2-0.6-2.2-2h1.2c0,0.8,0.6,1,1.1,1c0.6,0,1-0.4,1-0.9c0-0.6-0.5-0.8-1.6-1.2c-0.9-0.3-1.5-0.7-1.5-1.6
	c0-1.2,0.9-1.9,2.1-1.9c0.8,0,2,0.4,2,1.8H143.6z"/>
<g>
	<polygon class="st3" points="105,43.7 127,43.7 124.4,53 105,53 	"/>
	<polygon class="st4" points="150.6,43.7 148,53 124.4,53 127,43.7 	"/>
	<path class="st0" d="M130.3,48.1c0-0.3,0.1-0.6,0.1-0.8c0-0.2,0-0.4-0.1-0.5c-0.1-0.1-0.1-0.3-0.2-0.3c-0.1-0.1-0.2-0.1-0.3-0.2
		c-0.1,0-0.2-0.1-0.3,0c-0.2,0-0.4,0-0.7,0.1c-0.2,0.1-0.4,0.2-0.6,0.4c-0.2,0.2-0.4,0.5-0.5,0.8c-0.2,0.3-0.3,0.7-0.4,1.1
		c-0.1,0.4-0.2,0.8-0.2,1.1c0,0.3,0,0.6,0.1,0.8c0.1,0.2,0.2,0.4,0.3,0.5c0.2,0.1,0.3,0.1,0.6,0.1c0.2,0,0.4,0,0.6-0.1
		c0.2-0.1,0.4-0.2,0.5-0.3c0.2-0.1,0.3-0.4,0.5-0.6c0.2-0.3,0.3-0.6,0.4-1h-0.8c-0.1,0.2-0.1,0.4-0.2,0.5c-0.1,0.1-0.2,0.3-0.3,0.3
		c-0.1,0.1-0.2,0.1-0.3,0.1c-0.2,0-0.3-0.1-0.4-0.2c-0.1-0.1-0.1-0.3-0.1-0.5c0-0.2,0-0.5,0.1-0.8c0.1-0.3,0.2-0.6,0.3-0.8
		c0.1-0.2,0.2-0.4,0.4-0.5c0.1-0.1,0.3-0.2,0.4-0.2c0.1,0,0.2,0,0.3,0.1c0.1,0.1,0.1,0.1,0.1,0.3c0,0.1,0,0.3,0,0.5H130.3z
		 M130.4,48.7c-0.1,0.4-0.2,0.8-0.2,1.1c0,0.3,0,0.6,0.1,0.8c0.1,0.2,0.2,0.4,0.4,0.5c0.2,0.1,0.4,0.1,0.6,0.1c0.2,0,0.5,0,0.7-0.1
		c0.2-0.1,0.4-0.2,0.6-0.5c0.2-0.2,0.4-0.5,0.5-0.8c0.2-0.3,0.3-0.7,0.4-1.1c0.1-0.4,0.2-0.8,0.2-1.1c0-0.3,0-0.6-0.1-0.8
		c-0.1-0.2-0.2-0.3-0.4-0.4c-0.2-0.1-0.4-0.1-0.6-0.1c-0.2,0-0.4,0-0.7,0.1c-0.2,0.1-0.4,0.2-0.6,0.4c-0.2,0.2-0.4,0.5-0.5,0.8
		C130.7,47.9,130.5,48.3,130.4,48.7 M131.2,48.7c0.1-0.3,0.2-0.6,0.3-0.8c0.1-0.2,0.2-0.4,0.4-0.5c0.1-0.1,0.3-0.2,0.4-0.2
		c0.2,0,0.3,0.1,0.4,0.2c0.1,0.1,0.1,0.3,0.1,0.5c0,0.2,0,0.5-0.1,0.8c-0.1,0.3-0.2,0.6-0.3,0.8c-0.1,0.2-0.2,0.4-0.4,0.5
		c-0.1,0.1-0.3,0.2-0.4,0.2c-0.2,0-0.3-0.1-0.4-0.2c-0.1-0.1-0.1-0.3-0.1-0.5C131.1,49.3,131.1,49,131.2,48.7 M136.9,51.1h0.8
		c0.1-0.5,0.2-1.1,0.4-1.6c0.1-0.5,0.2-1.1,0.4-1.6c0.1-0.3,0.1-0.6,0.1-0.8c0-0.2,0-0.4-0.1-0.5c-0.1-0.1-0.1-0.2-0.2-0.3
		c-0.1-0.1-0.2-0.1-0.3-0.1c-0.2,0-0.4,0.1-0.6,0.2c-0.2,0.1-0.4,0.4-0.5,0.6c0-0.2,0-0.3-0.1-0.5c0-0.1-0.1-0.2-0.2-0.3
		c-0.1-0.1-0.2-0.1-0.3-0.1c-0.1,0-0.2,0-0.3,0.1c-0.1,0-0.2,0.1-0.3,0.2c-0.1,0.1-0.2,0.2-0.3,0.3c-0.1,0.1-0.2,0.2-0.2,0.3h0
		c0.1-0.2,0.1-0.4,0.2-0.7h-0.7c-0.2,0.8-0.4,1.5-0.6,2.3c-0.2,0.8-0.4,1.6-0.6,2.4h0.8c0.1-0.4,0.2-0.9,0.3-1.3
		c0.1-0.4,0.2-0.8,0.3-1.3c0-0.2,0.1-0.3,0.2-0.5c0.1-0.1,0.1-0.2,0.2-0.3c0.1-0.1,0.2-0.2,0.2-0.2c0.1,0,0.2-0.1,0.2-0.1
		c0.1,0,0.1,0,0.2,0c0,0,0.1,0.1,0.1,0.1c0,0.1,0,0.1,0,0.2c0,0.1,0,0.2-0.1,0.4c-0.1,0.5-0.2,0.9-0.3,1.4c-0.1,0.5-0.2,0.9-0.3,1.4
		h0.8c0.1-0.4,0.2-0.9,0.3-1.3c0.1-0.4,0.2-0.8,0.3-1.3c0-0.2,0.1-0.3,0.2-0.5c0.1-0.1,0.1-0.2,0.2-0.3c0.1-0.1,0.1-0.2,0.2-0.2
		c0.1,0,0.2-0.1,0.2-0.1c0.1,0,0.1,0,0.2,0c0,0,0.1,0.1,0.1,0.1c0,0.1,0,0.1,0.1,0.2c0,0.1,0,0.2,0,0.4c-0.1,0.5-0.2,0.9-0.3,1.4
		C137.1,50.1,137,50.6,136.9,51.1 M139.5,48.7c0-0.2,0.1-0.4,0.2-0.6c0.1-0.2,0.2-0.3,0.2-0.4c0.1-0.1,0.2-0.2,0.3-0.3
		c0.1-0.1,0.2-0.1,0.3-0.1c0.1,0,0.2,0,0.3,0.1c0.1,0.1,0.1,0.1,0.2,0.3c0,0.1,0.1,0.3,0.1,0.4c0,0.2,0,0.4-0.1,0.6
		c-0.1,0.2-0.1,0.4-0.2,0.6c-0.1,0.2-0.2,0.3-0.3,0.4c-0.1,0.1-0.2,0.2-0.3,0.3c-0.1,0.1-0.2,0.1-0.3,0.1c-0.1,0-0.2,0-0.3-0.1
		c-0.1-0.1-0.1-0.1-0.2-0.3c0-0.1-0.1-0.3-0.1-0.4C139.4,49.2,139.4,49,139.5,48.7 M137.8,52.8h0.8c0.1-0.4,0.2-0.8,0.3-1.2
		c0.1-0.4,0.2-0.8,0.3-1.1h0c0,0.1,0.1,0.3,0.1,0.4c0.1,0.1,0.1,0.2,0.2,0.2c0.1,0.1,0.2,0.1,0.4,0.1c0.2,0,0.4-0.1,0.6-0.2
		c0.2-0.1,0.4-0.3,0.5-0.5c0.2-0.2,0.3-0.5,0.4-0.8c0.1-0.3,0.2-0.7,0.3-1c0.1-0.4,0.1-0.8,0.1-1.1c0-0.3,0-0.6-0.1-0.8
		c-0.1-0.2-0.2-0.4-0.3-0.5c-0.1-0.1-0.3-0.2-0.5-0.2c-0.1,0-0.2,0-0.3,0.1c-0.1,0-0.2,0.1-0.3,0.2c-0.1,0.1-0.2,0.3-0.4,0.5h0
		c0-0.2,0.1-0.4,0.1-0.6h-0.7c-0.2,1-0.5,2.1-0.7,3.2C138.3,50.7,138.1,51.7,137.8,52.8 M141.6,51.1h0.8c0.1-0.3,0.1-0.7,0.2-1
		c0.1-0.3,0.1-0.7,0.2-1c0.1-0.3,0.1-0.6,0.2-0.8c0.1-0.2,0.2-0.4,0.4-0.5c0.1-0.1,0.3-0.2,0.5-0.2c0.1,0,0.1,0,0.2,0
		c0.1,0,0.1,0.1,0.2,0.1c0.1-0.5,0.2-0.9,0.3-1.4c0,0-0.1,0-0.1,0c0,0-0.1,0-0.1,0c-0.1,0-0.2,0-0.3,0.1c-0.1,0-0.2,0.1-0.3,0.2
		c-0.1,0.1-0.2,0.2-0.3,0.3c-0.1,0.1-0.2,0.3-0.3,0.5h0c0.1-0.3,0.1-0.6,0.2-0.9h-0.7c-0.2,0.8-0.3,1.5-0.5,2.3
		C141.9,49.5,141.8,50.3,141.6,51.1 M146.2,49.2c0,0.2-0.1,0.3-0.1,0.4c-0.1,0.1-0.1,0.2-0.2,0.3c-0.1,0.1-0.2,0.2-0.2,0.2
		c-0.1,0.1-0.2,0.1-0.2,0.1c-0.1,0-0.2,0-0.2,0c-0.1,0-0.2,0-0.2-0.1c-0.1-0.1-0.1-0.1-0.1-0.2c0-0.1,0-0.2,0-0.4
		c0-0.1,0.1-0.2,0.1-0.3c0-0.1,0.1-0.1,0.2-0.2c0.1,0,0.1-0.1,0.2-0.1c0.2,0,0.3-0.1,0.5-0.1c0.1,0,0.2,0,0.2-0.1
		c0.1,0,0.2-0.1,0.2-0.1C146.3,48.9,146.2,49,146.2,49.2 M145.3,47.8c0.1-0.2,0.1-0.3,0.2-0.4c0.1-0.1,0.1-0.2,0.2-0.2
		c0.1,0,0.1-0.1,0.2-0.1c0.1,0,0.1,0,0.2,0c0.1,0,0.3,0,0.3,0.1c0.1,0,0.1,0.1,0.1,0.2c0,0.1,0,0.2,0,0.3c0,0.1-0.1,0.2-0.1,0.3
		c0,0.1-0.1,0.1-0.1,0.1c0,0-0.1,0-0.2,0.1c-0.3,0-0.6,0.1-0.8,0.1c-0.1,0-0.2,0-0.3,0.1c-0.1,0-0.2,0.1-0.3,0.1
		c-0.1,0.1-0.2,0.1-0.3,0.3c-0.1,0.1-0.2,0.2-0.2,0.4c-0.1,0.2-0.1,0.4-0.2,0.6c-0.1,0.3-0.1,0.5-0.1,0.7c0,0.2,0,0.4,0.1,0.5
		c0.1,0.1,0.2,0.2,0.3,0.3c0.1,0.1,0.2,0.1,0.4,0.1c0.1,0,0.2,0,0.3,0c0.1,0,0.2-0.1,0.3-0.1c0.1-0.1,0.2-0.1,0.3-0.2
		c0.1-0.1,0.2-0.2,0.3-0.3c0,0.1,0,0.2,0,0.2c0,0.1,0,0.2,0,0.3h0.8c0-0.1,0-0.3,0-0.4c0-0.2,0-0.3,0.1-0.5c0.1-0.4,0.2-0.8,0.2-1.2
		c0.1-0.4,0.1-0.8,0.2-1.2c0-0.2,0.1-0.3,0.1-0.5c0-0.2,0-0.3,0-0.4c0-0.1-0.1-0.2-0.2-0.3c-0.1-0.1-0.2-0.2-0.3-0.2
		c-0.1-0.1-0.3-0.1-0.5-0.1c-0.1,0-0.2,0-0.4,0c-0.1,0-0.2,0.1-0.4,0.1c-0.1,0.1-0.2,0.1-0.4,0.3c-0.1,0.1-0.2,0.3-0.3,0.5
		c-0.1,0.2-0.2,0.4-0.3,0.7H145.3z"/>
	<path class="st0" d="M114.3,46c0.4,0,0.9,0,1.3,0c0.1,0,0.1,0,0.2,0c0.1,0,0.1,0.1,0.1,0.1c0,0.1,0.1,0.1,0.1,0.2
		c0,0.1,0,0.2-0.1,0.4c0,0.1-0.1,0.3-0.2,0.4c-0.1,0.1-0.1,0.2-0.2,0.3c-0.1,0.1-0.1,0.1-0.2,0.1c-0.1,0-0.1,0-0.2,0h-1.3
		C114,47,114.2,46.5,114.3,46 M113.1,46.7H105v0.8h7.9l-0.1,0.4l-7.7,0v0.8h7.5l-0.1,0.4H105v0.8h7.1l-0.2,0.5h-7l0,0.8h6.7h0h0h0h0
		h0h0h0h0h0h0h0h0h0h0h0h0h0h0h0h0h0h0h0h0h0h0h0h0h0h0h0h0h0h0h0h0h0h0h0.5l0.8-2.3c0.4,0,0.8,0,1.2,0c0.1,0,0.1,0,0.2,0
		c0.1,0,0.1,0.1,0.1,0.2c0,0.1,0,0.2,0,0.3c0,0.1-0.1,0.3-0.1,0.5c-0.1,0.2-0.1,0.3-0.1,0.4c0,0.1-0.1,0.2-0.1,0.3
		c0,0.1,0,0.2,0,0.3c0,0.1,0,0.1,0,0.2h1.1c0-0.1,0-0.2,0-0.3c0-0.1,0-0.3,0.1-0.4c0-0.1,0.1-0.3,0.1-0.4c0-0.1,0.1-0.2,0.1-0.3
		c0-0.1,0.1-0.3,0.1-0.4c0-0.1,0.1-0.3,0.1-0.4c0-0.1,0-0.3,0-0.4c0-0.1,0-0.2-0.1-0.3c0-0.1-0.1-0.1-0.2-0.2c0,0,0,0,0,0
		c0.2-0.1,0.5-0.3,0.6-0.6c0.2-0.3,0.3-0.6,0.4-1c0-0.1,0.1-0.3,0.1-0.4c0-0.2,0-0.3,0-0.5c0-0.2,0-0.3-0.1-0.4
		c-0.1-0.1-0.1-0.2-0.3-0.3c-0.1-0.1-0.3-0.1-0.5-0.1c-0.9,0-1.8,0-2.7,0L113.1,46.7z M119.1,49.7c-0.1,0.2-0.3,0.4-0.4,0.5
		c-0.2,0.1-0.3,0.2-0.5,0.2c-0.2,0-0.3,0-0.4-0.1c-0.1-0.1-0.2-0.2-0.2-0.3c0-0.1-0.1-0.2,0-0.4c0-0.1,0-0.3,0.1-0.4c0,0,0,0,0,0
		h2.7c0,0,0-0.1,0-0.1c0.2-0.6,0.3-1.1,0.3-1.5c0-0.4-0.1-0.7-0.3-1c-0.2-0.2-0.5-0.3-0.9-0.3c-0.3,0-0.5,0-0.8,0.1
		c-0.3,0.1-0.5,0.2-0.7,0.5c-0.2,0.2-0.4,0.5-0.6,0.8c-0.2,0.3-0.3,0.7-0.5,1.2c-0.1,0.4-0.2,0.8-0.2,1.2c0,0.3,0,0.6,0.1,0.8
		c0.1,0.2,0.3,0.4,0.4,0.5c0.2,0.1,0.4,0.1,0.7,0.1c0.3,0,0.6-0.1,0.8-0.2c0.3-0.1,0.5-0.3,0.8-0.5c0.2-0.2,0.5-0.5,0.7-0.9H119.1z
		 M117.9,48.2C117.9,48.2,117.9,48.2,117.9,48.2c0,0,0-0.1,0.1-0.2c0-0.1,0.1-0.2,0.2-0.3c0.1-0.1,0.2-0.2,0.2-0.3
		c0.1-0.1,0.2-0.2,0.3-0.2c0.1-0.1,0.3-0.1,0.4-0.1c0.1,0,0.2,0,0.3,0.1c0.1,0.1,0.1,0.1,0.2,0.2c0,0.1,0.1,0.2,0.1,0.3
		c0,0.1,0,0.2,0,0.3c0,0.1,0,0.2,0,0.2c0,0,0,0,0,0H117.9z M121.7,48.7c0.1-0.2,0.2-0.4,0.2-0.6c0.1-0.2,0.2-0.3,0.3-0.4
		c0.1-0.1,0.2-0.2,0.4-0.3c0.1-0.1,0.2-0.1,0.4-0.1c0.1,0,0.2,0,0.3,0.1c0.1,0.1,0.2,0.1,0.2,0.3c0,0.1,0.1,0.3,0.1,0.4
		c0,0.2,0,0.4-0.1,0.6c-0.1,0.2-0.1,0.4-0.2,0.6c-0.1,0.2-0.2,0.3-0.3,0.4c-0.1,0.1-0.2,0.2-0.4,0.3c-0.1,0.1-0.2,0.1-0.4,0.1
		c-0.1,0-0.2,0-0.3-0.1c-0.1-0.1-0.2-0.1-0.2-0.3c0-0.1-0.1-0.3-0.1-0.4C121.6,49.2,121.6,49,121.7,48.7 M122.7,51.1h0.9
		c0.3-1.1,0.6-2.2,1-3.2c0.3-1.1,0.6-2.1,0.9-3.2h-0.9c-0.1,0.4-0.2,0.8-0.3,1.1c-0.1,0.4-0.2,0.8-0.3,1.1h0c0-0.1-0.1-0.3-0.1-0.4
		c-0.1-0.1-0.2-0.2-0.3-0.2c-0.1-0.1-0.3-0.1-0.4-0.1c-0.2,0-0.4,0.1-0.7,0.2c-0.2,0.1-0.4,0.3-0.7,0.5c-0.2,0.2-0.4,0.5-0.6,0.8
		c-0.2,0.3-0.3,0.7-0.4,1.1c-0.1,0.4-0.2,0.8-0.2,1.1c0,0.3,0,0.6,0.1,0.8c0.1,0.2,0.2,0.4,0.4,0.5c0.2,0.1,0.3,0.2,0.6,0.2
		c0.1,0,0.3,0,0.4-0.1c0.1,0,0.3-0.1,0.4-0.2c0.2-0.1,0.3-0.3,0.5-0.5h0C122.9,50.7,122.8,50.9,122.7,51.1"/>
	<rect x="22.1" y="43.9" class="st0" width="14.5" height="9.2"/>
	<polygon class="st5" points="28.7,50.4 27.7,50.4 28.3,46.4 29.4,46.4 	"/>
	<path class="st5" d="M26.9,46.4l-1,2.7l-0.1-0.6h0l-0.3-1.8c0,0,0-0.4-0.5-0.4h-1.6l0,0.1c0,0,0.5,0.1,1.1,0.5l0.9,3.4h1.1l1.6-3.9
		H26.9z"/>
	<path class="st5" d="M34.9,50.4h0.9l-0.8-4h-0.8c-0.4,0-0.5,0.3-0.5,0.3l-1.5,3.7h1.1l0.2-0.6h1.3L34.9,50.4z M33.7,49l0.5-1.5
		l0.3,1.5H33.7z"/>
	<path class="st5" d="M32.3,47.4l0.1-0.8c0,0-0.4-0.2-0.9-0.2c-0.5,0-1.7,0.2-1.7,1.3c0,1,1.4,1,1.4,1.6c0,0.5-1.3,0.4-1.7,0.1
		l-0.2,0.9c0,0,0.5,0.2,1.1,0.2c0.7,0,1.7-0.4,1.7-1.4c0-1-1.4-1.1-1.4-1.6C30.8,47.1,31.8,47.1,32.3,47.4"/>
	<path class="st6" d="M25.8,48.6l-0.3-1.8c0,0,0-0.4-0.5-0.4h-1.6l0,0.1c0,0,0.8,0.2,1.5,0.8C25.5,47.8,25.8,48.6,25.8,48.6"/>
	<path class="st7" d="M36.8,53.3H21.9v-9.6h14.9V53.3z M22.3,52.9h14.1v-8.8H22.3V52.9z"/>
	<rect x="38.6" y="43.9" class="st8" width="14.5" height="9.2"/>
	<path class="st9" d="M46,51.4c0.7,0.6,1.6,1,2.7,1c2.2,0,4-1.8,4-4c0-2.2-1.8-4-4-4c-1,0-2,0.4-2.7,1c-0.8,0.7-1.3,1.8-1.3,3
		C44.7,49.6,45.2,50.7,46,51.4"/>
	<path class="st9" d="M52.2,50.7c0-0.1,0.1-0.1,0.1-0.1c0.1,0,0.1,0.1,0.1,0.1c0,0.1-0.1,0.1-0.1,0.1C52.2,50.8,52.2,50.7,52.2,50.7
		 M52.3,50.8c0,0,0.1,0,0.1-0.1c0-0.1,0-0.1-0.1-0.1c-0.1,0-0.1,0-0.1,0.1C52.2,50.7,52.2,50.8,52.3,50.8 M52.3,50.7L52.3,50.7
		l0-0.1h0c0,0,0,0,0,0C52.3,50.6,52.3,50.6,52.3,50.7C52.3,50.7,52.3,50.7,52.3,50.7L52.3,50.7L52.3,50.7L52.3,50.7L52.3,50.7
		L52.3,50.7z M52.3,50.7L52.3,50.7L52.3,50.7C52.3,50.7,52.3,50.6,52.3,50.7C52.3,50.6,52.3,50.6,52.3,50.7L52.3,50.7L52.3,50.7
		L52.3,50.7z"/>
	<path class="st10" d="M47.3,48c0-0.1,0-0.3-0.1-0.4h-2.4c0-0.1,0.1-0.3,0.1-0.4h2.2c0-0.1-0.1-0.3-0.2-0.4h-1.9
		c0.1-0.1,0.1-0.3,0.2-0.4h1.4c-0.1-0.2-0.2-0.3-0.3-0.4h-0.8c0.1-0.1,0.3-0.3,0.4-0.4c-0.7-0.6-1.6-1-2.7-1c-2.2,0-4,1.8-4,4
		c0,2.2,1.8,4,4,4c1,0,2-0.4,2.7-1c0.1-0.1,0.3-0.3,0.4-0.4h-0.8c-0.1-0.1-0.2-0.3-0.3-0.4h1.4c0.1-0.1,0.2-0.3,0.2-0.4h-1.9
		C45,50,45,49.9,44.9,49.7h2.2c0-0.1,0.1-0.3,0.1-0.4c0-0.1,0.1-0.3,0.1-0.4c0-0.1,0-0.3,0-0.4C47.3,48.3,47.3,48.1,47.3,48"/>
	<path class="st11" d="M52.2,49.4c0-0.1,0.1-0.1,0.1-0.1c0.1,0,0.1,0.1,0.1,0.1c0,0.1-0.1,0.1-0.1,0.1
		C52.2,49.5,52.2,49.4,52.2,49.4 M52.3,49.5c0,0,0.1,0,0.1-0.1c0-0.1,0-0.1-0.1-0.1c-0.1,0-0.1,0-0.1,0.1
		C52.2,49.4,52.2,49.5,52.3,49.5 M52.3,49.4L52.3,49.4l0-0.1h0c0,0,0,0,0,0C52.3,49.3,52.3,49.3,52.3,49.4
		C52.3,49.3,52.3,49.4,52.3,49.4L52.3,49.4L52.3,49.4L52.3,49.4L52.3,49.4L52.3,49.4z M52.3,49.3L52.3,49.3L52.3,49.3
		C52.3,49.3,52.3,49.3,52.3,49.3C52.3,49.3,52.3,49.3,52.3,49.3L52.3,49.3L52.3,49.3L52.3,49.3z"/>
	<path class="st8" d="M44.7,49.6c-0.1,0-0.2,0.1-0.3,0.1c-0.2,0-0.3-0.1-0.3-0.4c0,0,0-0.1,0-0.2l0-0.2l0-0.1l0.2-1.1h0.4l0,0.3h0.3
		l-0.1,0.4h-0.3L44.5,49c0,0,0,0,0,0.1c0,0.1,0,0.1,0.1,0.1c0.1,0,0.1,0,0.1,0L44.7,49.6z"/>
	<path class="st8" d="M46,49.6c-0.1,0-0.3,0.1-0.4,0.1c-0.5,0-0.7-0.3-0.7-0.7c0-0.6,0.3-1,0.8-1c0.4,0,0.6,0.2,0.6,0.6
		c0,0.1,0,0.2-0.1,0.4h-0.9v0c0,0.2,0.1,0.3,0.4,0.3c0.2,0,0.3,0,0.5-0.1L46,49.6z M45.8,48.6L45.8,48.6c0-0.2-0.1-0.3-0.2-0.3
		c-0.1,0-0.2,0.1-0.3,0.3H45.8z"/>
	<polygon class="st8" points="41.4,49.6 40.9,49.6 41.2,48 40.6,49.6 40.3,49.6 40.3,48 40,49.6 39.6,49.6 40,47.6 40.6,47.6 
		40.6,48.8 41,47.6 41.7,47.6 	"/>
	<path class="st8" d="M42.4,48.9C42.4,48.9,42.4,48.9,42.4,48.9c-0.3,0-0.5,0.1-0.5,0.2c0,0.1,0.1,0.2,0.2,0.2
		C42.3,49.3,42.4,49.1,42.4,48.9 M42.8,49.6h-0.4l0-0.2c-0.1,0.1-0.2,0.2-0.5,0.2c-0.2,0-0.4-0.2-0.4-0.5c0-0.1,0-0.1,0-0.2
		c0.1-0.3,0.3-0.4,0.7-0.4c0,0,0.1,0,0.2,0c0-0.1,0-0.1,0-0.1c0-0.1-0.1-0.1-0.3-0.1c-0.1,0-0.3,0-0.4,0l-0.1,0h0l0.1-0.4
		c0.2-0.1,0.3-0.1,0.5-0.1c0.4,0,0.6,0.2,0.6,0.5c0,0.1,0,0.1,0,0.3l-0.1,0.6l0,0.1l0,0.1L42.8,49.6L42.8,49.6z"/>
	<path class="st8" d="M48.1,48c0.1,0,0.2,0,0.4,0.1l0.1-0.4c0,0,0,0-0.1,0l-0.2,0c-0.1,0-0.1,0-0.2,0c-0.2,0-0.3,0-0.5,0.1
		c-0.1,0-0.2,0.1-0.3,0.2l0,0l-0.4,0.3l0-0.2h-0.5l-0.3,1.7h0.4l0.2-0.9c0,0,0.1-0.1,0.1-0.2c0.1-0.1,0.1-0.1,0.2-0.1h0
		c0,0.1,0,0.2,0,0.3c0,0.5,0.3,0.9,0.8,0.9c0.1,0,0.2,0,0.4-0.1l0.1-0.5c-0.1,0.1-0.3,0.1-0.4,0.1c-0.3,0-0.4-0.2-0.4-0.5
		C47.5,48.3,47.8,48,48.1,48"/>
	<path class="st8" d="M51.7,47.6l-0.1,0.6c-0.1-0.2-0.2-0.2-0.4-0.2c-0.2,0-0.4,0.1-0.6,0.4l-0.3-0.2l0-0.2H50l-0.3,1.7h0.4l0.1-0.9
		c0,0,0.1-0.1,0.1-0.2c0.1-0.1,0.1-0.1,0.2-0.1c0,0.1-0.1,0.3-0.1,0.5c0,0.4,0.2,0.7,0.5,0.7c0.2,0,0.3-0.1,0.4-0.2l0,0.2h0.4l0.3-2
		H51.7z M51.2,49.2c-0.1,0-0.2-0.1-0.2-0.3c0-0.3,0.1-0.6,0.3-0.6c0.1,0,0.2,0.1,0.2,0.3C51.6,49,51.4,49.2,51.2,49.2"/>
	<path class="st8" d="M49.2,48.9C49.2,48.9,49.2,48.9,49.2,48.9c-0.3,0-0.5,0.1-0.5,0.2c0,0.1,0.1,0.2,0.2,0.2
		C49.1,49.3,49.2,49.1,49.2,48.9 M49.6,49.6h-0.4l0-0.2c-0.1,0.1-0.2,0.2-0.5,0.2c-0.2,0-0.4-0.2-0.4-0.5c0-0.4,0.3-0.6,0.8-0.6
		c0,0,0.1,0,0.2,0c0-0.1,0-0.1,0-0.1c0-0.1-0.1-0.1-0.3-0.1c-0.1,0-0.3,0-0.4,0l-0.1,0h0l0.1-0.4c0.2-0.1,0.3-0.1,0.5-0.1
		c0.4,0,0.6,0.2,0.6,0.5c0,0.1,0,0.1,0,0.3l-0.1,0.6l0,0.1l0,0.1L49.6,49.6L49.6,49.6z"/>
	<path class="st8" d="M43.7,48.3c0.1,0,0.2,0,0.3,0l0.1-0.4c-0.1,0-0.3,0-0.4,0c-0.5,0-0.6,0.3-0.6,0.6c0,0.2,0.1,0.3,0.3,0.4
		c0.2,0.1,0.2,0.1,0.2,0.2c0,0.1-0.1,0.2-0.3,0.2c-0.1,0-0.2,0-0.4-0.1l0,0.4h0l0.1,0c0,0,0.1,0,0.1,0c0.1,0,0.2,0,0.2,0
		c0.5,0,0.7-0.2,0.7-0.6c0-0.2-0.1-0.4-0.3-0.5c-0.2-0.1-0.2-0.1-0.2-0.2C43.4,48.4,43.5,48.3,43.7,48.3"/>
	<path class="st11" d="M48.7,47.5l-0.1,0.4c-0.2-0.1-0.3-0.1-0.4-0.1c-0.3,0-0.6,0.3-0.6,0.8c0,0.3,0.2,0.5,0.4,0.5
		c0.1,0,0.2,0,0.4-0.1l-0.1,0.5c-0.2,0-0.3,0.1-0.4,0.1c-0.5,0-0.7-0.3-0.7-0.9c0-0.7,0.4-1.2,1-1.2c0.1,0,0.1,0,0.2,0l0.2,0
		C48.6,47.5,48.6,47.5,48.7,47.5"/>
	<path class="st11" d="M47.3,47.8C47.3,47.8,47.2,47.8,47.3,47.8c-0.2,0-0.3,0.1-0.4,0.3l0-0.3h-0.4l-0.3,1.7h0.4
		c0.2-1,0.2-1.2,0.4-1.2h0C47.2,48.1,47.2,47.9,47.3,47.8L47.3,47.8z"/>
	<path class="st11" d="M44.8,49.5c-0.1,0-0.2,0.1-0.3,0.1c-0.2,0-0.3-0.1-0.3-0.4c0,0,0-0.1,0-0.2l0-0.2l0-0.1l0.2-1.1h0.4l0,0.2H45
		l-0.1,0.4h-0.2l-0.1,0.7c0,0,0,0.1,0,0.1c0,0.1,0,0.1,0.1,0.1c0.1,0,0.1,0,0.1,0L44.8,49.5z"/>
	<path class="st11" d="M43.1,48.3c0,0.2,0.1,0.4,0.3,0.5c0.2,0.1,0.2,0.1,0.2,0.2c0,0.1-0.1,0.1-0.3,0.1c-0.1,0-0.2,0-0.4-0.1
		L43,49.5h0l0.1,0c0,0,0.1,0,0.1,0c0.1,0,0.2,0,0.2,0c0.5,0,0.7-0.2,0.7-0.6c0-0.2-0.1-0.4-0.3-0.5c-0.2-0.1-0.2-0.1-0.2-0.2
		c0-0.1,0.1-0.1,0.2-0.1c0.1,0,0.2,0,0.3,0l0.1-0.4c-0.1,0-0.3,0-0.4,0C43.3,47.8,43.1,48,43.1,48.3"/>
	<path class="st11" d="M52,49.5h-0.4l0-0.2c-0.1,0.1-0.2,0.2-0.4,0.2c-0.3,0-0.5-0.3-0.5-0.7c0-0.6,0.3-1,0.7-1
		c0.2,0,0.3,0.1,0.4,0.2l0.1-0.6h0.4L52,49.5z M51.3,49.1c0.2,0,0.3-0.2,0.3-0.6c0-0.2-0.1-0.3-0.2-0.3c-0.2,0-0.3,0.2-0.3,0.6
		C51.1,49,51.2,49.1,51.3,49.1"/>
	<path class="st11" d="M46.1,49.4c-0.1,0-0.3,0.1-0.4,0.1c-0.5,0-0.7-0.3-0.7-0.7c0-0.6,0.3-1,0.8-1c0.4,0,0.6,0.2,0.6,0.6
		c0,0.1,0,0.2,0,0.4h-0.9c0,0,0,0,0,0c0,0.2,0.1,0.3,0.4,0.3c0.1,0,0.3,0,0.4-0.1L46.1,49.4z M45.9,48.5L45.9,48.5
		c0-0.2-0.1-0.3-0.2-0.3c-0.1,0-0.2,0.1-0.3,0.3H45.9z"/>
	<polygon class="st11" points="41.5,49.5 41.1,49.5 41.3,47.9 40.8,49.5 40.5,49.5 40.4,47.9 40.2,49.5 39.8,49.5 40.1,47.4 
		40.7,47.4 40.7,48.7 41.1,47.4 41.8,47.4 	"/>
	<path class="st11" d="M42.6,48.7c0,0-0.1,0-0.1,0c-0.2,0-0.4,0.1-0.4,0.3c0,0.1,0.1,0.2,0.2,0.2C42.4,49.2,42.5,49,42.6,48.7
		 M42.9,49.5h-0.4l0-0.2c-0.1,0.1-0.3,0.2-0.5,0.2c-0.2,0-0.4-0.2-0.4-0.4c0-0.4,0.3-0.6,0.8-0.6c0,0,0.1,0,0.2,0c0,0,0-0.1,0-0.1
		c0-0.1-0.1-0.2-0.3-0.2c-0.1,0-0.3,0-0.4,0l-0.1,0l0,0l0.1-0.4c0.2-0.1,0.4-0.1,0.5-0.1c0.4,0,0.6,0.2,0.6,0.5c0,0.1,0,0.2,0,0.3
		l-0.1,0.6l0,0.1l0,0.1L42.9,49.5L42.9,49.5z"/>
	<path class="st11" d="M49.4,48.7c0,0-0.1,0-0.1,0c-0.2,0-0.4,0.1-0.4,0.3c0,0.1,0.1,0.2,0.2,0.2C49.2,49.2,49.4,49,49.4,48.7
		 M49.7,49.5h-0.4l0-0.2c-0.1,0.1-0.3,0.2-0.5,0.2c-0.2,0-0.4-0.2-0.4-0.4c0-0.4,0.3-0.6,0.8-0.6c0,0,0.1,0,0.2,0c0,0,0-0.1,0-0.1
		c0-0.1-0.1-0.2-0.3-0.2c-0.1,0-0.3,0-0.4,0l-0.1,0l0,0l0.1-0.4c0.2-0.1,0.4-0.1,0.5-0.1c0.4,0,0.6,0.2,0.6,0.5c0,0.1,0,0.2,0,0.3
		l-0.1,0.6l0,0.1l0,0.1L49.7,49.5L49.7,49.5z"/>
	<path class="st11" d="M50.8,47.8C50.8,47.8,50.8,47.8,50.8,47.8c-0.2,0-0.3,0.1-0.4,0.3l0-0.3h-0.4l-0.3,1.7h0.4
		c0.1-1,0.2-1.2,0.4-1.2h0C50.7,48.1,50.8,47.9,50.8,47.8L50.8,47.8z"/>
	<path class="st7" d="M53.5,53.3H38.6v-9.6h14.9V53.3z M39,52.9h14.1v-8.8H39V52.9z"/>
	<rect x="55.4" y="43.8" class="st12" width="14.6" height="9.3"/>
	<polygon class="st13" points="56.1,49.4 57.7,46.9 69.3,46.9 67.7,49.4 	"/>
	<polygon class="st11" points="56.6,49.2 57.9,47.2 58.3,47.2 58.3,48.5 59.1,47.2 59.5,47.2 59.5,49.2 59.1,49.2 59.1,47.8 
		58.3,49.2 57.9,49.2 57.9,47.8 57,49.2 	"/>
	<path class="st11" d="M59.6,49.2l0.8-2h0.3l0.8,2h-0.4L61,48.7h-0.7l-0.2,0.5H59.6z M60.4,48.3h0.4l-0.2-0.5L60.4,48.3z"/>
	<path class="st11" d="M62.3,48.2c0,0.1,0,0.3,0,0.4h0.8c-0.3,0.5-1.2,0.3-1.2-0.3c0-0.7,0.9-0.9,1.2-0.4h0.5
		c-0.1-0.4-0.4-0.7-1-0.7c-0.6,0-1,0.4-1,1c0,0.6,0.5,1.1,1.1,1.1c0.5,0,1-0.4,1-1.1H62.3z"/>
	<polygon class="st11" points="63.8,49.2 64.2,49.2 64.2,47.8 65,49.2 65.4,49.2 65.4,47.2 65,47.2 65,48.6 64.2,47.2 63.8,47.2 	
		"/>
	<path class="st11" d="M66.2,48.7h0.7l0.2,0.5h0.4l-0.8-2h-0.3l-0.9,2h0.4L66.2,48.7z M66.5,47.8c0,0.1-0.2,0.5-0.2,0.5h0.4
		L66.5,47.8z"/>
	<polygon class="st13" points="59.6,43.8 57.8,46.7 69.4,46.7 70,45.7 70,45.6 69.4,46.7 57.9,46.7 59.7,43.8 	"/>
	<path class="st11" d="M68.2,47.2c0.2,0,0.3,0.1,0.3,0.3c0,0.2-0.1,0.3-0.3,0.3c-0.2,0-0.3-0.1-0.3-0.3
		C67.9,47.3,68.1,47.2,68.2,47.2 M68.2,47.2c0.1,0,0.2,0.1,0.2,0.2c0,0.1-0.1,0.2-0.2,0.2c-0.1,0-0.2-0.1-0.2-0.2
		C68,47.3,68.1,47.2,68.2,47.2"/>
	<path class="st0" d="M68.1,47.6v-0.3h0.1c0,0,0,0,0.1,0c0,0,0,0,0,0c0,0,0,0,0,0c0,0,0,0,0,0c0,0,0,0-0.1,0c0,0,0,0,0,0
		c0,0,0,0,0,0l0,0.1h0l0-0.1c0,0,0,0,0,0c0,0,0,0,0,0c0,0,0,0,0,0c0,0,0,0,0,0h0L68.1,47.6L68.1,47.6z M68.2,47.5L68.2,47.5
		c0.1,0,0.1,0,0.1,0c0,0,0,0,0,0c0,0,0,0,0,0c0,0,0,0,0,0C68.3,47.4,68.3,47.4,68.2,47.5L68.2,47.5L68.2,47.5z"/>
	<path class="st7" d="M70.2,53.3H55.3v-9.6h14.9V53.3z M55.7,52.9h14.1v-8.8H55.7V52.9z"/>
	<rect x="72" y="44.1" class="st0" width="14.5" height="9"/>
	<path class="st14" d="M74.6,52.5L74.6,52.5C74.6,52.5,74.6,52.5,74.6,52.5C74.6,52.5,74.6,52.5,74.6,52.5l-0.1-0.1v0.1h0v-0.2h0.1
		c0,0,0.1,0,0.1,0C74.6,52.4,74.6,52.4,74.6,52.5C74.6,52.5,74.6,52.5,74.6,52.5L74.6,52.5C74.6,52.5,74.6,52.5,74.6,52.5L74.6,52.5
		z M74.6,52.4C74.6,52.4,74.6,52.4,74.6,52.4L74.6,52.4L74.6,52.4L74.6,52.4C74.6,52.4,74.6,52.4,74.6,52.4 M74.7,52.4
		c0-0.1-0.1-0.2-0.2-0.2c-0.1,0-0.2,0.1-0.2,0.2c0,0.1,0.1,0.2,0.2,0.2C74.6,52.6,74.7,52.5,74.7,52.4 M74.7,52.4
		c0,0.1-0.1,0.1-0.2,0.1c-0.1,0-0.1-0.1-0.1-0.1c0-0.1,0.1-0.1,0.1-0.1C74.6,52.3,74.7,52.4,74.7,52.4"/>
	<path class="st14" d="M84.1,49.5c0,0.2-0.1,0.3-0.4,0.3h-0.5v-0.2h0.5c0,0,0.1,0,0.1,0c0,0,0,0,0-0.1c0,0,0-0.1,0-0.1
		c0,0,0,0-0.1,0c-0.2,0-0.5,0-0.5-0.3c0-0.2,0.1-0.3,0.4-0.3h0.5V49h-0.5c0,0-0.1,0-0.1,0c0,0,0,0,0,0.1c0,0,0,0.1,0.1,0.1
		c0,0,0.1,0,0.1,0h0.1c0.1,0,0.2,0,0.3,0.1C84.1,49.3,84.1,49.4,84.1,49.5 M83,49.3c-0.1-0.1-0.2-0.1-0.3-0.1h-0.1c0,0-0.1,0-0.1,0
		c0,0-0.1,0-0.1-0.1c0,0,0-0.1,0-0.1c0,0,0.1,0,0.1,0h0.5v-0.2h-0.5c-0.3,0-0.4,0.2-0.4,0.3c0,0.3,0.3,0.3,0.5,0.3c0,0,0.1,0,0.1,0
		c0,0,0,0,0,0.1c0,0,0,0.1,0,0.1c0,0-0.1,0-0.1,0h-0.5v0.2h0.5c0.3,0,0.4-0.1,0.4-0.3C83.1,49.4,83.1,49.3,83,49.3 M82.1,49.6h-0.6
		v-0.2H82v-0.2h-0.6V49h0.6v-0.2h-0.9v1.1h0.9V49.6z M80.9,48.8c-0.1,0-0.2-0.1-0.3-0.1H80v1.1h0.3v-0.4h0.3c0.1,0,0.1,0,0.2,0
		c0,0.1,0,0.1,0,0.2v0.1H81v-0.2c0-0.1,0-0.1,0-0.2c0,0-0.1-0.1-0.1-0.1c0.1,0,0.2-0.1,0.2-0.3C81.1,49,81,48.9,80.9,48.8
		 M79.5,48.8h-0.8l-0.3,0.4L78,48.8h-1v1.1h1l0.3-0.4l0.3,0.4h0.5v-0.4h0.3c0.2,0,0.4-0.1,0.4-0.4C79.9,48.8,79.7,48.8,79.5,48.8
		 M80.7,49.2c0,0-0.1,0-0.1,0l-0.3,0V49h0.3c0,0,0.1,0,0.1,0c0,0,0.1,0,0.1,0.1C80.8,49.2,80.8,49.2,80.7,49.2 M79.5,49.3h-0.3V49
		h0.3c0.1,0,0.2,0,0.2,0.1C79.6,49.2,79.6,49.3,79.5,49.3 M78.5,49.3l0.4-0.4v0.9L78.5,49.3z M77.9,49.6h-0.6v-0.2h0.6v-0.2h-0.6V49
		h0.6l0.3,0.3L77.9,49.6z M83.4,48H83l-0.5-0.8V48H82l-0.1-0.2h-0.5L81.3,48H81c-0.1,0-0.3,0-0.4-0.1c-0.1-0.1-0.1-0.2-0.1-0.4
		c0-0.2,0-0.3,0.1-0.4c0.1-0.1,0.2-0.1,0.4-0.1h0.2v0.2H81c-0.1,0-0.1,0-0.2,0.1c0,0-0.1,0.1-0.1,0.2c0,0.1,0,0.2,0.1,0.3
		c0,0,0.1,0.1,0.2,0.1h0.1l0.4-0.9h0.4l0.4,1v-1h0.4l0.5,0.8v-0.8h0.3V48z M80.4,46.9h-0.3V48h0.3V46.9z M79.8,47
		c-0.1,0-0.2,0-0.3,0h-0.6V48h0.3v-0.4h0.3c0.1,0,0.2,0,0.2,0c0,0.1,0,0.1,0,0.2V48H80v-0.2c0-0.1,0-0.1,0-0.2c0,0-0.1-0.1-0.1-0.1
		c0.1,0,0.2-0.1,0.2-0.3C80,47.1,79.9,47,79.8,47 M78.7,47.8h-0.6v-0.2h0.6v-0.2h-0.6v-0.2h0.6v-0.2h-0.9V48h0.9V47.8z M77.7,46.9
		h-0.4L77,47.7l-0.3-0.7h-0.4v1l-0.4-1h-0.4L74.9,48h0.3l0.1-0.2h0.5l0.1,0.2h0.5v-0.8l0.4,0.8h0.2l0.4-0.8V48h0.3V46.9z M81.8,47.5
		l-0.2-0.4l-0.2,0.4H81.8z M79.6,47.4c0,0-0.1,0-0.1,0h-0.3v-0.2h0.3c0,0,0.1,0,0.1,0C79.7,47.2,79.7,47.2,79.6,47.4
		C79.7,47.3,79.7,47.3,79.6,47.4 M75.4,47.5l0.2-0.4l0.2,0.4H75.4z M84.1,43.8h-9.1v3.6l0.3-0.7h0.7l0.1,0.2v-0.2h0.8l0.2,0.4
		l0.2-0.4h2.5c0.1,0,0.2,0,0.3,0.1v-0.1h0.7v0.1c0.1-0.1,0.3-0.1,0.4-0.1h1l0.1,0.2v-0.2h0.7l0.1,0.2v-0.2h0.7v1.5h-0.7L82.8,48v0.2
		h-0.9L81.8,48h-0.2l-0.1,0.2H81c-0.2,0-0.3,0-0.4-0.1v0.1h-1.1v-0.3c0,0,0-0.1,0-0.1h0v0.4h-2.1V48l-0.1,0.2h-0.5L76.6,48v0.2h-0.9
		L75.7,48h-0.2l-0.1,0.2h-0.4V53h9.1v-3c-0.1,0-0.2,0.1-0.4,0.1H83V50c-0.1,0.1-0.2,0.1-0.3,0.1h-2.1v-0.3c0,0,0,0,0,0h0v0.4h-0.7
		v-0.4c-0.1,0.1-0.2,0.1-0.4,0.1h-0.1v0.4h-0.8l-0.2-0.2l-0.2,0.2h-1.4v-1.5h1.4l0.2,0.2l0.2-0.2h0.9c0.1,0,0.3,0,0.4,0.1v-0.1h0.8
		c0.1,0,0.2,0,0.4,0.1v-0.1h1.2v0.1c0.1-0.1,0.2-0.1,0.3-0.1h0.7v0.1c0.1-0.1,0.2-0.1,0.3-0.1h0.5V43.8z"/>
	<path class="st7" d="M86.7,53.3H71.8v-9.6h14.9V53.3z M72.2,52.9h14.1v-8.8H72.2V52.9z"/>
	<rect x="88.6" y="44" class="st0" width="14.5" height="9.2"/>
	<path class="st15" d="M96.6,48.9c1.2,0,2.3-1,2.3-2.2c0-1.3-1.1-2.2-2.3-2.2h-1c-1.2,0-2.2,0.9-2.2,2.2c0,1.2,1,2.2,2.2,2.2H96.6z"
		/>
	<path class="st0" d="M96,47.9v-2.4c0.5,0.2,0.8,0.6,0.8,1.2C96.8,47.3,96.5,47.7,96,47.9 M94.3,46.7c0-0.5,0.3-1,0.8-1.2v2.4
		C94.7,47.7,94.3,47.3,94.3,46.7 M95.6,44.8c-1.1,0-2,0.9-2,2c0,1.1,0.9,2,2,2c1.1,0,2-0.9,2-2C97.6,45.6,96.7,44.8,95.6,44.8"/>
	<path class="st16" d="M91.2,50.4c0,0.2,0.1,0.2,0.2,0.2c0.5,0,0.7-0.4,0.7-0.7c0-0.4-0.3-0.7-0.7-0.7c-0.1,0-0.1,0-0.2,0V50.4z
		 M91,49.3c0-0.2-0.1-0.2-0.2-0.2v-0.1c0.1,0,0.2,0,0.3,0c0.1,0,0.2,0,0.4,0c0.6,0,0.9,0.4,0.9,0.8c0,0.2-0.1,0.8-0.9,0.8
		c-0.1,0-0.2,0-0.3,0c-0.1,0-0.2,0-0.3,0v-0.1c0.1,0,0.2,0,0.2-0.2V49.3z"/>
	<path class="st16" d="M92.7,49.3c-0.1,0-0.1-0.1-0.1-0.1c0-0.1,0.1-0.1,0.1-0.1c0.1,0,0.1,0,0.1,0.1C92.8,49.2,92.8,49.3,92.7,49.3
		 M92.5,50.6L92.5,50.6c0.1,0,0.2,0,0.2-0.1v-0.6c0-0.1,0-0.1-0.1-0.2v0c0.1,0,0.2-0.1,0.2-0.1c0,0,0,0,0,0c0,0,0,0,0,0v0.9
		c0,0.1,0.1,0.1,0.1,0.1h0v0.1c-0.1,0-0.2,0-0.2,0C92.6,50.7,92.5,50.7,92.5,50.6L92.5,50.6z"/>
	<path class="st16" d="M93.2,50c0-0.1,0-0.1-0.1-0.1v0c0.1,0,0.2-0.1,0.3-0.1c0,0,0,0,0,0v0.1c0.1-0.1,0.2-0.2,0.4-0.2
		c0.2,0,0.3,0.1,0.3,0.3v0.6c0,0.1,0,0.1,0.1,0.1h0v0.1c-0.1,0-0.2,0-0.2,0c-0.1,0-0.2,0-0.2,0v-0.1h0c0.1,0,0.1,0,0.1-0.1V50
		c0-0.1-0.1-0.2-0.2-0.2c-0.1,0-0.2,0.1-0.3,0.1v0.7c0,0.1,0,0.1,0.1,0.1h0v0.1c-0.1,0-0.2,0-0.2,0s-0.2,0-0.2,0v-0.1h0
		c0.1,0,0.1,0,0.1-0.1V50z"/>
	<path class="st16" d="M94.7,50C94.8,50,94.8,50,94.7,50c0.1-0.2,0-0.3-0.1-0.3c-0.1,0-0.2,0.1-0.3,0.3H94.7z M94.3,50.1
		c0,0,0,0.1,0,0.1c0,0.2,0.2,0.4,0.3,0.4c0.1,0,0.2-0.1,0.3-0.2l0,0c-0.1,0.1-0.2,0.3-0.4,0.3c-0.4,0-0.4-0.4-0.4-0.5
		c0-0.4,0.3-0.6,0.5-0.6c0.2,0,0.4,0.1,0.4,0.4c0,0,0,0,0,0l0,0H94.3z"/>
	<path class="st16" d="M95,50.6L95,50.6c0.1,0,0.2,0,0.2-0.1v-0.6c0-0.1-0.1-0.1-0.1-0.1v0c0.2-0.1,0.3-0.1,0.3-0.1c0,0,0,0,0,0v0.2
		h0c0.1-0.1,0.2-0.2,0.3-0.2c0.1,0,0.1,0,0.1,0.1c0,0.1,0,0.1-0.1,0.1c-0.1,0-0.1-0.1-0.1-0.1c0,0-0.2,0.1-0.2,0.2v0.5
		c0,0.1,0,0.1,0.1,0.1h0.1v0.1c-0.1,0-0.2,0-0.3,0C95.2,50.7,95.1,50.7,95,50.6L95,50.6z"/>
	<path class="st16" d="M95.9,50.4c0,0.2,0.1,0.3,0.3,0.3c0.1,0,0.2-0.1,0.2-0.2c0-0.3-0.5-0.2-0.5-0.6c0-0.1,0.1-0.3,0.4-0.3
		c0.1,0,0.2,0,0.3,0.1l0,0.2h-0.1c0-0.1-0.1-0.2-0.2-0.2c-0.1,0-0.2,0.1-0.2,0.2c0,0.3,0.5,0.2,0.5,0.5c0,0.2-0.1,0.3-0.4,0.3
		c-0.1,0-0.2,0-0.3-0.1L95.9,50.4L95.9,50.4z"/>
	<path class="st16" d="M98.6,49.5L98.6,49.5c-0.1-0.3-0.3-0.4-0.5-0.4c-0.3,0-0.6,0.2-0.6,0.7c0,0.5,0.3,0.8,0.7,0.8
		c0.2,0,0.4-0.2,0.5-0.4l0.1,0l-0.1,0.3c-0.1,0.1-0.4,0.1-0.5,0.1c-0.5,0-0.9-0.3-0.9-0.9c0-0.5,0.4-0.8,0.9-0.8
		c0.2,0,0.4,0.1,0.5,0.1L98.6,49.5z"/>
	<path class="st16" d="M98.7,50.6L98.7,50.6c0.1,0,0.2,0,0.2-0.1v-1.3c0-0.1,0-0.2-0.1-0.2v0c0.1,0,0.2-0.1,0.2-0.1c0,0,0,0,0,0
		c0,0,0,0,0,0v1.6c0,0.1,0.1,0.1,0.1,0.1h0v0.1c-0.1,0-0.2,0-0.2,0C98.9,50.7,98.8,50.7,98.7,50.6L98.7,50.6z"/>
	<path class="st16" d="M100.1,50.6C100.1,50.6,100.2,50.6,100.1,50.6c0.1,0,0.1,0,0.2,0v0c-0.1,0-0.3,0.1-0.3,0.1l0,0v-0.2
		c-0.1,0.1-0.2,0.2-0.4,0.2c-0.1,0-0.2-0.1-0.2-0.3v-0.6c0-0.1,0-0.1-0.1-0.1v0c0.1,0,0.3,0,0.3,0c0,0,0,0,0,0.1v0.6
		c0,0.1,0,0.3,0.2,0.3c0.1,0,0.2-0.1,0.3-0.1v-0.6c0,0-0.1-0.1-0.2-0.1v0c0.2,0,0.3,0,0.4,0c0,0,0,0,0,0V50.6z"/>
	<path class="st16" d="M100.6,50.4c0,0.1,0.1,0.2,0.2,0.2c0.2,0,0.3-0.2,0.3-0.4c0-0.2-0.2-0.5-0.4-0.5c-0.1,0-0.2,0.1-0.2,0.1V50.4
		z M100.6,49.8c0.1-0.1,0.2-0.2,0.3-0.2c0.3,0,0.4,0.2,0.4,0.5c0,0.3-0.2,0.6-0.5,0.6c-0.2,0-0.3-0.1-0.3-0.1l-0.1,0.1l0,0
		c0-0.1,0-0.3,0-0.4v-1c0-0.1,0-0.2-0.1-0.2v0c0.1,0,0.2-0.1,0.2-0.1c0,0,0,0,0,0c0,0,0,0,0,0V49.8z"/>
	<path class="st16" d="M90.8,52L90.8,52c0.1,0,0.1,0,0.1-0.1v-0.7c0-0.1,0-0.1-0.1-0.1h0v0c0,0,0.1,0,0.2,0c0.1,0,0.1,0,0.2,0v0h0
		c0,0-0.1,0-0.1,0.1V52c0,0.1,0,0.1,0.1,0.1h0v0c-0.1,0-0.1,0-0.2,0C90.9,52.1,90.9,52.1,90.8,52L90.8,52z"/>
	<path class="st16" d="M91.2,52.1L91.2,52.1L91.2,52.1c-0.1,0-0.1,0-0.1-0.1v-0.7c0-0.1,0.1-0.1,0.1-0.1h0v0c-0.1,0-0.1,0-0.2,0
		c-0.1,0-0.1,0-0.2,0v0h0c0,0,0.1,0,0.1,0.1V52c0,0.1-0.1,0.1-0.1,0.1h0v0c0,0,0.1,0,0.2,0S91.1,52.1,91.2,52.1 M91.2,52.1
		c-0.1,0-0.1,0-0.2,0s-0.1,0-0.2,0h0v0v0v0h0h0c0,0,0.1,0,0.1-0.1v-0.7c0-0.1,0-0.1-0.1-0.1h0v0v0h0c0,0,0.1,0,0.2,0
		c0.1,0,0.1,0,0.2,0h0v0v0h0h0c0,0-0.1,0-0.1,0.1V52C91.1,52,91.1,52,91.2,52.1L91.2,52.1L91.2,52.1L91.2,52.1L91.2,52.1z"/>
	<path class="st16" d="M92,51.8L92,51.8l0-0.5c0-0.1-0.1-0.1-0.1-0.1h0v0c0.1,0,0.1,0,0.2,0c0.1,0,0.1,0,0.2,0v0h0
		c-0.1,0-0.1,0-0.1,0.2V52c0,0,0,0.1,0,0.1h0l-0.6-0.7v0.5c0,0.1,0,0.1,0.1,0.1h0v0c-0.1,0-0.1,0-0.2,0c-0.1,0-0.1,0-0.2,0v0h0
		c0.1,0,0.1-0.1,0.1-0.2v-0.5c0-0.1-0.1-0.1-0.1-0.1h0v0c0,0,0.1,0,0.1,0c0,0,0.1,0,0.1,0L92,51.8z"/>
	<path class="st16" d="M92,51.8L92,51.8L92,51.8L92,51.8z M92,51.8L92,51.8L92,51.8z M92.1,52.1L92.1,52.1c0,0,0-0.1,0-0.1v-0.6
		c0-0.2,0.1-0.2,0.1-0.2h0v0c0,0-0.1,0-0.1,0c-0.1,0-0.1,0-0.2,0v0h0c0,0,0.1,0,0.1,0.1l0,0.5l0,0l0,0l-0.5-0.6c0,0-0.1,0-0.1,0
		c0,0-0.1,0-0.1,0v0h0c0.1,0,0.1,0,0.1,0.1v0.5c0,0.1,0,0.2-0.1,0.2l0,0v0c0.1,0,0.1,0,0.2,0c0.1,0,0.1,0,0.2,0v0h0
		c-0.1,0-0.1,0-0.1-0.2v-0.5L92.1,52.1z M92.1,52.1L92.1,52.1l-0.7-0.7v0.5c0,0.1,0,0.1,0.1,0.1h0v0v0h0c-0.1,0-0.1,0-0.2,0
		c-0.1,0-0.1,0-0.2,0h0v0v0h0h0c0.1,0,0.1-0.1,0.1-0.2v-0.5c0-0.1-0.1-0.1-0.1-0.1h0v0v0h0c0,0,0.1,0,0.1,0c0,0,0.1,0,0.1,0l0.5,0.6
		v-0.5c0-0.1-0.1-0.1-0.1-0.1h0v0v0h0c0.1,0,0.1,0,0.2,0c0,0,0.1,0,0.2,0h0v0v0h0h0c-0.1,0-0.1,0-0.1,0.2V52
		C92.1,52,92.1,52,92.1,52.1L92.1,52.1L92.1,52.1z"/>
	<path class="st16" d="M92.4,51.3c-0.1,0-0.1,0-0.1,0.1h0c0,0,0-0.1,0-0.1c0,0,0-0.1,0-0.1L92.4,51.3C92.3,51.2,92.4,51.2,92.4,51.3
		l0.6-0.1c0,0,0.1,0,0.1,0l0,0c0,0,0,0.1,0,0.1c0,0,0,0.1,0,0.1l0,0c0,0,0-0.1-0.1-0.1h-0.2v0.7c0,0.1,0,0.1,0.1,0.1h0v0
		c0,0-0.1,0-0.2,0c-0.1,0-0.2,0-0.2,0v0h0c0.1,0,0.1,0,0.1-0.1v-0.7H92.4z"/>
	<path class="st16" d="M92.9,52.1c-0.1,0-0.1,0-0.2,0c-0.1,0-0.2,0-0.2,0h0v0v0h0h0c0.1,0,0.1,0,0.1-0.1v-0.7h-0.2v0v0h0.2v0.7
		c0,0.1,0,0.1-0.1,0.1h0v0c0,0,0.1,0,0.2,0C92.8,52.1,92.8,52.1,92.9,52.1L92.9,52.1L92.9,52.1c-0.1,0-0.1-0.1-0.1-0.1v-0.7H93
		c0.1,0,0.1,0.1,0.1,0.1l0,0c0,0,0-0.1,0-0.1c0,0,0-0.1,0-0.1l0,0c0,0,0,0-0.1,0h-0.6h0c0,0-0.1,0-0.1,0h0c0,0,0,0.1,0,0.1
		c0,0,0,0.1,0,0.1h0c0-0.1,0-0.1,0.1-0.1v0v0c-0.1,0-0.1,0-0.1,0.1l0,0h0h0l0,0c0,0,0-0.1,0-0.1c0,0,0-0.1,0-0.1v0h0h0v0
		c0,0,0,0,0.1,0h0H93c0,0,0.1,0,0.1,0l0,0l0,0l0,0l0,0c0,0,0,0.1,0,0.1c0,0,0,0.1,0,0.1v0l0,0l0,0l0,0c0,0,0-0.1-0.1-0.1h-0.2v0.7
		C92.8,52,92.8,52,92.9,52.1L92.9,52.1L92.9,52.1L92.9,52.1L92.9,52.1z"/>
	<path class="st16" d="M93.2,52L93.2,52c0.1,0,0.1,0,0.1-0.1v-0.7c0-0.1,0-0.1-0.1-0.1h0v0c0.1,0,0.2,0,0.3,0c0.1,0,0.2,0,0.3,0
		c0,0.1,0,0.1,0,0.2l0,0c0-0.1,0-0.1-0.1-0.1h-0.2v0.3h0.1c0.1,0,0.1,0,0.1-0.1h0c0,0,0,0.1,0,0.1c0,0,0,0.1,0,0.1l0,0
		c0-0.1,0-0.1-0.1-0.1h-0.1v0.3c0,0.1,0.1,0.1,0.1,0.1c0.1,0,0.2,0,0.3-0.2l0,0c0,0.1,0,0.1,0,0.2c-0.1,0-0.2,0-0.3,0
		C93.4,52.1,93.2,52.1,93.2,52L93.2,52z"/>
	<path class="st16" d="M93.8,52.1c0-0.1,0-0.1,0-0.2l0,0c0,0.1-0.1,0.2-0.3,0.1c-0.1,0-0.2,0-0.2-0.1v-0.3h0.2
		c0.1,0,0.1,0.1,0.1,0.1l0,0c0,0,0-0.1,0-0.1c0,0,0-0.1,0-0.1h0c0,0.1,0,0.1-0.1,0.1h-0.2v-0.3h0.2c0.1,0,0.1,0.1,0.2,0.1l0,0
		c0,0,0-0.1,0-0.1c0,0,0,0,0-0.1c-0.1,0-0.2,0-0.3,0c-0.1,0-0.2,0-0.3,0v0h0c0,0,0.1,0,0.1,0.1V52c0,0.1-0.1,0.1-0.1,0.1h0v0
		c0.1,0,0.2,0,0.3,0C93.6,52.1,93.7,52.1,93.8,52.1 M93.8,52.1c-0.1,0-0.2,0-0.3,0c-0.1,0-0.3,0-0.3,0h0v0v0v0h0h0
		c0,0,0.1,0,0.1-0.1v-0.7c0-0.1,0-0.1-0.1-0.1h0v0v0h0c0.1,0,0.2,0,0.3,0c0.1,0,0.2,0,0.3,0h0v0c0,0,0,0,0,0.1c0,0,0,0.1,0,0.1l0,0
		l0,0l0,0v0c0-0.1,0-0.1-0.1-0.1h-0.2l0,0.3h0.1c0.1,0,0.1,0,0.1-0.1v0h0h0v0c0,0,0,0.1,0,0.1c0,0,0,0.1,0,0.1v0l0,0l0,0v0
		c0-0.1,0-0.1-0.1-0.1h-0.1v0.3c0,0.1,0.1,0.1,0.1,0.1c0.1,0,0.2,0,0.2-0.1l0,0l0,0l0,0l0,0C93.9,51.9,93.8,52,93.8,52.1L93.8,52.1
		L93.8,52.1z"/>
	<path class="st16" d="M94.2,51.6L94.2,51.6c0.2,0,0.3,0,0.3-0.2c0-0.1-0.1-0.2-0.2-0.2c0,0-0.1,0-0.1,0V51.6z M94,51.3
		C94,51.2,94,51.2,94,51.3l-0.1-0.1v0c0,0,0.1,0,0.2,0c0.1,0,0.1,0,0.2,0c0.2,0,0.3,0,0.3,0.2c0,0.1-0.1,0.2-0.2,0.2l0.2,0.3
		c0,0.1,0.1,0.1,0.1,0.1v0c0,0-0.1,0-0.1,0c0,0-0.1,0-0.1,0c-0.1-0.1-0.2-0.3-0.3-0.4h-0.1v0.3c0,0.1,0,0.1,0.1,0.1h0v0
		c-0.1,0-0.1,0-0.2,0c-0.1,0-0.1,0-0.2,0v0h0c0,0,0.1,0,0.1-0.1V51.3z"/>
	<path class="st16" d="M94.2,51.6c0.1,0,0.2,0,0.2-0.2c0-0.1-0.1-0.2-0.2-0.2c0,0,0,0-0.1,0L94.2,51.6L94.2,51.6z M94.2,51.6
		L94.2,51.6l0-0.4h0c0,0,0,0,0.1,0c0.1,0,0.2,0.1,0.2,0.2C94.4,51.6,94.4,51.6,94.2,51.6L94.2,51.6z M94.2,51.7L94.2,51.7L94.2,51.7
		c0.2,0.1,0.2,0.3,0.3,0.4c0,0,0.1,0,0.1,0c0,0,0.1,0,0.1,0v0c-0.1,0-0.1,0-0.1-0.1l-0.2-0.3l0,0c0.1,0,0.2-0.1,0.2-0.2
		c0-0.2-0.1-0.2-0.3-0.2c-0.1,0-0.1,0-0.2,0c-0.1,0-0.1,0-0.2,0v0h0c0,0,0.1,0,0.1,0.1V52c0,0,0,0.1-0.1,0.1h0v0c0.1,0,0.1,0,0.2,0
		c0.1,0,0.1,0,0.2,0v0h0c-0.1,0-0.1,0-0.1-0.1L94.2,51.7L94.2,51.7z M94.8,52.1c0,0-0.1,0-0.1,0c0,0-0.1,0-0.1,0
		c-0.1-0.1-0.2-0.3-0.3-0.4h-0.1v0.3c0,0.1,0,0.1,0.1,0.1h0v0v0h0c-0.1,0-0.1,0-0.2,0c-0.1,0-0.1,0-0.2,0h0v0v0h0h0
		c0,0,0.1,0,0.1-0.1v-0.6c0-0.1,0-0.1-0.1-0.1h0v0v0h0c0,0,0.1,0,0.2,0c0.1,0,0.1,0,0.2,0c0.2,0,0.3,0,0.3,0.2
		c0,0.1-0.1,0.2-0.2,0.2l0.2,0.3C94.7,52,94.7,52,94.8,52.1L94.8,52.1L94.8,52.1L94.8,52.1L94.8,52.1z"/>
	<path class="st16" d="M95.6,51.8L95.6,51.8l0-0.5c0-0.1-0.1-0.1-0.1-0.1h0v0c0.1,0,0.1,0,0.2,0c0.1,0,0.1,0,0.2,0v0h0
		c-0.1,0-0.1,0-0.1,0.2V52c0,0,0,0.1,0,0.1h0L95,51.4v0.5c0,0.1,0,0.1,0.1,0.1h0v0c-0.1,0-0.1,0-0.2,0c-0.1,0-0.1,0-0.2,0v0h0
		c0.1,0,0.1-0.1,0.1-0.2v-0.5c0-0.1-0.1-0.1-0.1-0.1h0v0c0,0,0.1,0,0.1,0c0,0,0.1,0,0.1,0L95.6,51.8z"/>
	<path class="st16" d="M95.6,51.8L95.6,51.8L95.6,51.8L95.6,51.8z M95.6,51.8L95.6,51.8L95.6,51.8z M95.6,52.1L95.6,52.1
		c0,0,0-0.1,0-0.1v-0.6c0-0.2,0.1-0.2,0.1-0.2h0v0c0,0-0.1,0-0.1,0c-0.1,0-0.1,0-0.2,0v0h0c0,0,0.1,0,0.1,0.1l0,0.5l0,0l0,0
		l-0.5-0.6c0,0-0.1,0-0.1,0c0,0-0.1,0-0.1,0v0h0c0.1,0,0.1,0,0.1,0.1v0.5c0,0.1,0,0.2-0.1,0.2h0v0c0.1,0,0.1,0,0.2,0
		c0.1,0,0.1,0,0.2,0v0h0C95,52,95,52,95,51.9v-0.5L95.6,52.1z M95.7,52.1L95.7,52.1L95,51.4v0.5c0,0.1,0,0.1,0.1,0.1h0v0v0h0
		c-0.1,0-0.1,0-0.2,0c-0.1,0-0.1,0-0.2,0h0v0v0h0h0c0.1,0,0.1-0.1,0.1-0.2v-0.5c0-0.1-0.1-0.1-0.1-0.1h0v0v0h0c0,0,0.1,0,0.1,0
		c0,0,0.1,0,0.1,0l0.5,0.6v-0.5c0-0.1-0.1-0.1-0.1-0.1h0v0v0h0c0.1,0,0.1,0,0.2,0c0.1,0,0.1,0,0.2,0h0v0v0h0h0c-0.1,0-0.1,0-0.1,0.2
		V52C95.7,52,95.7,52,95.7,52.1L95.7,52.1L95.7,52.1z"/>
	<path class="st16" d="M96.2,51.3L96.2,51.3l-0.1,0.4h0.2L96.2,51.3z M96,51.9C96,51.9,96,52,96,51.9c0,0.1,0,0.1,0.1,0.1h0v0
		c0,0-0.1,0-0.1,0c0,0-0.1,0-0.1,0v0h0C95.8,52,95.9,52,96,51.9l0.1-0.5c0,0,0-0.1,0-0.2c0,0,0.1,0,0.1-0.1c0,0,0,0,0,0c0,0,0,0,0,0
		c0,0,0,0,0,0l0.2,0.7c0,0,0,0.1,0,0.1c0,0,0,0,0.1,0h0v0c-0.1,0-0.1,0-0.2,0c-0.1,0-0.1,0-0.2,0v0h0c0,0,0.1,0,0.1,0c0,0,0,0,0-0.1
		l0-0.1H96L96,51.9z"/>
	<path class="st16" d="M96.2,51.3L96.2,51.3L96.2,51.3z M96.1,51.7h0.2l-0.1-0.3L96.1,51.7z M96,51.7l0.1-0.4h0h0v0h0h0v0h0l0.1,0.4
		H96z M96.3,52.1c0.1,0,0.1,0,0.2,0c0.1,0,0.1,0,0.2,0v0h0c0,0-0.1,0-0.1-0.1c0,0,0-0.1,0-0.1l-0.2-0.7c0,0,0,0,0,0l0,0h0
		c0,0,0,0,0,0c0,0-0.1,0-0.1,0.1c0,0,0,0.1,0,0.2l-0.2,0.6c0,0.1-0.1,0.1-0.1,0.1h0v0c0,0,0.1,0,0.1,0c0,0,0.1,0,0.1,0v0h0
		c0,0-0.1,0-0.1-0.1c0,0,0-0.1,0-0.1l0,0l0,0l0-0.1h0.3l0,0.1C96.4,51.9,96.4,52,96.3,52.1C96.4,52,96.3,52,96.3,52.1L96.3,52.1
		L96.3,52.1z M96.6,52.1c-0.1,0-0.1,0-0.2,0c-0.1,0-0.1,0-0.2,0l0,0v0v0h0h0c0,0,0.1,0,0.1,0c0,0,0,0,0-0.1l0-0.1H96l0,0.1
		c0,0,0,0.1,0,0.1c0,0,0,0,0.1,0h0v0v0l0,0c0,0-0.1,0-0.1,0c0,0-0.1,0-0.1,0l0,0v0v0h0h0c0,0,0.1,0,0.1-0.1l0.2-0.6c0,0,0-0.1,0-0.2
		c0,0,0.1,0,0.1-0.1c0,0,0,0,0,0c0,0,0,0,0,0c0,0,0,0,0,0l0.2,0.7C96.5,51.9,96.5,51.9,96.6,52.1C96.6,52,96.6,52,96.6,52.1
		L96.6,52.1L96.6,52.1L96.6,52.1L96.6,52.1z"/>
	<path class="st16" d="M96.7,51.3c-0.1,0-0.1,0-0.1,0.1h0c0,0,0-0.1,0-0.1c0,0,0-0.1,0-0.1L96.7,51.3C96.6,51.2,96.6,51.2,96.7,51.3
		l0.6-0.1c0,0,0.1,0,0.1,0l0,0c0,0,0,0.1,0,0.1c0,0,0,0.1,0,0.1l0,0c0,0,0-0.1-0.1-0.1h-0.2v0.7c0,0.1,0,0.1,0.1,0.1h0v0
		c0,0-0.1,0-0.2,0c-0.1,0-0.2,0-0.2,0v0h0c0.1,0,0.1,0,0.1-0.1v-0.7H96.7z"/>
	<path class="st16" d="M97.2,52.1c0,0-0.1,0-0.2,0c-0.1,0-0.2,0-0.2,0h0v0v0h0h0c0.1,0,0.1,0,0.1-0.1v-0.7h-0.2v0v0h0.2v0.7
		c0,0.1,0,0.1-0.1,0.1h0v0c0,0,0.1,0,0.2,0C97.1,52.1,97.1,52.1,97.2,52.1L97.2,52.1L97.2,52.1c-0.1,0-0.1-0.1-0.1-0.1v-0.7h0.2
		c0.1,0,0.1,0.1,0.1,0.1l0,0c0,0,0-0.1,0-0.1c0,0,0-0.1,0-0.1l0,0c0,0,0,0-0.1,0h-0.6h0c0,0-0.1,0-0.1,0h0c0,0,0,0.1,0,0.1
		c0,0,0,0.1,0,0.1h0c0-0.1,0-0.1,0.1-0.1v0v0c-0.1,0-0.1,0-0.1,0.1l0,0h0h0l0,0c0,0,0-0.1,0-0.1c0,0,0-0.1,0-0.1v0h0h0l0,0
		c0,0,0,0,0.1,0h0h0.6c0,0,0.1,0,0.1,0v0l0,0l0,0l0,0c0,0,0,0.1,0,0.1c0,0,0,0.1,0,0.1v0l0,0l0,0v0c0,0,0-0.1-0.1-0.1h-0.2v0.7
		C97.1,52,97.1,52,97.2,52.1L97.2,52.1L97.2,52.1L97.2,52.1L97.2,52.1z"/>
	<path class="st16" d="M97.5,52L97.5,52c0.1,0,0.1,0,0.1-0.1v-0.7c0-0.1,0-0.1-0.1-0.1h0v0c0,0,0.1,0,0.2,0c0.1,0,0.1,0,0.2,0v0h0
		c0,0-0.1,0-0.1,0.1V52c0,0.1,0,0.1,0.1,0.1h0v0c-0.1,0-0.1,0-0.2,0C97.6,52.1,97.5,52.1,97.5,52L97.5,52z"/>
	<path class="st16" d="M97.8,52.1L97.8,52.1L97.8,52.1c-0.1,0-0.1,0-0.1-0.1v-0.7c0-0.1,0.1-0.1,0.1-0.1h0v0c-0.1,0-0.1,0-0.2,0
		c-0.1,0-0.1,0-0.2,0v0h0c0,0,0.1,0,0.1,0.1V52c0,0.1-0.1,0.1-0.1,0.1h0v0c0,0,0.1,0,0.2,0C97.7,52.1,97.8,52.1,97.8,52.1
		 M97.8,52.1c-0.1,0-0.1,0-0.2,0c-0.1,0-0.1,0-0.2,0h0v0v0v0h0h0c0,0,0.1,0,0.1-0.1v-0.7c0-0.1,0-0.1-0.1-0.1h0v0v0h0
		c0,0,0.1,0,0.2,0c0.1,0,0.1,0,0.2,0h0v0v0h0h0c0,0-0.1,0-0.1,0.1V52C97.7,52,97.8,52,97.8,52.1L97.8,52.1L97.8,52.1L97.8,52.1
		L97.8,52.1z"/>
	<path class="st16" d="M98.3,52c0.2,0,0.3-0.2,0.3-0.4c0-0.2-0.1-0.4-0.3-0.4c-0.2,0-0.3,0.2-0.3,0.4C98,51.8,98.1,52,98.3,52
		 M98.3,51.2c0.3,0,0.5,0.2,0.5,0.4c0,0.3-0.2,0.5-0.5,0.5c-0.3,0-0.5-0.2-0.5-0.4C97.9,51.4,98.1,51.2,98.3,51.2"/>
	<path class="st16" d="M98,51.6c0-0.2,0.1-0.4,0.3-0.4c0.2,0,0.3,0.2,0.3,0.4c0,0.2,0,0.4-0.3,0.4v0v0c0.2,0,0.3-0.2,0.3-0.4
		c0-0.2-0.1-0.4-0.3-0.4C98.1,51.2,98,51.4,98,51.6c0,0.2,0.1,0.4,0.3,0.4v0v0C98.1,52,98,51.8,98,51.6 M97.9,51.6
		c0-0.3,0.2-0.5,0.5-0.5v0v0C98.1,51.2,97.9,51.4,97.9,51.6c0,0.3,0.2,0.4,0.5,0.4c0.3,0,0.5-0.2,0.5-0.5c0-0.3-0.2-0.4-0.5-0.4v0v0
		c0.3,0,0.5,0.2,0.5,0.4c0,0.3-0.2,0.5-0.5,0.5C98.1,52.1,97.9,51.9,97.9,51.6"/>
	<path class="st16" d="M99.6,51.8L99.6,51.8l0-0.5c0-0.1-0.1-0.1-0.1-0.1h0v0c0.1,0,0.1,0,0.2,0c0.1,0,0.1,0,0.2,0v0h0
		c-0.1,0-0.1,0-0.1,0.2V52c0,0,0,0.1,0,0.1h0L99,51.4v0.5c0,0.1,0,0.1,0.1,0.1h0v0c-0.1,0-0.1,0-0.2,0c-0.1,0-0.1,0-0.2,0v0h0
		c0.1,0,0.1-0.1,0.1-0.2v-0.5c0-0.1-0.1-0.1-0.1-0.1h0v0c0,0,0.1,0,0.1,0c0,0,0.1,0,0.1,0L99.6,51.8z"/>
	<path class="st16" d="M99.6,51.8L99.6,51.8L99.6,51.8L99.6,51.8z M99.6,51.8L99.6,51.8L99.6,51.8z M99.6,52.1L99.6,52.1
		c0,0,0-0.1,0-0.1v-0.6c0-0.2,0.1-0.2,0.1-0.2h0v0c0,0-0.1,0-0.1,0c-0.1,0-0.1,0-0.2,0v0h0c0,0,0.1,0,0.1,0.1l0,0.5l0,0l0,0
		l-0.5-0.6c0,0-0.1,0-0.1,0c0,0-0.1,0-0.1,0v0h0c0.1,0,0.1,0,0.1,0.1v0.5c0,0.1,0,0.2-0.1,0.2h0v0c0.1,0,0.1,0,0.2,0
		c0.1,0,0.1,0,0.2,0v0h0C99,52,99,52,99,51.9v-0.5L99.6,52.1z M99.7,52.1L99.7,52.1L99,51.4v0.5c0,0.1,0,0.1,0.1,0.1h0v0v0h0
		c-0.1,0-0.1,0-0.2,0c-0.1,0-0.1,0-0.2,0h0v0v0h0h0c0.1,0,0.1-0.1,0.1-0.2v-0.5c0-0.1-0.1-0.1-0.1-0.1h0v0v0h0c0,0,0.1,0,0.1,0
		c0,0,0.1,0,0.1,0l0.5,0.6v-0.5c0-0.1-0.1-0.1-0.1-0.1h0v0v0h0c0.1,0,0.1,0,0.2,0c0,0,0.1,0,0.2,0h0v0v0h0h0c-0.1,0-0.1,0-0.1,0.2
		V52C99.7,52,99.7,52,99.7,52.1L99.7,52.1L99.7,52.1z"/>
	<path class="st16" d="M100.2,51.3L100.2,51.3l-0.1,0.4h0.2L100.2,51.3z M100,51.9C100,51.9,100,52,100,51.9c0,0.1,0,0.1,0.1,0.1h0
		v0c0,0-0.1,0-0.2,0c0,0-0.1,0-0.1,0v0h0C99.9,52,99.9,52,100,51.9l0.1-0.5c0,0,0-0.1,0-0.2c0,0,0.1,0,0.1-0.1c0,0,0,0,0,0
		c0,0,0,0,0,0c0,0,0,0,0,0l0.2,0.7c0,0,0,0.1,0,0.1c0,0,0,0,0.1,0h0v0c-0.1,0-0.1,0-0.2,0c-0.1,0-0.1,0-0.2,0v0h0c0,0,0.1,0,0.1,0
		c0,0,0,0,0-0.1l0-0.1h-0.3L100,51.9z"/>
	<path class="st16" d="M100.2,51.3L100.2,51.3L100.2,51.3z M100.1,51.7h0.2l-0.1-0.3L100.1,51.7z M100.1,51.7l0.1-0.4h0h0v0h0h0v0h0
		l0.1,0.4H100.1z M100.3,52.1c0.1,0,0.1,0,0.2,0c0.1,0,0.1,0,0.2,0v0h0c0,0-0.1,0-0.1-0.1c0,0,0-0.1,0-0.1l-0.2-0.7c0,0,0,0,0,0
		c0,0,0,0,0,0h0c0,0,0,0,0,0c0,0-0.1,0-0.1,0.1c0,0,0,0.1,0,0.2l-0.2,0.6c0,0.1-0.1,0.1-0.1,0.1h0v0c0,0,0.1,0,0.1,0
		c0,0,0.1,0,0.1,0v0h0c0,0-0.1,0-0.1-0.1c0,0,0-0.1,0-0.1l0,0l0,0l0-0.1h0.3l0.1,0.1C100.4,51.9,100.4,52,100.3,52.1
		C100.4,52,100.4,52,100.3,52.1L100.3,52.1L100.3,52.1z M100.7,52.1c-0.1,0-0.1,0-0.2,0c-0.1,0-0.1,0-0.2,0l0,0v0v0h0h0
		c0,0,0.1,0,0.1,0c0,0,0,0,0-0.1l0-0.1h-0.3l0,0.1c0,0,0,0.1,0,0.1c0,0,0,0,0.1,0h0v0v0l0,0c0,0-0.1,0-0.1,0c0,0-0.1,0-0.1,0l0,0v0
		v0h0h0c0,0,0.1,0,0.1-0.1l0.2-0.6c0,0,0-0.1,0-0.2c0,0,0.1,0,0.1-0.1c0,0,0,0,0,0c0,0,0,0,0,0c0,0,0,0,0,0l0.2,0.7
		C100.6,51.9,100.6,51.9,100.7,52.1C100.6,52,100.6,52,100.7,52.1L100.7,52.1L100.7,52.1L100.7,52.1L100.7,52.1z"/>
	<path class="st16" d="M101,51.9C101,52,101,52,101,51.9c0.1,0.1,0.2,0.1,0.2,0.1c0.1,0,0.1,0,0.1-0.1c0,0,0-0.1,0-0.1h0
		c0,0.1,0,0.1,0,0.2c-0.1,0-0.2,0-0.3,0c-0.1,0-0.2,0-0.3,0v0h0c0,0,0.1,0,0.1-0.1v-0.6c0-0.1,0-0.1-0.1-0.1h0v0c0.1,0,0.1,0,0.2,0
		c0.1,0,0.1,0,0.2,0v0h0c0,0-0.1,0-0.1,0.1V51.9z"/>
	<path class="st16" d="M101.4,52.1c0-0.1,0-0.1,0-0.2h0c0,0,0,0.1,0,0.1c0,0-0.1,0.1-0.1,0.1c0,0-0.1,0-0.1,0c0,0,0,0-0.1,0
		c0,0-0.1,0-0.1-0.1v-0.6c0-0.1,0-0.1,0.1-0.1h0v0c-0.1,0-0.1,0-0.2,0c-0.1,0-0.1,0-0.2,0v0h0c0,0,0.1,0,0.1,0.1v0.6
		c0,0.1-0.1,0.1-0.1,0.1h0v0c0.1,0,0.2,0,0.3,0C101.1,52.1,101.3,52.1,101.4,52.1 M101.4,52.1c-0.1,0-0.2,0-0.3,0
		c-0.1,0-0.2,0-0.3,0h0v0v0h0h0c0,0,0.1,0,0.1-0.1v-0.6c0-0.1,0-0.1-0.1-0.1h0v0v0h0c0.1,0,0.1,0,0.2,0c0.1,0,0.1,0,0.2,0h0v0v0h0h0
		c0,0-0.1,0-0.1,0.1v0.6c0,0,0,0.1,0.1,0.1c0,0,0,0,0.1,0c0,0,0.1,0,0.1,0c0.1,0,0.1,0,0.1-0.1c0,0,0-0.1,0-0.1l0,0h0h0l0,0
		C101.4,51.9,101.4,52,101.4,52.1L101.4,52.1L101.4,52.1z"/>
	<path class="st16" d="M101.4,51.3L101.4,51.3C101.4,51.3,101.4,51.3,101.4,51.3C101.4,51.2,101.4,51.2,101.4,51.3L101.4,51.3
		L101.4,51.3z M101.3,51.4L101.3,51.4C101.3,51.3,101.4,51.3,101.3,51.4l0-0.1c0,0,0,0,0,0v0h0.1c0,0,0,0,0,0
		C101.4,51.3,101.4,51.3,101.3,51.4l0.1,0c0,0,0,0,0,0v0h0C101.4,51.4,101.4,51.3,101.3,51.4L101.3,51.4L101.3,51.4
		C101.4,51.3,101.4,51.3,101.3,51.4L101.3,51.4L101.3,51.4z M101.4,51.4c0.1,0,0.1,0,0.1-0.1s0-0.1-0.1-0.1c-0.1,0-0.1,0.1-0.1,0.1
		S101.3,51.4,101.4,51.4 M101.4,51.2c0.1,0,0.1,0.1,0.1,0.1c0,0.1-0.1,0.1-0.1,0.1c-0.1,0-0.1-0.1-0.1-0.1
		C101.3,51.2,101.3,51.2,101.4,51.2"/>
	<path class="st7" d="M103.2,53.3H88.3v-9.6h14.9V53.3z M88.7,52.9h14.1v-8.8H88.7V52.9z"/>
</g>
</svg>
